<svg width="635" height="107" viewBox="0 0 635 107" fill="none" xmlns="http://www.w3.org/2000/svg">
<g clip-path="url(#clip0_358_4)">
<path d="M34.4846 52.3581C-46.4793 9.31281 -83.1325 52.0575 -102.121 62.1272C-97.4831 99.9563 -64.2829 109.388 -53.0621 109.35L680.697 109.917C723.2 100.807 729.553 62.1173 726.335 47.5024C717.389 57.1697 686.46 61.8222 671.5 56.9312C635.594 34.8355 594.395 50.0263 578.283 60.3837C564.761 67.864 525.806 78.8543 478.162 62.973C430.518 47.0917 390.412 59.2329 376.314 67.2886C327.29 92.1462 269.001 78.7968 245.984 69.0148C210.079 49.6811 179.759 48.9898 136.332 58.4C67.5646 71.0866 98.7943 76.7827 34.4846 52.3581Z" fill="white" fill-opacity="0.19"/>
<path d="M-5.91209 24.9795C-117.405 -34.297 -129.549 28.5562 -155.697 42.4228C-149.31 94.5163 -103.591 107.504 -88.1394 107.453L922.301 108.232C980.831 95.6881 989.58 42.4092 985.147 22.2835C972.828 35.596 930.237 42.0028 909.635 35.2676C860.191 4.84023 803.456 25.7591 781.27 40.0219C762.649 50.3228 709.004 65.4573 643.395 43.5876C577.786 21.7179 522.557 38.4371 503.144 49.5305C435.633 83.7613 432.157 72.4513 347.109 50.7062C297.665 24.0822 241.617 66.7958 178.503 72.2721C104.478 58.428 54.2712 0.860462 -5.91209 24.9795Z" fill="white" fill-opacity="0.07"/>
</g>
<defs>
<clipPath id="clip0_358_4">
<rect width="635" height="107" fill="white"/>
</clipPath>
</defs>
</svg>
