<svg width="328" height="19" viewBox="0 0 328 19" fill="none" xmlns="http://www.w3.org/2000/svg">
<path d="M8.91938 8.63707C7.62238 8.77669 6.32438 8.90934 5.02838 9.06094C4.84038 9.08288 4.66338 9.24544 4.47938 9.25142C3.69238 9.27635 2.90338 9.26639 2.11638 9.26938C2.31138 8.64405 2.50638 8.01971 2.67238 7.48813C2.03538 7.14006 1.31138 6.74512 0.588379 6.34918C0.669379 6.16168 0.750378 5.97318 0.832378 5.78568C1.46038 5.73582 2.08838 5.68596 2.52038 5.65205C2.80838 5.05066 2.93238 4.31662 3.33538 4.1022C3.63938 3.94063 4.44338 4.31462 4.77438 4.67765C5.86838 5.87944 6.77238 7.30064 8.63638 7.2039C8.81538 6.49879 8.99438 5.79366 9.17338 5.08755C9.83538 5.5174 10.6984 5.80664 11.1204 6.40603C12.2944 8.07058 13.7474 9.08387 16.0324 9.11679C15.9194 8.87842 15.7694 8.70489 15.7634 8.52537C15.7394 7.83721 15.7624 7.14705 15.7674 6.4579C16.3964 6.79101 17.2414 6.96952 17.6154 7.48614C18.7784 9.09384 19.8564 10.6806 22.2594 10.2877C21.9184 9.5955 21.4734 8.94724 21.2964 8.23315C21.1994 7.84219 21.4394 7.09717 21.7404 6.95256C22.0744 6.79199 22.7504 7.01042 23.0974 7.28768C23.5384 7.64073 23.8364 8.19624 24.1294 8.70288C25.3124 10.7524 27.0884 11.653 29.6134 11.4864C29.0184 10.6038 28.3454 9.84184 27.9684 8.9562C27.7434 8.42762 27.9804 7.70257 28.0104 7.06627C28.5344 7.30563 29.1604 7.43628 29.5574 7.80928C30.1204 8.33786 30.5854 9.00507 30.9694 9.68226C32.3264 12.0828 34.5074 12.4598 37.0954 12.2833C36.3654 11.3927 35.5744 10.6766 35.1244 9.78798C34.8394 9.22548 35.0644 8.40568 35.0604 7.70156C35.7174 7.88208 36.4054 7.99378 37.0194 8.27104C37.3394 8.41565 37.6054 8.81558 37.7614 9.16066C39.1114 12.1517 41.4424 12.9854 44.5954 12.1726C43.8914 11.3239 43.0204 10.536 42.5074 9.5616C42.1624 8.90535 42.3244 7.98481 42.2594 7.18196C42.9544 7.47617 43.7144 7.67663 44.3244 8.09451C44.7834 8.40867 45.0584 8.9961 45.4014 9.47182C47.4844 12.3601 47.4824 12.3611 51.3024 11.7667C50.5944 10.8222 49.7984 9.95754 49.2614 8.95522C49.0234 8.51041 49.3084 7.78734 49.3554 7.19094C49.9264 7.29466 50.5754 7.26274 51.0454 7.538C51.5244 7.81825 51.8484 8.38274 52.2034 8.85149C54.5084 11.8983 55.5864 12.2374 59.5434 11.0975C58.7554 10.2248 57.8764 9.43693 57.2564 8.48248C56.9754 8.04964 57.2054 7.28568 57.2034 6.67232C57.7944 6.78402 58.5584 6.70423 58.9414 7.04731C59.8574 7.87011 60.6644 8.84051 61.3834 9.84582C62.1734 10.9519 63.0744 11.28 64.4164 10.9778C65.5514 10.7215 66.7564 10.7753 68.3204 10.6636C67.1394 9.78799 66.0614 9.21751 65.3134 8.35981C64.7494 7.71254 64.6074 6.69924 64.2774 5.84852C65.1274 6.09386 66.0094 6.26641 66.8164 6.61248C67.2724 6.80796 67.5984 7.29664 67.9964 7.63673C71.0084 10.2128 72.3644 10.526 75.5584 9.73513C74.9594 8.92529 74.0484 7.86014 73.3524 6.66932C73.0654 6.17863 73.2424 5.41966 73.2074 4.78237C73.7714 4.93197 74.6314 4.89905 74.8534 5.25909C77.3624 9.32821 81.0574 9.75008 85.2494 8.79963C85.4934 8.74477 85.7414 8.70987 86.2374 8.62011C85.4364 7.68262 84.6484 6.9436 84.1094 6.05398C83.8334 5.59919 84.0004 4.87612 83.9674 4.27373C84.5774 4.31064 85.3064 4.15006 85.7694 4.42931C86.4754 4.85517 87.1354 5.49945 87.5704 6.20158C88.6244 7.90502 90.1304 8.26904 91.9574 8.01672C93.8634 7.75342 95.7744 7.52704 97.8424 7.26374C96.6064 6.20856 95.4624 5.42167 94.5854 4.40539C94.1434 3.89375 94.1844 2.96623 94.0074 2.2272C94.7494 2.32494 95.6204 2.21224 96.2054 2.56829C97.1974 3.17267 98.1164 3.98051 98.8744 4.86614C100.849 7.17497 103.268 6.93461 105.916 6.24845C104.877 5.50943 103.727 4.94892 102.97 4.0573C102.508 3.51276 102.648 2.45957 102.518 1.63478C103.258 1.82926 104.003 2.00679 104.734 2.2292C104.903 2.28006 105.068 2.46058 105.161 2.62414C107.366 6.45689 110.796 6.32226 114.317 5.46654C113.454 4.31363 112.472 3.12779 111.66 1.83525C111.436 1.4782 111.718 0.805005 111.768 0.277416C112.35 0.365182 113.142 0.244498 113.475 0.579602C114.39 1.49815 115.14 2.58823 115.904 3.6474C116.81 4.90305 117.878 5.58622 119.545 5.35684C120.867 5.17532 122.233 5.31993 123.804 5.31993C122.862 4.2458 121.997 3.51276 121.491 2.58524C121.197 2.04768 121.48 1.19696 121.503 0.486863C122.124 0.634468 122.807 0.669365 123.349 0.962581C123.843 1.22987 124.337 1.70759 124.57 2.21224C126.077 5.48649 128.841 5.54034 131.955 5.09454C131.193 4.18796 130.303 3.40405 129.797 2.42367C129.486 1.82028 129.761 0.914717 129.772 0.144775C130.469 0.343245 131.293 0.374154 131.831 0.782064C132.54 1.31963 133.112 2.09755 133.586 2.86749C135.066 5.27106 137.163 6.13675 139.881 5.58922C139.259 4.40837 138.539 3.26143 138.062 2.02174C137.886 1.56397 138.281 0.886792 138.415 0.310333C138.997 0.470904 139.797 0.449956 140.117 0.82994C140.817 1.66271 141.472 2.6391 141.786 3.66536C142.399 5.67 143.606 6.70423 145.688 6.82292C146.319 6.85882 146.941 7.05728 147.674 7.20189C147.121 5.94625 146.439 4.83124 146.176 3.62447C146.036 2.98318 146.621 2.18531 146.879 1.45726C147.4 1.85021 148.022 2.16438 148.413 2.66005C148.8 3.15174 148.937 3.8349 149.213 4.41934C150.039 6.16866 150.88 7.912 151.801 9.83586C151.922 9.75707 151.63 10.0982 151.438 10.0493C149.917 9.65933 148.965 10.5689 148.006 11.4635C147.288 12.1327 146.665 12.9286 145.87 13.4841C145.375 13.8302 144.64 13.8332 144.012 13.9907C144.039 13.2836 143.818 12.4219 144.144 11.9013C144.859 10.7594 145.852 9.78898 146.638 8.85946C143.49 7.4991 143.003 7.59285 140.456 10.2477C139.957 10.7674 139.498 11.3548 138.911 11.7497C138.486 12.035 137.88 12.0529 137.355 12.1896C137.273 11.5912 136.935 10.8631 137.161 10.4223C137.653 9.46285 138.432 8.64903 139.095 7.77636C136.874 6.71021 135.099 7.26473 133.654 9.20554C132.991 10.0952 132.294 10.9788 131.488 11.7348C131.135 12.0659 130.473 12.0689 129.951 12.2205C129.833 11.5662 129.412 10.7524 129.658 10.2906C130.251 9.17861 131.156 8.23115 132.076 7.03535C129.456 6.84286 127.073 6.31726 125.355 9.00807C124.672 10.0762 123.271 10.6886 122.197 11.5074C121.924 11.2999 121.651 11.0925 121.379 10.886C121.835 9.71817 122.291 8.55029 122.791 7.26672C121.252 7.26672 119.532 7.19093 117.827 7.31959C117.399 7.3525 116.95 7.99079 116.632 8.4366C115.609 9.86877 114.705 11.3907 113.614 12.768C113.306 13.156 112.517 13.165 111.948 13.3485C111.887 12.759 111.593 12.0619 111.808 11.6011C112.429 10.2697 113.255 9.034 114.032 7.70754C112.533 7.70754 111.101 7.5759 109.713 7.7644C109.046 7.85516 108.371 8.46252 107.859 8.99011C106.86 10.0184 106.029 11.2102 105.006 12.2105C104.702 12.5077 103.991 12.39 103.466 12.4628C103.45 11.9323 103.259 11.3249 103.455 10.889C103.818 10.0802 104.405 9.37109 104.979 8.50042C102.784 8.29397 101.034 8.52735 99.8784 10.6068C99.2574 11.7238 98.2774 12.6633 97.3594 13.5838C97.0584 13.886 96.4444 13.876 95.9734 14.0097C95.8564 13.4821 95.4904 12.8408 95.6694 12.4469C96.1434 11.4047 96.8524 10.4692 97.6924 9.13573C94.9104 9.46485 92.2944 9.49277 89.8724 10.1879C88.7734 10.5031 88.1304 12.2225 87.1374 13.153C86.5484 13.7055 85.6804 13.9628 84.9374 14.3528C85.0994 13.4382 85.2154 12.5127 85.4454 11.6151C85.5334 11.273 85.8804 10.9978 86.3474 10.3734C83.9134 10.6666 81.7924 10.7843 79.7474 11.2381C78.9874 11.4067 78.3294 12.3003 77.7544 12.9745C76.8664 14.0157 76.1554 15.2125 75.2274 16.2118C74.9324 16.529 74.1864 16.4302 73.6464 16.522C73.6124 16.0452 73.4034 15.4897 73.5764 15.1068C74.1064 13.9369 74.7834 12.8338 75.4444 11.6291C73.3144 11.5323 71.5494 11.9323 70.3374 13.8362C69.7124 14.8175 68.8994 15.7072 68.0424 16.501C67.7144 16.8052 67.0304 16.7284 66.5084 16.8252C66.4644 16.2926 66.2344 15.6842 66.4154 15.2434C66.8014 14.3019 67.3994 13.4472 68.0024 12.396C64.5524 12.6543 61.0174 12.1686 59.1034 15.9136C58.9044 16.3026 58.5334 16.7095 58.1434 16.8661C57.7174 17.0376 57.0594 17.1044 56.7284 16.882C56.4944 16.7244 56.4734 15.9375 56.6434 15.5606C56.9864 14.8046 57.5254 14.1364 57.9824 13.4322C55.3204 12.8039 54.7044 13.0383 53.0694 15.1666C52.5544 15.8378 52.0024 16.51 51.3474 17.0326C51.0264 17.2889 50.4324 17.2042 49.9624 17.274C49.9094 16.8022 49.7044 16.2816 49.8384 15.8707C50.0764 15.1427 50.5204 14.4804 50.9634 13.6267C49.2104 13.534 47.7834 13.6467 46.9054 15.4618C46.4684 16.3644 45.6434 17.1064 44.8954 17.8185C44.6314 18.0688 43.8604 18.2194 43.6974 18.0519C43.3994 17.7437 43.1694 17.1024 43.2874 16.7135C43.5624 15.8099 44.0614 14.9741 44.4754 14.0994C41.8974 13.5649 39.7154 13.7993 38.2114 16.3056C37.6994 17.1583 36.7634 17.8305 35.8844 18.3591C35.4574 18.6154 34.7154 18.3501 34.1154 18.3212C34.1584 17.7856 34.0134 17.1144 34.2824 16.7414C34.9564 15.8079 35.8194 15.009 36.5794 14.1842C33.0174 13.157 33.0614 13.2019 30.5114 15.6563C29.4374 16.6905 28.4844 18.1327 26.4884 17.8365C26.0224 15.5516 27.9804 14.7248 29.0464 13.4053C26.7704 12.2683 25.5274 12.399 23.6844 13.9219C22.8294 14.628 22.0004 15.406 21.0364 15.9236C20.5134 16.2048 19.7324 16.0074 19.0684 16.0263C19.1754 15.3661 19.1154 14.6101 19.4294 14.0695C19.8424 13.3584 20.5494 12.8179 21.2294 12.0988C19.9974 11.3518 18.9234 11.2989 17.8404 12.2125C16.9424 12.9705 16.0684 13.7753 15.0784 14.3937C14.7174 14.6191 14.0564 14.3667 13.5324 14.3318C13.6194 13.8561 13.5674 13.2807 13.8244 12.9276C14.3534 12.2005 15.0464 11.5922 16.0704 10.517C14.6114 10.6168 13.5084 10.5789 12.4574 10.7943C11.3164 11.0287 10.2404 11.5742 9.10138 11.8315C8.61238 11.9422 8.03538 11.67 7.49838 11.5712C7.71938 11.0217 7.88338 10.4372 8.18538 9.93659C8.35638 9.65234 8.75638 9.50474 9.05238 9.2963C9.00838 9.07788 8.96438 8.85748 8.91938 8.63707Z" fill="white" fill-opacity="0.2"/>
<path d="M270.202 13.3017C270.719 14.1195 271.257 14.8466 271.647 15.6445C271.807 15.9716 271.789 16.7126 271.608 16.8093C271.218 17.0168 270.641 17.0387 270.195 16.926C269.864 16.8422 269.513 16.4772 269.349 16.1481C267.443 12.3283 263.856 12.5776 260.215 12.3722C260.785 13.3227 261.394 14.0906 261.716 14.9633C261.922 15.5218 261.705 16.2359 261.677 16.8801C261.11 16.7016 260.415 16.6687 260.004 16.3117C259.275 15.6754 258.625 14.9014 258.107 14.0806C256.895 12.1578 255.174 11.4377 252.777 11.6631C253.332 12.5796 253.969 13.3815 254.319 14.2941C254.581 14.9782 254.473 15.804 254.529 16.566C253.828 16.2389 252.991 16.0544 252.46 15.5497C251.714 14.8416 251.142 13.928 250.591 13.0424C249.769 11.7219 248.637 10.9919 247.084 10.8772C245.468 10.7575 243.853 10.6149 241.983 10.4613C242.567 11.2382 243.17 11.7937 243.44 12.4789C243.645 12.9985 243.428 13.6847 243.399 14.2971C242.825 14.1495 242.155 14.1375 241.703 13.8183C241.132 13.4154 240.639 12.819 240.287 12.2066C239.366 10.6049 238.039 9.79709 236.195 9.69237C234.396 9.59064 232.603 9.38619 230.587 9.20667C231.355 10.3945 232.07 11.315 232.555 12.3423C232.752 12.7602 232.449 13.4134 232.374 13.959C231.85 13.8253 231.183 13.8463 230.831 13.5251C230.018 12.7831 229.215 11.9573 228.667 11.0158C227.469 8.95733 225.82 8.04577 223.334 8.56538C223.817 9.3054 224.41 9.99955 224.74 10.8014C224.941 11.2911 224.738 11.9463 224.716 12.5278C224.191 12.4171 223.522 12.4689 223.169 12.1618C222.388 11.4816 221.645 10.6947 221.106 9.81703C220.111 8.19737 218.809 7.41047 216.88 7.63287C216.041 7.72961 215.182 7.64884 214.21 7.64884C214.986 9.01718 215.819 10.3107 216.449 11.696C216.651 12.1418 216.319 12.829 216.232 13.4054C215.712 13.2319 215 13.215 214.708 12.8569C213.723 11.6461 212.771 10.3775 212.029 9.01119C211.325 7.71466 210.512 7.03049 208.956 7.22297C207.796 7.36659 206.604 7.2509 205.419 7.2509C205.9 8.42875 206.39 9.62655 206.88 10.8253C206.626 11.0418 206.372 11.2582 206.119 11.4736C205.093 10.7386 203.766 10.208 203.098 9.23061C201.354 6.67344 199.033 6.56373 196.217 7.1362C196.981 8.08566 197.851 8.88951 198.342 9.88086C198.649 10.5012 198.385 11.4018 198.378 12.1777C197.716 11.9214 196.933 11.8077 196.421 11.3749C195.683 10.7515 195.093 9.93073 194.528 9.13286C193.13 7.15914 191.326 6.84997 189.132 7.74757C189.788 8.61026 190.554 9.40913 191.045 10.3506C191.285 10.8114 191.013 11.5364 190.973 12.1428C190.398 11.9992 189.763 11.9603 189.265 11.6811C188.77 11.4028 188.403 10.8882 187.994 10.4643C185.176 7.53813 185.177 7.53713 181.341 8.8945C182.27 9.89482 183.33 10.8642 184.154 12.0052C184.479 12.456 184.279 13.2848 184.318 13.941C183.69 13.8233 183.017 13.8044 182.448 13.554C181.995 13.3546 181.646 12.8918 181.288 12.5108C179.907 11.0418 178.548 9.54776 176.47 9.94869C177.643 7.37058 178.735 4.84533 179.962 2.38691C180.18 1.95007 180.954 1.79049 181.472 1.50226C181.724 2.05578 182.288 2.69109 182.168 3.14886C181.813 4.50623 181.188 5.79279 180.646 7.16412C181.87 6.92875 183.192 6.84398 184.366 6.38321C185.038 6.11892 185.566 5.3051 185.988 4.63091C186.779 3.36928 187.362 1.972 188.216 0.760244C188.465 0.406191 189.393 0.300476 189.9 0.451074C190.155 0.526871 190.406 1.52621 190.239 1.9401C189.739 3.18079 189.033 4.33968 188.383 5.57638C190.924 6.06806 193.013 5.44971 194.489 3.1C195.039 2.22334 195.704 1.35566 196.505 0.722351C197.015 0.319429 197.873 0.35334 198.575 0.191772C198.574 0.919826 198.822 1.78251 198.516 2.347C197.981 3.33536 197.106 4.14021 196.29 5.12259C199.223 5.40284 201.993 5.73295 203.506 2.43676C203.815 1.76356 204.498 1.19907 205.13 0.758251C205.531 0.478998 206.491 0.288514 206.618 0.469031C206.935 0.916833 207.207 1.76157 206.982 2.15552C206.385 3.20471 205.517 4.10032 204.532 5.34001C206.557 5.34001 208.501 5.52551 210.377 5.25225C211.168 5.13655 211.881 4.11029 212.517 3.39819C213.298 2.52254 213.881 1.46238 214.711 0.645561C215.069 0.293502 215.832 0.351343 216.411 0.223685C216.468 0.797151 216.774 1.52121 216.535 1.91715C215.774 3.17579 214.81 4.31275 213.893 5.53847C215.552 5.69904 217.332 5.93741 219.118 6.00224C219.596 6.02019 220.173 5.59631 220.568 5.2293C221.717 4.16016 222.743 2.95438 223.935 1.9391C224.329 1.603 225.081 1.68478 225.669 1.57607C225.697 2.2373 226.015 3.15784 225.697 3.51189C224.77 4.54712 223.589 5.35597 222.56 6.21068C226.655 7.20402 226.862 7.14716 230.022 4.2529C230.697 3.63456 231.337 2.92547 232.124 2.49661C232.698 2.18345 233.486 2.26223 234.179 2.16649C234.046 2.90252 234.148 3.83603 233.73 4.3337C232.863 5.36294 231.719 6.16081 230.338 7.35761C233.182 7.59398 235.777 7.90016 238.377 7.95801C238.988 7.97197 239.672 7.21 240.227 6.70136C241.044 5.95436 241.696 5.0049 242.58 4.36362C242.972 4.07938 243.759 4.33668 244.366 4.34765C244.328 4.90117 244.476 5.57537 244.212 5.98328C243.656 6.84398 242.884 7.56505 242.202 8.34198C245.944 10.1252 249.603 9.43205 252.224 6.44105C252.569 6.04711 252.873 5.55044 253.312 5.32404C253.855 5.04379 254.518 4.99692 255.13 4.84932C255.05 5.4926 255.192 6.3124 254.846 6.74424C254.047 7.74257 253.012 8.55341 252.121 9.39516C254.909 10.6338 256.76 10.3696 259.572 8.17742C260.5 7.45436 261.317 6.57669 262.29 5.92743C262.686 5.66413 263.363 5.82171 263.913 5.7878C263.874 6.33035 264.048 7.07237 263.758 7.38054C262.706 8.49855 261.498 9.47095 260.218 10.6159C261.915 10.7824 263.622 11.1156 265.308 11.0298C265.956 10.9969 266.594 10.0444 267.167 9.44503C267.934 8.64417 268.567 7.70668 269.392 6.97763C269.747 6.66446 270.436 6.72729 270.974 6.61958C271.014 7.22197 271.306 7.98394 271.044 8.39484C270.427 9.36226 269.545 10.1611 268.774 11.0248C272.227 12.3044 273.792 11.8177 276.01 8.93839C276.703 8.03879 277.476 6.29844 278.755 7.21998C280.287 8.32402 278.541 9.453 277.948 10.4822C277.697 10.9171 277.279 11.2562 276.917 11.6621C280.338 12.5048 280.707 12.3752 282.671 9.70034C283.096 9.12289 283.444 8.42575 284.002 8.02582C284.581 7.60993 285.372 7.48826 286.07 7.23793C285.993 7.98892 286.123 8.85062 285.79 9.46397C285.274 10.4164 284.444 11.1993 283.768 12.0291C286.629 13.0334 288.197 12.5268 289.859 10.0345C290.256 9.43805 290.625 8.75985 291.178 8.34796C291.706 7.95501 292.458 7.86127 293.112 7.63587C293.122 8.38886 293.37 9.25154 293.083 9.8659C292.689 10.7096 291.889 11.3649 291.129 12.2585C293.612 12.4251 295.727 12.1917 297.099 9.91078C297.535 9.18671 298.024 8.45667 298.638 7.88919C299.069 7.49126 299.752 7.3636 300.322 7.11526C300.312 7.76153 300.491 8.49258 300.248 9.03513C299.864 9.89383 299.197 10.6259 298.609 11.4696C300.959 11.6382 302.77 10.961 303.943 8.93839C304.237 8.43174 304.52 7.85228 304.967 7.51817C305.419 7.18008 306.068 7.10529 306.631 6.9158C306.719 7.5132 306.962 8.14252 306.85 8.70003C306.743 9.2336 306.266 9.69436 305.881 10.2977C307.653 10.4553 308.968 9.97562 309.869 8.50654C310.209 7.95203 310.56 7.35462 311.055 6.96267C311.44 6.65748 312.055 6.63953 312.567 6.49392C312.652 6.96666 312.84 7.45036 312.79 7.90814C312.748 8.2971 312.432 8.65713 312.2 9.10095C314.486 9.08998 315.978 8.04477 317.196 6.33833C317.605 5.76486 318.488 5.5275 319.155 5.13755C319.3 5.80476 319.444 6.47198 319.598 7.17908C321.353 7.27483 322.355 6.02716 323.417 4.76055C323.755 4.35763 324.49 4.28483 325.043 4.06043C325.231 4.55012 325.42 5.0398 325.654 5.65017C326.074 5.67111 326.71 5.70204 327.345 5.73295C327.445 5.91846 327.545 6.10396 327.645 6.28946C326.963 6.69937 326.281 7.10828 325.631 7.49824C325.759 8.01386 325.923 8.67808 326.088 9.34231C325.288 9.3054 324.388 9.4919 323.709 9.18672C322.207 8.51152 320.8 8.11459 319.313 9.12988C319.323 9.21665 319.298 9.35926 319.357 9.44503C319.827 10.1292 320.313 10.8024 320.793 11.4796C319.966 11.5145 319.121 11.6761 318.315 11.5604C316.392 11.2821 314.643 9.59064 312.347 11.0039C313.09 11.687 313.869 12.2795 314.472 13.0155C314.724 13.3227 314.604 13.933 314.653 14.4048C314.177 14.4357 313.572 14.6661 313.249 14.4596C312.32 13.8662 311.473 13.1292 310.653 12.3852C309.535 11.3709 308.383 11.2731 307.043 12.057C307.735 12.841 308.488 13.5052 308.977 14.325C309.249 14.7808 309.078 15.4988 309.107 16.0992C308.547 16.1112 307.87 16.3306 307.452 16.0933C306.497 15.5507 305.538 14.9004 304.817 14.0866C303.113 12.1618 301.194 12.5906 299.079 13.2119C300.2 14.687 302.163 15.5168 301.813 17.7738C299.884 18.2714 298.736 16.925 297.994 15.8409C296.252 13.2937 294.109 13.2688 291.579 14.1205C292.38 14.9623 293.268 15.7302 293.926 16.6617C294.215 17.0716 294.036 17.8107 294.07 18.4001C293.466 18.3841 292.749 18.5686 292.283 18.3073C291.503 17.8715 290.688 17.2711 290.23 16.5301C288.709 14.0687 286.56 13.4523 283.754 14.1185C284.063 14.695 284.519 15.2605 284.666 15.8968C284.824 16.5819 284.692 17.3329 284.687 18.055C284.007 17.7997 283.233 17.67 282.674 17.2531C282.122 16.8412 281.666 16.193 281.383 15.5537C280.57 13.7186 279.091 13.4872 277.29 13.6368C277.723 14.4636 278.205 15.1777 278.464 15.9656C278.591 16.3506 278.421 16.9679 278.154 17.29C278.018 17.4536 277.275 17.32 276.974 17.0966C276.405 16.6727 275.827 16.1611 275.482 15.5557C274.324 13.5351 272.676 12.7203 270.202 13.3017Z" fill="white" fill-opacity="0.2"/>
<path d="M164.165 12.9745C162.519 11.4486 160.77 9.9755 159.241 8.30198C158.862 7.88709 158.892 6.60052 159.26 6.09786C160.413 4.52806 161.826 3.14976 163.119 1.67969C163.762 0.949638 164.362 0.812006 165.064 1.61087C166.399 3.13081 167.875 4.54502 169.044 6.18065C169.401 6.68032 169.249 8.02372 168.809 8.52039C167.388 10.1241 165.724 11.5134 164.165 12.9745ZM164.129 2.69198C162.676 4.32761 161.397 5.76676 160.315 6.9845C161.729 8.42266 162.997 9.71319 164.232 10.9698C165.427 9.77303 166.707 8.49346 168.074 7.12512C166.841 5.73982 165.591 4.33459 164.129 2.69198Z" fill="white" fill-opacity="0.2"/>
</svg>
