<svg width="192" height="118" viewBox="0 0 192 118" fill="none" xmlns="http://www.w3.org/2000/svg">
<path d="M17.7361 32.288L17.3905 31.9267L17.3721 31.9442L17.3556 31.9636L17.7361 32.288ZM134.841 16.7592L130.153 13.3889L129.578 19.1337L134.841 16.7592ZM28.0157 116.624C27.0119 115.905 25.9272 115.084 24.7897 114.165L24.1611 114.942C25.3139 115.874 26.4139 116.707 27.4333 117.437L28.0157 116.624ZM18.7397 108.714C16.9177 106.887 15.084 104.861 13.3274 102.647L12.544 103.268C14.3264 105.515 16.1857 107.569 18.0317 109.42L18.7397 108.714ZM8.68935 95.9769C7.32074 93.7006 6.07981 91.2848 5.02899 88.7374L4.10455 89.1187C5.17617 91.7165 6.44035 94.177 7.83233 96.4922L8.68935 95.9769ZM2.57726 81.0172C2.0009 78.4484 1.636 75.7744 1.53125 73.0013L0.53196 73.039C0.639114 75.8758 1.01239 78.6104 1.60152 81.2361L2.57726 81.0172ZM1.96644 64.9189C2.33639 62.3626 2.93557 59.7345 3.79626 57.0387L2.84363 56.7345C1.96649 59.4819 1.35475 62.1637 0.976748 64.7757L1.96644 64.9189ZM6.82048 49.5122C7.9429 47.1939 9.2627 44.8315 10.7981 42.4274L9.95529 41.8892C8.39987 44.3247 7.06073 46.7212 5.92042 49.0764L6.82048 49.5122ZM15.5214 35.7846C16.3443 34.7343 17.2089 33.6768 18.1165 32.6124L17.3556 31.9636C16.4392 33.0382 15.5659 34.1064 14.7342 35.1679L15.5214 35.7846ZM18.0817 32.6493C18.964 31.8054 19.9029 30.9921 20.8978 30.2093L20.2794 29.4234C19.2602 30.2253 18.297 31.0596 17.3905 31.9267L18.0817 32.6493ZM27.1383 26.0948C29.2317 24.934 31.4911 23.8641 33.9141 22.8842L33.5391 21.9571C31.0822 22.9508 28.7856 24.0379 26.6534 25.2203L27.1383 26.0948ZM41.0171 20.4062C43.3288 19.7137 45.7559 19.0856 48.2966 18.5211L48.0797 17.5449C45.5174 18.1142 43.0668 18.7483 40.7301 19.4483L41.0171 20.4062ZM55.6947 17.108C58.1 16.7175 60.5904 16.3752 63.1646 16.0806L63.0508 15.087C60.4621 15.3834 57.9562 15.7278 55.5345 16.1209L55.6947 17.108ZM70.6757 15.373C73.1222 15.189 75.6347 15.0429 78.2124 14.9341L78.1702 13.935C75.5822 14.0442 73.0587 14.191 70.6008 14.3758L70.6757 15.373ZM85.7678 14.7245C88.23 14.6899 90.7456 14.6861 93.3137 14.7127L93.324 13.7128C90.7482 13.6861 88.2245 13.6899 85.7538 13.7246L85.7678 14.7245ZM100.863 14.8733C103.338 14.9518 105.857 15.0563 108.421 15.1863L108.471 14.1876C105.902 14.0572 103.376 13.9525 100.894 13.8738L100.863 14.8733ZM115.953 15.6333C118.43 15.8008 120.945 15.9906 123.497 16.2023L123.58 15.2057C121.023 14.9936 118.503 14.8035 116.021 14.6355L115.953 15.6333Z" fill="#0B3D2C"/>
<g clip-path="url(#clip0_927_5)">
<path d="M182.059 9.51913C182.082 9.52163 182.104 9.52288 182.126 9.52288C182.42 9.52288 182.674 9.30179 182.707 9.00258L182.751 8.61149C182.752 8.6086 182.752 8.60578 182.752 8.60297C182.757 8.55985 183.309 4.23505 188.134 2.14727C188.431 2.01875 188.567 1.67383 188.439 1.37688C188.31 1.07986 187.965 0.94314 187.668 1.07189C183.085 3.05522 181.725 7.0901 181.587 8.48415L181.543 8.87125C181.507 9.19281 181.738 9.48288 182.059 9.51913Z" fill="#0B3D2C"/>
<path d="M157.011 9.41297C157.253 10.9381 158.692 11.9937 160.219 11.7661C160.294 11.7548 160.372 11.7433 160.451 11.7315L158.378 13.1982C157.767 13.6305 157.621 14.4792 158.054 15.0902C158.568 15.8174 159.385 16.2058 160.215 16.2058C160.743 16.2058 161.275 16.0486 161.738 15.7215L162.727 15.0217L162.501 15.3497C162.076 15.966 162.232 16.8129 162.849 17.2374C163.295 17.5447 163.812 17.7045 164.342 17.7045C164.503 17.7045 164.665 17.6897 164.827 17.66C165.521 17.532 166.124 17.1413 166.525 16.5599L170.922 10.1749C171.988 10.0166 172.957 9.87273 173.745 9.75578C174.796 9.59969 175.843 10.0329 176.478 10.886C177.109 11.7347 177.231 12.8609 176.796 13.825L176.218 15.108C175.581 16.5209 175.741 18.1844 176.636 19.4496C177.012 19.9802 177.571 20.3328 178.212 20.4426C178.351 20.4664 178.49 20.4782 178.628 20.4782C179.127 20.4782 179.613 20.3246 180.028 20.0306C180.431 19.7455 180.599 19.2206 180.438 18.7541L180.141 17.8984C179.932 17.2969 180.01 16.6445 180.353 16.1087L181.202 14.785C181.787 13.8546 182.231 12.8266 182.394 11.7354C182.431 11.414 182.199 11.1239 181.878 11.0876C181.557 11.0509 181.266 11.2826 181.23 11.6042C181.081 12.5157 180.706 13.3729 180.216 14.1524L179.367 15.476C178.828 16.3163 178.707 17.3393 179.034 18.2825L179.317 19.0977C179.048 19.2747 178.728 19.3422 178.41 19.2875C178.078 19.2307 177.788 19.0479 177.593 18.7729C176.937 17.8452 176.819 16.6255 177.286 15.5895L177.864 14.3067C178.474 12.9552 178.303 11.3765 177.418 10.1868C176.526 8.98641 175.052 8.37728 173.573 8.59665C170.199 9.09743 163.511 10.0909 160.046 10.6072C159.169 10.7372 158.342 10.1459 158.177 9.28055L161.441 8.54033C161.757 8.46876 161.955 8.15486 161.883 7.83932C161.811 7.5237 161.498 7.32589 161.182 7.39745L157.836 8.15627C157.281 8.28205 156.916 8.82048 157.006 9.38242L157.011 9.41297ZM161.061 14.7647C160.399 15.2331 159.479 15.0755 159.01 14.4134C158.951 14.3299 158.971 14.2139 159.055 14.1549C159.134 14.0871 162.999 11.3522 162.999 11.3522C164.143 11.1821 165.394 10.9961 166.652 10.8091L161.061 14.7647ZM165.559 15.8952C165.337 16.2188 165.001 16.4362 164.615 16.5074C164.228 16.5788 163.837 16.4952 163.514 16.2723C163.429 16.2143 163.408 16.0985 163.466 16.0143L165.502 13.0584C165.595 12.9782 169.195 10.4313 169.195 10.4313C169.195 10.4313 169.29 10.4172 169.337 10.4101L165.559 15.8952Z" fill="#0B3D2C"/>
<path d="M163.984 7.94797C164.027 7.94797 164.07 7.94312 164.114 7.93328L166.172 7.46649C167.939 7.06602 169.661 6.46298 171.292 5.67409L175.559 3.60997C176.447 3.18021 177.298 2.66225 178.088 2.07054C178.347 1.87655 178.4 1.50929 178.206 1.25031C178.012 0.991408 177.645 0.938596 177.386 1.13258C176.656 1.67937 175.869 2.15796 175.048 2.55506L170.781 4.61926C169.231 5.36948 167.593 5.94291 165.913 6.32369L163.855 6.79048C163.539 6.86204 163.342 7.17594 163.413 7.49149C163.475 7.76344 163.716 7.94797 163.984 7.94797Z" fill="#0B3D2C"/>
<path d="M174.902 24.1409C175.056 24.1409 175.214 24.1216 175.37 24.0811C175.854 23.9559 176.261 23.6498 176.515 23.2188C176.769 22.7879 176.839 22.2839 176.714 21.7998C176.556 21.1889 176.142 20.5929 175.483 20.0282C175.017 19.6294 174.591 19.3893 174.573 19.3793C174.3 19.2264 173.954 19.3157 173.789 19.5818C173.778 19.5993 173.521 20.0161 173.307 20.5906C173.004 21.4038 172.931 22.1258 173.089 22.7367V22.7368C173.307 23.5799 174.069 24.1409 174.902 24.1409ZM174.508 20.7444C174.936 21.0748 175.445 21.5708 175.58 22.093C175.627 22.2742 175.6 22.4627 175.505 22.6239C175.41 22.7851 175.258 22.8997 175.077 22.9465C174.703 23.0436 174.32 22.8177 174.223 22.4436C174.088 21.9214 174.293 21.241 174.508 20.7444Z" fill="#0B3D2C"/>
<path d="M169.442 18.9146C169.422 18.9138 168.932 18.9044 168.329 19.0117C167.474 19.1635 166.815 19.4667 166.369 19.9127C166.015 20.2664 165.82 20.7366 165.82 21.2368C165.82 21.7369 166.015 22.2071 166.369 22.5608C166.734 22.9258 167.213 23.1083 167.693 23.1082C168.172 23.1082 168.652 22.9258 169.017 22.5608C169.463 22.1146 169.766 21.4551 169.918 20.6006C170.025 19.997 170.015 19.5075 170.015 19.487C170.008 19.174 169.756 18.9217 169.442 18.9146ZM168.188 21.7322C167.915 22.0055 167.47 22.0053 167.197 21.7322C167.065 21.5999 166.992 21.424 166.992 21.2369C166.992 21.0497 167.065 20.8738 167.197 20.7415C167.578 20.3602 168.268 20.1909 168.805 20.124C168.737 20.6584 168.567 21.3529 168.188 21.7322Z" fill="#0B3D2C"/>
<path d="M171.057 29.9039C172.277 29.9039 173.269 28.9113 173.269 27.6912C173.269 25.9102 171.535 24.2328 171.461 24.1624C171.235 23.9459 170.878 23.9459 170.652 24.1624C170.578 24.2328 168.844 25.9102 168.844 27.6912C168.844 28.9112 169.836 29.9039 171.057 29.9039ZM171.057 25.4538C171.518 26.0146 172.097 26.9014 172.097 27.6912C172.097 28.2652 171.631 28.7321 171.057 28.7321C170.483 28.7321 170.016 28.2651 170.016 27.6912C170.016 26.9012 170.595 26.0143 171.057 25.4538Z" fill="#0B3D2C"/>
<path d="M171.19 17.634C171.481 17.7632 171.785 17.8244 172.084 17.8244C172.933 17.8244 173.744 17.3339 174.11 16.5097C174.833 14.882 173.929 12.6452 173.89 12.5507C173.771 12.2611 173.445 12.1161 173.15 12.2222C173.054 12.2567 170.788 13.086 170.065 14.7137C169.57 15.8288 170.075 17.1389 171.19 17.634ZM171.136 15.1893C171.457 14.4674 172.346 13.8919 172.996 13.5667C173.19 14.2667 173.359 15.3122 173.039 16.034C172.806 16.5586 172.19 16.7956 171.665 16.563C171.141 16.3301 170.903 15.7138 171.136 15.1893Z" fill="#0B3D2C"/>
<path d="M190.469 29.7665H189.19C190.698 28.4098 191.38 26.3219 190.906 24.2957L190.698 23.4058C190.655 23.2219 190.526 23.0701 190.351 22.998C190.177 22.9257 189.979 22.9418 189.818 23.0415L189.042 23.5235C188.331 23.9649 187.745 24.5457 187.305 25.214C186.859 24.5346 186.271 23.9597 185.569 23.5235L184.792 23.0415C184.632 22.9419 184.433 22.9258 184.259 22.998C184.084 23.0701 183.956 23.2219 183.913 23.4058L183.704 24.2957C183.223 26.3518 183.932 28.4719 185.486 29.8265C184.885 29.967 184.355 30.35 184.04 30.8963L183.001 32.6968C182.724 33.176 182.228 33.4621 181.675 33.4621C181.122 33.4621 180.626 33.176 180.349 32.6968L179.31 30.8964C178.908 30.1994 178.158 29.7665 177.353 29.7665H175.505C174.7 29.7665 173.951 30.1994 173.548 30.8963L172.509 32.6968C172.232 33.176 171.736 33.4621 171.183 33.4621C170.63 33.4621 170.134 33.176 169.857 32.6968L168.818 30.8963C168.416 30.1994 167.666 29.7665 166.861 29.7665H164.935C164.13 29.7665 163.381 30.1994 162.978 30.8963L161.939 32.6968C161.662 33.176 161.167 33.4621 160.613 33.4621C160.06 33.4621 159.564 33.176 159.288 32.6968L158.248 30.8963C157.907 30.3062 157.317 29.9066 156.656 29.7976C157.029 29.4678 157.356 29.0904 157.632 28.6678C157.81 28.3971 157.734 28.0339 157.463 27.8566C157.192 27.6795 156.829 27.7552 156.652 28.026C156.277 28.6012 155.78 29.0716 155.189 29.424C154.694 27.5036 155.534 25.4757 157.242 24.4676C157.344 24.8775 157.394 25.3004 157.38 25.7214C157.369 26.0449 157.623 26.3154 157.947 26.3256C158.269 26.3368 158.541 26.082 158.551 25.7585C158.567 25.2676 158.517 24.7754 158.405 24.2957L158.197 23.4057C158.154 23.2219 158.025 23.0701 157.851 22.9979C157.676 22.9255 157.478 22.9416 157.317 23.0414L156.541 23.5234C155.83 23.9648 155.244 24.5457 154.804 25.2139C154.359 24.5345 153.771 23.9597 153.068 23.5234L152.291 23.0414C152.131 22.9419 151.932 22.9255 151.758 22.9979C151.584 23.0701 151.455 23.2219 151.412 23.4057L151.203 24.2957C150.729 26.3218 151.411 28.4096 152.919 29.7664H151.641C151.317 29.7664 151.055 30.0287 151.055 30.3523C151.055 30.676 151.317 30.9382 151.641 30.9382H156.291C156.678 30.9382 157.039 31.1467 157.233 31.4821L158.273 33.2827C158.761 34.1288 159.636 34.6339 160.613 34.6339C161.59 34.6339 162.465 34.1288 162.954 33.2827L163.993 31.4821C164.187 31.1467 164.548 30.9382 164.935 30.9382H166.861C167.249 30.9382 167.61 31.1467 167.803 31.4821L168.843 33.2827C169.331 34.1288 170.206 34.6339 171.183 34.6339C172.16 34.6339 173.035 34.1288 173.524 33.2827L174.563 31.4821C174.757 31.1467 175.118 30.9382 175.505 30.9382H177.353C177.74 30.9382 178.101 31.1466 178.295 31.4821L179.335 33.2827C179.823 34.1288 180.698 34.6339 181.675 34.6339C182.652 34.6339 183.527 34.1288 184.015 33.2827L185.055 31.4821C185.249 31.1466 185.61 30.9382 185.997 30.9382H190.469C190.792 30.9382 191.055 30.676 191.055 30.3523C191.055 30.0287 190.792 29.7665 190.469 29.7665ZM152.345 24.5627L152.367 24.4675C153.17 24.9454 153.799 25.6494 154.176 26.5026C153.899 27.3202 153.808 28.2038 153.932 29.0883C152.579 28.0259 151.946 26.2667 152.345 24.5627ZM189.66 24.5191L189.743 24.4675C190.237 26.3881 189.397 28.4159 187.69 29.424C187.206 27.5359 188.001 25.5458 189.66 24.5191ZM184.845 24.5627L184.868 24.4675C185.671 24.9455 186.3 25.6494 186.676 26.5026C186.399 27.3202 186.309 28.2038 186.433 29.0883C185.08 28.0259 184.447 26.2667 184.845 24.5627Z" fill="#0B3D2C"/>
<path d="M153.43 37.0937C153.753 37.0937 154.016 36.8314 154.016 36.5078C154.016 36.1842 153.753 35.9219 153.43 35.9219C153.106 35.9219 152.844 36.1842 152.844 36.5078C152.844 36.8314 153.106 37.0937 153.43 37.0937Z" fill="#0B3D2C"/>
<path d="M154.734 35.1094C155.058 35.1094 155.32 34.847 155.32 34.5234C155.32 34.1998 155.058 33.9375 154.734 33.9375C154.411 33.9375 154.148 34.1998 154.148 34.5234C154.148 34.847 154.411 35.1094 154.734 35.1094Z" fill="#0B3D2C"/>
<path d="M155.875 37.2344C156.199 37.2344 156.461 36.972 156.461 36.6484C156.461 36.3248 156.199 36.0625 155.875 36.0625C155.551 36.0625 155.289 36.3248 155.289 36.6484C155.289 36.972 155.551 37.2344 155.875 37.2344Z" fill="#0B3D2C"/>
<path d="M162.023 38.414C162.347 38.414 162.609 38.1517 162.609 37.8281C162.609 37.5045 162.347 37.2422 162.023 37.2422C161.7 37.2422 161.438 37.5045 161.438 37.8281C161.438 38.1517 161.7 38.414 162.023 38.414Z" fill="#0B3D2C"/>
<path d="M164.594 35.75C164.917 35.75 165.18 35.4877 165.18 35.1641C165.18 34.8405 164.917 34.5781 164.594 34.5781C164.27 34.5781 164.008 34.8405 164.008 35.1641C164.008 35.4877 164.27 35.75 164.594 35.75Z" fill="#0B3D2C"/>
<path d="M172.281 38.9844C172.605 38.9844 172.867 38.722 172.867 38.3984C172.867 38.0748 172.605 37.8125 172.281 37.8125C171.958 37.8125 171.695 38.0748 171.695 38.3984C171.695 38.722 171.958 38.9844 172.281 38.9844Z" fill="#0B3D2C"/>
<path d="M174.859 35.25C175.183 35.25 175.445 34.9877 175.445 34.6641C175.445 34.3405 175.183 34.0781 174.859 34.0781C174.536 34.0781 174.273 34.3405 174.273 34.6641C174.273 34.9877 174.536 35.25 174.859 35.25Z" fill="#0B3D2C"/>
<path d="M177.039 34.125C177.363 34.125 177.625 33.8627 177.625 33.5391C177.625 33.2155 177.363 32.9531 177.039 32.9531C176.715 32.9531 176.453 33.2155 176.453 33.5391C176.453 33.8627 176.715 34.125 177.039 34.125Z" fill="#0B3D2C"/>
<path d="M177.109 36.4219C177.433 36.4219 177.695 36.1595 177.695 35.8359C177.695 35.5123 177.433 35.25 177.109 35.25C176.786 35.25 176.523 35.5123 176.523 35.8359C176.523 36.1595 176.786 36.4219 177.109 36.4219Z" fill="#0B3D2C"/>
<path d="M186.211 37.4765C186.535 37.4765 186.797 37.2142 186.797 36.8906C186.797 36.567 186.535 36.3047 186.211 36.3047C185.887 36.3047 185.625 36.567 185.625 36.8906C185.625 37.2142 185.887 37.4765 186.211 37.4765Z" fill="#0B3D2C"/>
<path d="M188.141 35.7187C188.464 35.7187 188.727 35.4564 188.727 35.1328C188.727 34.8092 188.464 34.5469 188.141 34.5469C187.817 34.5469 187.555 34.8092 187.555 35.1328C187.555 35.4564 187.817 35.7187 188.141 35.7187Z" fill="#0B3D2C"/>
</g>
<defs>
<clipPath id="clip0_927_5">
<rect width="40" height="40" fill="white" transform="translate(151.055)"/>
</clipPath>
</defs>
</svg>
