<svg width="190" height="115" viewBox="0 0 190 115" fill="none" xmlns="http://www.w3.org/2000/svg">
<path d="M172.686 86.1261L173.031 86.4874L173.05 86.4698L173.066 86.4505L172.686 86.1261ZM55.581 101.655L60.2687 105.025L60.8436 99.2804L55.581 101.655ZM162.406 1.78998C163.41 2.50902 164.495 3.32999 165.632 4.24933L166.261 3.47158C165.108 2.53994 164.008 1.70723 162.989 0.977026L162.406 1.78998ZM171.682 9.70006C173.504 11.527 175.338 13.5533 177.095 15.7674L177.878 15.1459C176.096 12.8993 174.236 10.8449 172.39 8.99391L171.682 9.70006ZM181.733 22.4372C183.101 24.7134 184.342 27.1293 185.393 29.6767L186.317 29.2953C185.246 26.6976 183.982 24.237 182.59 21.9219L181.733 22.4372ZM187.845 37.3969C188.421 39.9657 188.786 42.6396 188.891 45.4128L189.89 45.375C189.783 42.5383 189.409 39.8037 188.82 37.1779L187.845 37.3969ZM188.455 53.4952C188.085 56.0515 187.486 58.6795 186.626 61.3754L187.578 61.6795C188.455 58.9321 189.067 56.2503 189.445 53.6384L188.455 53.4952ZM183.601 68.9019C182.479 71.2202 181.159 73.5825 179.624 75.9866L180.467 76.5249C182.022 74.0894 183.361 71.6929 184.501 69.3376L183.601 68.9019ZM174.9 82.6295C174.078 83.6798 173.213 84.7373 172.305 85.8016L173.066 86.4505C173.983 85.3759 174.856 84.3077 175.688 83.2462L174.9 82.6295ZM172.34 85.7647C171.458 86.6087 170.519 87.422 169.524 88.2048L170.142 88.9907C171.162 88.1888 172.125 87.3545 173.031 86.4874L172.34 85.7647ZM163.284 92.3193C161.19 93.4801 158.931 94.55 156.508 95.5299L156.883 96.4569C159.34 95.4632 161.636 94.3762 163.769 93.1938L163.284 92.3193ZM149.405 98.0078C147.093 98.7004 144.666 99.3285 142.125 99.893L142.342 100.869C144.904 100.3 147.355 99.6658 149.692 98.9658L149.405 98.0078ZM134.727 101.306C132.322 101.697 129.832 102.039 127.257 102.334L127.371 103.327C129.96 103.031 132.466 102.686 134.887 102.293L134.727 101.306ZM119.746 103.041C117.3 103.225 114.787 103.371 112.209 103.48L112.252 104.479C114.84 104.37 117.363 104.223 119.821 104.038L119.746 103.041ZM104.654 103.69C102.192 103.724 99.6763 103.728 97.1082 103.701L97.0979 104.701C99.6737 104.728 102.197 104.724 104.668 104.69L104.654 103.69ZM89.5591 103.541C87.0841 103.462 84.5646 103.358 82.0012 103.228L81.9505 104.227C84.52 104.357 87.0459 104.462 89.5274 104.54L89.5591 103.541ZM74.4686 102.781C71.9918 102.613 69.4771 102.423 66.9249 102.212L66.8422 103.208C69.3993 103.42 71.9191 103.611 74.4011 103.779L74.4686 102.781Z" fill="#0B3D2C"/>
<g clip-path="url(#clip0_927_6)">
<path d="M10.211 92.3572C10.5346 92.3572 10.7969 92.0948 10.7969 91.7712V90.4668C10.7969 89.4857 11.5951 88.6876 12.5761 88.6876H13.7786C14.1023 88.6876 14.3646 88.4252 14.3646 88.1016C14.3646 87.778 14.1023 87.5156 13.7786 87.5156H12.5761C10.9488 87.5156 9.625 88.8395 9.625 90.4668V91.7712C9.625 92.0948 9.88735 92.3572 10.211 92.3572Z" fill="#0B3D2C"/>
<path d="M10.211 96.8865C10.5346 96.8865 10.7969 96.6242 10.7969 96.3006V94.3672C10.7969 94.0436 10.5346 93.7812 10.211 93.7812C9.88728 93.7812 9.625 94.0436 9.625 94.3672V96.3006C9.625 96.6242 9.88735 96.8865 10.211 96.8865Z" fill="#0B3D2C"/>
<path d="M12.3906 91.2327V94.0718C12.3906 94.3954 12.6529 94.6578 12.9766 94.6578C13.3003 94.6578 13.5626 94.3954 13.5626 94.0718V91.2327C13.5626 90.9754 13.781 90.7579 14.0395 90.7579H15.0737C15.3974 90.7579 15.6597 90.4955 15.6597 90.1719C15.6597 89.8483 15.3974 89.5859 15.0737 89.5859H14.0395C13.1303 89.5859 12.3906 90.3246 12.3906 91.2327Z" fill="#0B3D2C"/>
<path d="M17.8849 91.4328C18.1147 91.5862 18.3835 91.6643 18.6575 91.6643C18.8483 91.6643 19.0418 91.6264 19.2264 91.5497L21.1609 90.7485L26.1294 91.1317L26.4936 92.3913C26.6201 92.8289 26.9308 93.1783 27.3684 93.3753C27.6143 93.486 27.8833 93.5412 28.1529 93.5412C28.4383 93.5412 28.7245 93.4793 28.9845 93.3558L38.1482 89.0017C38.6536 88.7616 39.0409 88.2978 39.1841 87.7611C39.3077 87.2976 39.2332 86.8364 38.9744 86.4626L37.1275 83.7935C38.5153 82.1948 38.8417 79.9187 37.9187 77.9759C36.6474 75.3039 33.4394 74.1635 30.7692 75.4329C28.7237 76.4044 27.5197 78.5586 27.7292 80.7814L25.0911 82.0347C25.091 82.0347 25.091 82.0347 25.091 82.0347C24.2531 82.4329 23.8886 83.3849 24.1839 84.4032L24.8671 86.7659H21.1828L19.2253 85.9552C18.7751 85.77 18.2738 85.8151 17.8841 86.076C17.5159 86.3226 17.3047 86.7183 17.3047 87.1614V90.346C17.3045 90.7906 17.5161 91.1867 17.8849 91.4328ZM38.0107 87.1297C38.0725 87.2188 38.0862 87.3296 38.0517 87.4589C37.9976 87.6615 37.8381 87.8516 37.6452 87.9433L28.4815 92.2972C28.2885 92.3888 28.0404 92.3926 27.8494 92.3066C27.7271 92.2516 27.6497 92.1705 27.6194 92.0657L25.8712 86.0197L34.4296 81.9539L38.0107 87.1297ZM31.272 76.4916C31.2721 76.4916 31.2722 76.4915 31.2722 76.4915C33.3595 75.499 35.8667 76.3909 36.8603 78.4793C37.5372 79.9041 37.3548 81.5588 36.4335 82.7898L36.4316 82.7878L34.2439 79.6259C33.64 78.754 32.6707 78.4352 31.8322 78.8324L28.8787 80.2354L28.8778 80.2357C28.8947 78.6582 29.8074 77.1872 31.272 76.4916ZM25.5939 83.0933L32.3343 79.8913C32.7054 79.7154 33.0759 79.998 33.2802 80.2931L33.7538 80.9775L25.5414 84.879L25.3096 84.0772C25.2097 83.7331 25.2244 83.2689 25.5939 83.0933ZM21.6521 87.9379H25.2053L25.7807 89.9294L21.6521 89.6109V87.9379ZM18.4765 87.1615C18.4765 87.1306 18.4826 87.0856 18.5362 87.0497C18.5522 87.039 18.5965 87.0141 18.6622 87.0141C18.6956 87.0141 18.7344 87.0206 18.7779 87.0384L20.4801 87.7435V89.7618L18.7772 90.4671C18.6471 90.5213 18.559 90.4738 18.5353 90.4579C18.4831 90.423 18.4764 90.3798 18.4764 90.3461V87.1615H18.4765Z" fill="#0B3D2C"/>
<path d="M9.27318 111.203C9.04436 111.432 9.04436 111.803 9.27318 112.031L9.27537 112.034C9.38959 112.148 9.53873 112.205 9.68811 112.205C9.83811 112.205 9.98826 112.147 10.1029 112.033C10.3318 111.804 10.3307 111.432 10.1019 111.203C9.87295 110.974 9.50201 110.974 9.27318 111.203Z" fill="#0B3D2C"/>
<path d="M14.9685 111.5C14.7397 111.729 14.7397 112.1 14.9685 112.328L14.9707 112.33C15.0849 112.445 15.234 112.502 15.3834 112.502C15.5334 112.502 15.6836 112.444 15.7983 112.329C16.0271 112.101 16.026 111.728 15.7972 111.5C15.5683 111.271 15.1973 111.271 14.9685 111.5Z" fill="#0B3D2C"/>
<path d="M24.1169 111.203C23.8881 111.432 23.8881 111.803 24.1169 112.031L24.1191 112.034C24.2333 112.148 24.3825 112.205 24.5319 112.205C24.6819 112.205 24.832 112.147 24.9467 112.033C25.1755 111.804 25.1744 111.432 24.9456 111.203C24.7167 110.974 24.3458 110.974 24.1169 111.203Z" fill="#0B3D2C"/>
<path d="M29.4459 112.502C29.5959 112.502 29.7461 112.444 29.8608 112.33C30.0896 112.101 30.0885 111.729 29.8597 111.5C29.6308 111.271 29.2598 111.271 29.031 111.5C28.8022 111.729 28.8022 112.1 29.031 112.328L29.0332 112.331C29.1474 112.445 29.2965 112.502 29.4459 112.502Z" fill="#0B3D2C"/>
<path d="M36.836 106.901C38.6106 106.723 40.0542 105.12 40.0542 103.328V101.082C40.0542 100.793 39.9332 100.517 39.7223 100.327C39.512 100.137 39.2261 100.045 38.9403 100.074L36.6894 100.3C35.9141 100.379 35.2021 100.73 34.6463 101.25L34.6512 100.847C34.6512 99.0575 33.2185 97.4666 31.4437 97.2859L29.1949 97.0601C28.9069 97.0305 28.6219 97.1228 28.4117 97.3126C28.2008 97.5031 28.0798 97.7784 28.0798 98.0682V100.314C28.0798 102.103 29.5231 103.706 31.2975 103.887L33.4744 104.106V108.325H29.2149C28.8912 108.325 28.629 108.587 28.629 108.911C28.629 109.235 28.8912 109.497 29.2149 109.497H38.5359C38.7269 109.497 38.8824 109.651 38.8824 109.841V113.398C38.8824 113.586 38.7238 113.744 38.5359 113.744H1.57077C1.3842 113.744 1.22661 113.586 1.22661 113.398V109.841C1.22661 109.655 1.38428 109.497 1.57077 109.497H26.5087C26.8324 109.497 27.0947 109.235 27.0947 108.911C27.0947 108.587 26.8324 108.325 26.5087 108.325H20.6392V107.122L22.8313 106.901C24.6058 106.723 26.0494 105.12 26.0494 103.328V101.082C26.0494 100.793 25.9281 100.518 25.7168 100.327C25.5059 100.137 25.22 100.045 24.9354 100.074L22.6846 100.3C21.9084 100.379 21.1956 100.73 20.6392 101.25C20.6392 101.25 20.6547 100.904 20.6547 100.859C20.6547 99.0691 19.2114 97.4665 17.4366 97.2861L15.1884 97.0603C14.902 97.031 14.6174 97.1225 14.4073 97.312C14.1961 97.5026 14.0749 97.7782 14.0749 98.0684V100.314C14.0749 102.103 15.5182 103.706 17.2927 103.887L19.4673 104.107V108.325H6.6345V107.122L8.82413 106.901C10.5987 106.723 12.0423 105.12 12.0423 103.328V101.082C12.0423 100.792 11.9211 100.517 11.7099 100.326C11.4998 100.137 11.2151 100.045 10.9305 100.074L8.67967 100.3C7.90354 100.379 7.1907 100.73 6.63435 101.25C6.63435 101.25 6.64981 100.904 6.64981 100.859C6.64981 99.0694 5.20647 97.4667 3.43171 97.2861L1.18349 97.0603C0.897536 97.0311 0.61268 97.1224 0.402437 97.312C0.191178 97.5026 0.0700007 97.7783 0.0700007 98.0684V100.314C0.0700007 102.103 1.51334 103.706 3.2878 103.887L5.4625 104.107V106.591V108.325H1.57077C0.734795 108.325 0.0546875 109.005 0.0546875 109.841V113.398C0.0546875 114.235 0.734795 114.916 1.57077 114.916H38.5359C39.3732 114.916 40.0543 114.235 40.0543 113.398V109.841C40.0543 109.005 39.3732 108.325 38.5359 108.325H34.6463V107.122L36.836 106.901ZM34.6463 103.873C34.6463 102.687 35.6363 101.585 36.8073 101.466L38.8823 101.258V103.328C38.8823 104.515 37.8916 105.617 36.7187 105.735L35.5143 105.856L37.0042 104.208C37.2211 103.968 37.2024 103.598 36.9624 103.381C36.7224 103.164 36.3519 103.182 36.1347 103.422L34.6463 105.069V103.873ZM33.4743 102.04L31.9993 100.408C31.7821 100.168 31.4117 100.149 31.1716 100.366C30.9315 100.583 30.9127 100.954 31.1298 101.194L32.6194 102.842L31.4156 102.721C30.2426 102.601 29.2516 101.499 29.2516 100.314V98.2437L31.3258 98.452C32.4989 98.5714 33.4743 99.6735 33.4743 100.859V102.04ZM20.6392 103.873C20.6392 102.688 21.6303 101.585 22.8025 101.466L24.8775 101.258V103.328C24.8775 104.515 23.8869 105.617 22.7139 105.735L21.5097 105.856L22.9994 104.208C23.2164 103.968 23.1976 103.598 22.9576 103.381C22.7176 103.164 22.3471 103.182 22.1299 103.422L20.6393 105.071V103.873H20.6392ZM17.125 101.194L18.6149 102.842L17.411 102.721C16.2379 102.601 15.2469 101.499 15.2469 100.314V98.2439L17.3189 98.452C18.492 98.5712 19.4674 99.6734 19.4674 100.859V102.038L17.9945 100.408C17.7775 100.168 17.4069 100.149 17.1668 100.366C16.9267 100.583 16.908 100.954 17.125 101.194ZM6.6345 103.873C6.6345 102.688 7.62556 101.585 8.79772 101.466L10.8705 101.258V103.328C10.8705 104.515 9.87988 105.617 8.70693 105.735L7.50337 105.856L8.99429 104.208C9.21141 103.968 9.19289 103.598 8.95288 103.381C8.71318 103.164 8.34247 103.182 8.12527 103.422L6.6345 105.07V103.873ZM3.12021 101.194L4.61004 102.842L3.40616 102.721C2.23306 102.601 1.24208 101.499 1.24208 100.314V98.2438L3.31405 98.4519C4.48714 98.5713 5.46265 99.6734 5.46265 100.859V102.038L3.9897 100.408C3.77258 100.168 3.4021 100.149 3.16201 100.366C2.92192 100.583 2.90317 100.954 3.12021 101.194Z" fill="#0B3D2C"/>
</g>
<defs>
<clipPath id="clip0_927_6">
<rect width="40" height="40" fill="white" transform="translate(0.0546875 74.9141)"/>
</clipPath>
</defs>
</svg>
