<svg width="157" height="71" viewBox="0 0 157 71" fill="none" xmlns="http://www.w3.org/2000/svg">
<path d="M22.7944 0.529297C10.2141 0.529297 0 10.7434 0 23.3237V47.7349C0 60.3152 10.2141 70.5293 22.7944 70.5293C35.3746 70.5293 45.5887 60.3152 45.5887 47.7349V23.3237C45.5887 10.7434 35.3746 0.529297 22.7944 0.529297ZM23.7803 52.5068V49.1941C30.4845 49.4307 36.7155 52.1124 41.5267 56.8448C41.0141 57.8701 40.462 58.8561 39.7915 59.7631C35.5718 55.3462 29.8535 52.7434 23.7803 52.5068ZM5.79717 59.7631C5.12675 58.8561 4.57464 57.8701 4.06197 56.8448C8.87323 52.1124 15.1042 49.4307 21.8084 49.1941V52.5068C15.7352 52.7434 10.0169 55.3462 5.79717 59.7631ZM7.49296 47.7349V40.7941C7.9662 41.0701 8.43943 41.3462 8.91267 41.6222C11.3972 42.8842 14.0394 43.5152 16.8 43.5152C18.4958 43.5152 20.1521 43.2786 21.769 42.7659V47.2223C16.8 47.38 12.0676 48.7997 7.88732 51.3237C7.6507 50.18 7.49296 48.9575 7.49296 47.7349ZM15.0253 7.90394L13.2507 4.78845C14.7887 3.99972 16.4845 3.36873 18.2197 2.97437L18.8507 6.48423C17.5099 6.83916 16.2479 7.31239 15.0253 7.90394ZM22.7944 8.02225C31.2338 8.02225 38.0958 14.8842 38.0958 23.3237V28.1349C35.5324 28.2138 33.0873 28.8448 30.7606 30.0279C29.9324 30.4617 29.1437 30.9349 28.3944 31.487C28.9859 29.7124 29.3014 27.8589 29.3014 26.0054C29.3014 21.0363 27.1718 16.3039 23.4648 13.0307L22.7944 12.4392L22.1239 13.0307C18.4169 16.3434 16.2873 21.0758 16.2873 26.0054C16.2873 27.8983 16.6028 29.7518 17.1944 31.487C16.4451 30.9349 15.6563 30.4617 14.8282 30.0279C12.5014 28.8448 10.0563 28.2138 7.49296 28.1349V23.3237C7.49296 14.8842 14.3549 8.02225 22.7944 8.02225ZM26.738 6.52366L27.369 3.0138C29.1042 3.40817 30.8 4.03916 32.338 4.82789L30.5634 7.94338C29.3408 7.3124 28.0789 6.83915 26.738 6.52366ZM6.94083 30.1068C9.3859 30.1068 11.7521 30.6589 13.9211 31.8025C17.1155 33.4589 19.6394 36.1406 21.0592 39.4138L3.58872 30.4617C4.69295 30.2251 5.79717 30.1068 6.94083 30.1068ZM23.7803 35.8251V16.1856C26.0676 18.9462 27.3296 22.4166 27.3296 26.0054C27.3296 29.5941 26.0676 33.0645 23.7803 35.8251ZM21.8084 35.8251C19.5211 33.0645 18.2591 29.5941 18.2591 26.0054C18.2591 22.4166 19.5211 18.9462 21.8084 16.1856V35.8251ZM31.6282 31.8025C33.8366 30.6983 36.1634 30.1068 38.6084 30.1068C39.7521 30.1068 40.8563 30.2251 41.9606 30.4617L24.4901 39.4138C25.9098 36.1406 28.4338 33.4194 31.6282 31.8025ZM40.0676 28.1744V24.3096H43.6563V28.8448C42.4732 28.5293 41.2507 28.2927 40.0676 28.1744ZM40.0282 22.3377C39.9493 20.9575 39.7127 19.6166 39.3183 18.3546L42.6704 17.1321C43.1831 18.7885 43.4986 20.5237 43.5775 22.3377H40.0282ZM38.6479 16.5011C38.0958 15.2392 37.4253 14.0955 36.6366 12.9913L39.3577 10.7039C40.4225 12.0842 41.3296 13.6223 42 15.2786L38.6479 16.5011ZM6.94083 16.5011L3.58872 15.2786C4.25914 13.6223 5.16619 12.1237 6.23098 10.7039L8.9521 12.9913C8.16337 14.0955 7.49295 15.2786 6.94083 16.5011ZM6.27042 18.3546C5.87605 19.6166 5.63943 20.9575 5.56055 22.3377H1.97183C2.0507 20.5237 2.36619 18.7885 2.87887 17.1321L6.27042 18.3546ZM5.52113 24.3096V28.1744C4.29859 28.2532 3.11549 28.4899 1.93239 28.8448V24.3096H5.52113ZM20.1915 41.149C19.0873 41.3856 17.9831 41.5039 16.8394 41.5039C14.3944 41.5039 12.0282 40.9518 9.85915 39.8082C6.66479 38.1518 4.14084 35.4701 2.72112 32.1969L20.1915 41.149ZM37.662 51.3237C33.5211 48.7997 28.7493 47.38 23.7803 47.2223V42.7659C25.3972 43.2392 27.0535 43.5152 28.7493 43.5152C31.5099 43.5152 34.1521 42.8842 36.6366 41.6222C37.1099 41.3856 37.5831 41.1096 38.0563 40.7941V47.7349C38.0958 48.9575 37.938 50.18 37.662 51.3237ZM35.769 39.8476C33.5606 40.9518 31.2338 41.5434 28.7887 41.5434C27.6451 41.5434 26.5408 41.4251 25.4366 41.1885L42.907 32.2363C41.4873 35.5096 38.9634 38.1913 35.769 39.8476ZM38.0958 9.20535L35.3352 11.4927C34.4282 10.5068 33.3634 9.63915 32.2591 8.88986L34.0338 5.77437C35.5324 6.76028 36.9127 7.90394 38.0958 9.20535ZM25.4366 2.65888L24.8056 6.16873C24.1352 6.08986 23.4648 6.05042 22.7944 6.05042C22.1239 6.05042 21.4535 6.08986 20.7831 6.16873L20.1521 2.65888C21.0197 2.54057 21.8873 2.50113 22.7944 2.50113C23.7014 2.50113 24.569 2.54057 25.4366 2.65888ZM11.5549 5.81381L13.3296 8.9293C12.1859 9.67859 11.1606 10.5462 10.2535 11.5321L7.49296 9.24479C8.67605 7.90395 10.0563 6.76029 11.5549 5.81381ZM1.97183 35.0758C2.91831 36.6532 4.14083 38.1124 5.56055 39.2955V47.7349C5.56055 49.3518 5.79718 50.9293 6.23098 52.4673C5.20563 53.2166 4.21971 54.0054 3.27323 54.873C2.44507 52.6251 2.01126 50.2194 2.01126 47.6955V35.0758H1.97183ZM23.7803 59.7631C27.9211 59.9997 31.7859 61.8138 34.6648 64.8504C33.7183 65.4814 32.7324 66.073 31.707 66.5462C29.538 64.4955 26.7775 63.273 23.7803 63.0363V59.7631ZM21.8084 63.0758C18.8113 63.3124 16.0507 64.4955 13.8817 66.5856C12.8563 66.1124 11.8704 65.5208 10.9239 64.8899C13.7634 61.8532 17.6282 60.0392 21.8084 59.8025V63.0758ZM15.9324 67.4138C17.8648 65.8363 20.2704 65.0082 22.7944 65.0082C25.3183 65.0082 27.7239 65.8363 29.6563 67.4138C27.4873 68.1631 25.2 68.5969 22.7944 68.5969C20.3887 68.5575 18.062 68.1631 15.9324 67.4138ZM36.2422 63.6673C32.7718 59.9208 27.9606 57.7518 22.7944 57.7518C17.6676 57.7518 12.8169 59.8814 9.34647 63.6673C8.5183 62.9575 7.72957 62.1687 7.01971 61.3406C11.0817 56.9631 16.8 54.4392 22.7944 54.4392C28.7887 54.4392 34.507 56.9631 38.569 61.3406C37.8591 62.1687 37.0704 62.9575 36.2422 63.6673ZM42.3549 54.9124C41.4084 54.0448 40.4225 53.2166 39.3972 52.5068C39.831 50.9687 40.0676 49.3913 40.0676 47.7744V39.3349C41.4873 38.1124 42.6704 36.6927 43.6563 35.1152V47.7744C43.6169 50.2589 43.1831 52.6645 42.3549 54.9124Z" fill="white"/>
<path d="M33.5992 23.9944C34.5852 23.9944 35.4133 23.2056 35.4133 22.1803C35.4133 21.1944 34.6246 20.3662 33.5992 20.3662C32.6133 20.3662 31.7852 21.1549 31.7852 22.1803C31.7852 23.2056 32.5739 23.9944 33.5992 23.9944Z" fill="white"/>
<path d="M10.2148 22.2194C10.2148 23.2053 11.0036 24.0334 12.0289 24.0334C13.0148 24.0334 13.843 23.2447 13.843 22.2194C13.843 21.2334 13.0543 20.4053 12.0289 20.4053C11.0036 20.4053 10.2148 21.194 10.2148 22.2194Z" fill="white"/>
<path d="M63.5886 47.36V24.96H76.7406V28.992H68.0686V34.24H76.5806V38.208H68.0686V47.36H63.5886Z" fill="white"/>
<path d="M79.1436 47.36V24H83.4636V47.36H79.1436Z" fill="white"/>
<path d="M94.2426 47.776C89.0906 47.776 85.3786 43.872 85.3786 39.072C85.3786 34.272 89.0906 30.336 94.2426 30.336C99.3946 30.336 103.107 34.272 103.107 39.072C103.107 43.872 99.3946 47.776 94.2426 47.776ZM89.6986 39.072C89.6986 41.664 91.4906 43.84 94.2426 43.84C96.9946 43.84 98.7866 41.664 98.7866 39.072C98.7866 36.48 96.9946 34.272 94.2426 34.272C91.4906 34.272 89.6986 36.48 89.6986 39.072Z" fill="white"/>
<path d="M105.019 47.36V30.72H109.211V33.888C109.787 31.488 111.483 30.176 114.363 30.336V34.4H113.755C111.259 34.4 109.339 36.064 109.339 38.848V47.36H105.019Z" fill="white"/>
<path d="M122.571 47.776C117.995 47.776 114.347 43.904 114.347 39.104C114.347 34.304 117.995 30.368 122.571 30.368C125.451 30.368 126.955 31.552 127.851 33.344V30.72H132.139V47.36H127.947V44.64C127.051 46.528 125.547 47.776 122.571 47.776ZM118.667 39.072C118.667 41.6 120.523 43.872 123.275 43.872C126.123 43.872 127.947 41.696 127.947 39.104C127.947 36.512 126.123 34.272 123.275 34.272C120.523 34.272 118.667 36.48 118.667 39.072Z" fill="white"/>
<path d="M133.106 47.36L139.346 39.04L133.426 30.72H138.578L141.97 36L145.49 30.72H150.546L144.626 39.104L150.866 47.36H145.618L142.002 42.048L138.258 47.36H133.106Z" fill="white"/>
<path d="M154.135 47.776C152.471 47.776 151.255 46.496 151.255 44.96C151.255 43.456 152.471 42.176 154.135 42.176C155.799 42.176 156.983 43.456 156.983 44.96C156.983 46.496 155.799 47.776 154.135 47.776Z" fill="#F0FFF0"/>
</svg>
