<svg width="35" height="35" viewBox="0 0 35 35" fill="none" xmlns="http://www.w3.org/2000/svg">
<g clip-path="url(#clip0_126_3739)">
<path d="M20.004 26.0112H13.6288C13.3458 26.0112 13.0977 26.1181 12.8852 26.3303C12.6726 26.5429 12.5664 26.7906 12.5664 27.074V33.4494C12.5664 33.7328 12.6729 33.9809 12.8852 34.1932C13.0977 34.4052 13.3455 34.5119 13.6288 34.5119H20.004C20.287 34.5119 20.5357 34.4055 20.7473 34.1932C20.9604 33.9809 21.0667 33.7328 21.0667 33.4494V27.074C21.0667 26.7906 20.9607 26.5429 20.7473 26.3303C20.5357 26.1176 20.287 26.0112 20.004 26.0112Z" fill="white"/>
<path d="M28.3719 6.92678C27.6456 5.58908 26.7073 4.46072 25.556 3.53964C24.4054 2.61894 23.1118 1.88366 21.6777 1.33492C20.2433 0.786367 18.8179 0.511719 17.4009 0.511719C12.0178 0.511719 7.90954 2.86698 5.07597 7.57758C4.93446 7.80767 4.88562 8.05552 4.92981 8.32124C4.97428 8.58658 5.11151 8.80801 5.34169 8.98506L9.6981 12.3057C9.92828 12.4471 10.1497 12.5179 10.3623 12.5179C10.6811 12.5179 10.9554 12.376 11.1859 12.0927C12.4607 10.4992 13.4083 9.48096 14.028 9.038C14.7896 8.52462 15.7456 8.26802 16.8966 8.26802C17.9768 8.26802 18.9284 8.55141 19.7522 9.11764C20.5756 9.68443 20.9869 10.3397 20.9869 11.0834C20.9869 11.9154 20.7659 12.5886 20.323 13.1022C19.8805 13.6156 19.1364 14.1112 18.0914 14.5895C16.7106 15.2092 15.4439 16.17 14.2933 17.4716C13.142 18.7733 12.5667 20.159 12.5667 21.6287V22.824C12.5667 23.1608 12.6592 23.4927 12.8455 23.8203C13.0316 24.1481 13.2572 24.3118 13.523 24.3118H19.898C20.1814 24.3118 20.4291 24.1748 20.6418 23.8994C20.8538 23.6257 20.9605 23.3379 20.9605 23.0372C20.9605 22.5947 21.204 22.0008 21.6906 21.2574C22.1777 20.5137 22.784 19.9376 23.5106 19.5302C24.2009 19.1407 24.7405 18.8268 25.1305 18.5874C25.5209 18.3487 26.0296 17.9627 26.6585 17.4318C27.287 16.9004 27.7741 16.3735 28.119 15.8513C28.4644 15.329 28.7745 14.6515 29.049 13.8189C29.324 12.9867 29.461 12.0923 29.461 11.1362C29.4608 9.66638 29.0975 8.26309 28.3719 6.92678Z" fill="white"/>
</g>
<defs>
<clipPath id="clip0_126_3739">
<rect width="34" height="34" fill="white" transform="translate(0.1875 0.511719)"/>
</clipPath>
</defs>
</svg>
