<svg width="34" height="35" viewBox="0 0 34 35" fill="none" xmlns="http://www.w3.org/2000/svg">
<g clip-path="url(#clip0_126_3423)">
<path d="M15.6031 10.0146C17.3881 11.2103 19.8854 11.148 21.9594 10.5569C22.3025 11.4385 22.5311 12.3604 22.6394 13.3002L22.6586 14.6296H14.7332C14.4072 14.6296 14.097 14.7701 13.8818 15.0151C13.6667 15.26 13.5675 15.5858 13.6095 15.9091L14.1252 19.8758C14.1978 20.4344 14.6697 20.8549 15.233 20.8629L16.8622 33.4763C16.9371 34.0403 17.4176 34.4619 17.9865 34.4629H28.48C29.0495 34.4618 29.5301 34.0393 29.6043 33.4746L31.2334 20.8629C31.7961 20.855 32.2679 20.4354 32.3413 19.8775C32.9187 15.4354 32.8569 15.9675 32.8569 15.9108C32.8995 15.5872 32.8005 15.261 32.5853 15.0156C32.3701 14.7702 32.0596 14.6296 31.7332 14.6296H23.7999L23.8271 13.3024C23.9303 12.3612 24.159 11.438 24.5071 10.5575C26.58 11.1502 29.0784 11.2103 30.8628 10.0146C33.5828 8.19394 33.9795 4.00117 33.9971 3.82324C33.9978 3.78887 33.9952 3.75451 33.9891 3.72067C33.9859 3.62856 33.9569 3.5392 33.9053 3.46284V3.45831C33.8996 3.44981 33.8905 3.44584 33.8849 3.43791C33.8372 3.36954 33.7723 3.31499 33.6967 3.27981C33.6741 3.26461 33.6502 3.25134 33.6253 3.24014C33.4621 3.18347 29.5907 1.82631 26.8593 3.65494C24.4034 5.29827 23.8418 8.86827 23.7427 9.67861C23.5098 9.99776 23.337 10.3566 23.2327 10.7377C23.1276 10.3553 22.9549 9.99489 22.7227 9.67351C22.6235 8.85637 22.0591 5.29657 19.606 3.65494C16.8775 1.82687 13.006 3.18291 12.8423 3.23957C12.8174 3.25086 12.7936 3.26413 12.7709 3.27924C12.6954 3.31463 12.6306 3.36913 12.5827 3.43734C12.5771 3.44527 12.568 3.44924 12.5623 3.45774C12.51 3.53554 12.4803 3.6264 12.4768 3.72011C12.4699 3.75405 12.4665 3.78861 12.4666 3.82324C12.4847 4.00117 12.8836 8.19394 15.6031 10.0146ZM13.8266 4.98547L20.8136 9.66387C16.9648 10.3988 14.7593 8.87054 13.8266 4.98547ZM28.48 33.3296H17.9865L16.3766 20.8629H30.0899L28.48 33.3296ZM31.2176 19.7296H15.2489L14.7332 15.7629H31.7332L31.2176 19.7296ZM25.6569 9.66217L32.6433 4.98434C31.7094 8.88641 29.4926 10.3909 25.6569 9.66217ZM32.0647 4.00797L25.0806 8.68411C26.0099 4.82624 28.1859 3.27187 32.0647 4.00797ZM18.9781 4.59957C20.4129 5.56291 21.085 7.43291 21.387 8.68751L14.3995 4.00627C15.6167 3.77337 17.5388 3.63624 18.9781 4.59957Z" fill="#2A7D2E"/>
<path d="M17.5667 16.8962H16.4334C16.1204 16.8962 15.8667 17.1499 15.8667 17.4629C15.8667 17.7759 16.1204 18.0296 16.4334 18.0296H17.5667C17.8797 18.0296 18.1334 17.7759 18.1334 17.4629C18.1334 17.1499 17.8797 16.8962 17.5667 16.8962Z" fill="#2A7D2E"/>
<path d="M19.8333 16.8962C19.5203 16.8962 19.2666 17.1499 19.2666 17.4629C19.2666 17.7759 19.5203 18.0296 19.8333 18.0296H23.7999C24.1129 18.0296 24.3666 17.7759 24.3666 17.4629C24.3666 17.1499 24.1129 16.8962 23.7999 16.8962H19.8333Z" fill="#2A7D2E"/>
<path d="M6.23333 34.4629C9.5812 34.4629 12.4667 25.6671 12.4667 21.3485C12.4667 17.3575 10.2057 16.1828 7.93333 15.8694V13.4815C8.64426 12.9509 9.06408 12.1167 9.06667 11.2296V3.29622C9.06667 1.73142 7.79814 0.462891 6.23333 0.462891C4.66853 0.462891 3.4 1.73142 3.4 3.29622V11.2296C3.40258 12.1167 3.82241 12.9509 4.53333 13.4815V15.8694C2.261 16.1828 0 17.3575 0 21.3485C0 25.6671 2.88547 34.4629 6.23333 34.4629ZM7.2573 16.9399C6.9598 19.6922 6.51667 21.0488 6.23333 21.3814C5.95 21.0488 5.50687 19.6922 5.20937 16.9399C5.89076 16.8815 6.5759 16.8815 7.2573 16.9399ZM4.53333 3.29622C4.53333 2.35734 5.29445 1.59622 6.23333 1.59622C7.17222 1.59622 7.93333 2.35734 7.93333 3.29622V11.2296C7.93333 12.1684 7.17222 12.9296 6.23333 12.9296C5.29445 12.9296 4.53333 12.1684 4.53333 11.2296V3.29622ZM5.66667 14.0062C6.0406 14.0824 6.42607 14.0824 6.8 14.0062V15.7742C6.40843 15.7601 6.06843 15.7595 5.66667 15.7742V14.0062ZM4.08737 17.1082C4.6767 22.5629 5.7613 22.5629 6.23333 22.5629C6.70537 22.5629 7.78997 22.5629 8.3793 17.1082C10.4476 17.5859 11.3333 18.9073 11.3333 21.3485C11.3333 25.6864 8.38667 33.3296 6.23333 33.3296C4.08 33.3296 1.13333 25.6864 1.13333 21.3485C1.13333 18.9073 2.01903 17.5859 4.08737 17.1082Z" fill="#2A7D2E"/>
<path d="M6.23341 3.86283C6.54638 3.86283 6.80008 3.60912 6.80008 3.29616C6.80008 2.9832 6.54638 2.72949 6.23341 2.72949C5.92045 2.72949 5.66675 2.9832 5.66675 3.29616C5.66675 3.60912 5.92045 3.86283 6.23341 3.86283Z" fill="#2A7D2E"/>
</g>
<defs>
<clipPath id="clip0_126_3423">
<rect width="34" height="34" fill="white" transform="translate(0 0.462891)"/>
</clipPath>
</defs>
</svg>
