<svg width="34" height="34" viewBox="0 0 34 34" fill="none" xmlns="http://www.w3.org/2000/svg">
<g clip-path="url(#clip0_238_957)">
<path d="M26.3535 8.08975C26.3724 8.09187 26.3912 8.09294 26.41 8.09294C26.66 8.09294 26.8755 7.90501 26.9042 7.65068L26.9417 7.31825C26.9419 7.31579 26.9422 7.3134 26.9424 7.31101C26.9461 7.27436 27.4159 3.59828 31.5166 1.82366C31.7691 1.71443 31.8852 1.42125 31.7759 1.16884C31.6666 0.916365 31.3732 0.800155 31.121 0.909591C27.2254 2.59543 26.0694 6.02507 25.9515 7.21001L25.9143 7.53905C25.8835 7.81237 26.0801 8.05894 26.3535 8.08975Z" fill="#2A7D2E"/>
<path d="M5.06562 8.00078C5.27148 9.29715 6.49487 10.1944 7.79249 10.001C7.85697 9.99135 7.92318 9.98152 7.99018 9.9715L6.22785 11.2183C5.70849 11.5857 5.58491 12.307 5.95233 12.8265C6.38961 13.4446 7.08428 13.7747 7.78944 13.7747C8.23788 13.7747 8.69056 13.6411 9.08368 13.363L9.92438 12.7682L9.7324 13.047C9.37168 13.5709 9.50429 14.2907 10.0282 14.6516C10.4073 14.9127 10.847 15.0486 11.2976 15.0486C11.4344 15.0486 11.5722 15.036 11.7096 15.0107C12.2998 14.902 12.8122 14.5699 13.1525 14.0757L16.8906 8.64843C17.7968 8.51383 18.6202 8.39158 19.2899 8.29217C20.1835 8.15949 21.0735 8.52771 21.6128 9.25286C22.1492 9.97429 22.2529 10.9315 21.8834 11.751L21.3919 12.8415C20.8506 14.0425 20.9869 15.4565 21.7477 16.5319C22.0667 16.9829 22.5423 17.2827 23.0868 17.376C23.2048 17.3962 23.3231 17.4062 23.4404 17.4062C23.8644 17.4062 24.2773 17.2757 24.6305 17.0258C24.9731 16.7834 25.1162 16.3373 24.9788 15.9408L24.7264 15.2134C24.5491 14.7022 24.6149 14.1476 24.907 13.6921L25.6286 12.567C26.1255 11.7761 26.503 10.9024 26.642 9.97488C26.6728 9.70163 26.4761 9.45506 26.2028 9.42418C25.9301 9.39304 25.683 9.58993 25.6521 9.86332C25.5251 10.6381 25.2066 11.3667 24.7902 12.0293L24.0686 13.1544C23.6105 13.8686 23.5074 14.7381 23.7854 15.5399L24.0258 16.2328C23.7978 16.3833 23.5257 16.4407 23.255 16.3942C22.9728 16.3458 22.7263 16.1905 22.5609 15.9567C22.0031 15.1682 21.9031 14.1314 22.3 13.2509L22.7915 12.1604C23.3095 11.0117 23.164 9.66982 22.4121 8.65853C21.6534 7.63821 20.4012 7.12044 19.1435 7.30691C16.2762 7.73257 10.5906 8.57698 7.64567 9.01586C6.9004 9.12635 6.19757 8.62373 6.05699 7.88822L8.83167 7.25903C9.09995 7.1982 9.26809 6.93139 9.20726 6.66318C9.14644 6.3949 8.87962 6.22676 8.61141 6.28759L5.76693 6.93258C5.29552 7.0395 4.98567 7.49716 5.06144 7.97482L5.06562 8.00078ZM8.50848 12.5498C7.94549 12.9479 7.1637 12.8139 6.76553 12.2511C6.7154 12.1802 6.73226 12.0816 6.80319 12.0314C6.87065 11.9738 10.1561 9.6491 10.1561 9.6491C11.1281 9.50453 12.1916 9.34642 13.2611 9.18751L8.50848 12.5498ZM12.3322 13.5106C12.1428 13.7858 11.8576 13.9706 11.5291 14.0311C11.2006 14.0918 10.8683 14.0206 10.5933 13.8312C10.5217 13.7819 10.5035 13.6835 10.5528 13.6119L12.2834 11.0994C12.3628 11.0312 15.4224 8.86638 15.4224 8.86638C15.4224 8.86638 15.5031 8.85436 15.5433 8.84838L12.3322 13.5106Z" fill="#2A7D2E"/>
<path d="M10.9931 6.75626C11.0295 6.75626 11.0666 6.75214 11.1037 6.74378L12.8532 6.347C14.3546 6.00661 15.8187 5.49403 17.2047 4.82346L20.8315 3.06896C21.5867 2.70367 22.3101 2.2634 22.9815 1.76044C23.2017 1.59556 23.2465 1.28339 23.0816 1.06325C22.9167 0.843185 22.6046 0.798295 22.3844 0.963179C21.7639 1.42795 21.0956 1.83475 20.3978 2.17229L16.7709 3.92686C15.4528 4.56455 14.0606 5.05196 12.6329 5.37562L10.8834 5.7724C10.6151 5.83322 10.447 6.10004 10.5078 6.36825C10.5603 6.59941 10.7656 6.75626 10.9931 6.75626Z" fill="#2A7D2E"/>
<path d="M20.2703 20.5202C20.4017 20.5202 20.5353 20.5038 20.6683 20.4694C21.0798 20.363 21.4254 20.1027 21.6412 19.7365C21.857 19.3702 21.9173 18.9418 21.811 18.5303C21.6768 18.011 21.3247 17.5044 20.7644 17.0245C20.3686 16.6855 20.0059 16.4813 19.9907 16.4728C19.7584 16.3429 19.4648 16.4188 19.3245 16.645C19.3153 16.6599 19.097 17.0141 18.915 17.5024C18.6575 18.1937 18.5949 18.8074 18.7291 19.3267V19.3267C18.9144 20.0434 19.5622 20.5202 20.2703 20.5202ZM19.9353 17.6332C20.2998 17.914 20.7319 18.3356 20.8466 18.7795C20.8864 18.9335 20.8639 19.0937 20.7831 19.2308C20.7023 19.3678 20.5731 19.4652 20.4191 19.505C20.1015 19.5875 19.7758 19.3955 19.6936 19.0775C19.5788 18.6336 19.7525 18.0553 19.9353 17.6332Z" fill="#2A7D2E"/>
<path d="M15.6284 16.081C15.6109 16.0803 15.1948 16.0723 14.6818 16.1635C13.9555 16.2925 13.395 16.5503 13.0157 16.9294C12.7151 17.2301 12.5496 17.6298 12.5496 18.0549C12.5496 18.4799 12.7151 18.8796 13.0157 19.1803C13.326 19.4906 13.7335 19.6457 14.1411 19.6456C14.5486 19.6456 14.9562 19.4905 15.2665 19.1803C15.6457 18.801 15.9034 18.2405 16.0325 17.5141C16.1236 17.001 16.1153 16.585 16.1149 16.5675C16.1089 16.3015 15.8945 16.0871 15.6284 16.081ZM14.5622 18.476C14.33 18.7082 13.9522 18.7081 13.72 18.476C13.6075 18.3635 13.5456 18.214 13.5456 18.0549C13.5456 17.8958 13.6076 17.7464 13.72 17.6339C14.044 17.3098 14.63 17.1658 15.0862 17.109C15.0288 17.5632 14.8846 18.1536 14.5622 18.476Z" fill="#2A7D2E"/>
<path d="M17 25.4214C18.0371 25.4214 18.8808 24.5777 18.8808 23.5406C18.8808 22.0267 17.4068 20.601 17.344 20.5411C17.1515 20.3571 16.8485 20.3571 16.6559 20.5411C16.5931 20.601 15.1191 22.0267 15.1191 23.5406C15.1192 24.5776 15.9629 25.4214 17 25.4214ZM17 21.6388C17.3925 22.1155 17.8848 22.8693 17.8848 23.5406C17.8848 24.0285 17.4879 24.4253 17.0001 24.4253C16.5123 24.4253 16.1154 24.0284 16.1154 23.5406C16.1153 22.8691 16.6076 22.1152 17 21.6388Z" fill="#2A7D2E"/>
<path d="M17.1121 14.9901C17.3594 15.1 17.618 15.152 17.8726 15.152C18.5938 15.152 19.2833 14.735 19.5944 14.0345C20.2088 12.6509 19.4402 10.7496 19.4072 10.6693C19.306 10.4232 19.0291 10.2999 18.7782 10.3901C18.6966 10.4194 16.7709 11.1243 16.1564 12.5079C15.7355 13.4557 16.1643 14.5693 17.1121 14.9901ZM17.0668 12.9121C17.3392 12.2985 18.0952 11.8093 18.6472 11.5329C18.8124 12.1279 18.9564 13.0166 18.684 13.6301C18.4859 14.076 17.9622 14.2775 17.5163 14.0798C17.0705 13.8818 16.8688 13.3579 17.0668 12.9121Z" fill="#2A7D2E"/>
<path d="M33.5018 25.2989H32.4153C33.6968 24.1457 34.2765 22.371 33.8737 20.6488L33.6966 19.8923C33.66 19.7361 33.5505 19.607 33.4022 19.5457C33.2542 19.4842 33.0854 19.4979 32.949 19.5827L32.2889 19.9924C31.6845 20.3676 31.1866 20.8613 30.8129 21.4293C30.434 20.8518 29.9343 20.3632 29.3368 19.9924L28.6768 19.5827C28.5404 19.498 28.3717 19.4843 28.2235 19.5457C28.0753 19.607 27.9658 19.7361 27.9292 19.8923L27.7521 20.6488C27.3433 22.3965 27.9457 24.1985 29.267 25.35C28.7556 25.4694 28.3057 25.7949 28.0376 26.2593L27.1539 27.7897C26.9187 28.197 26.4975 28.4402 26.0272 28.4402C25.5568 28.4402 25.1356 28.197 24.9004 27.7897L24.0168 26.2593C23.6749 25.6669 23.0375 25.2989 22.3534 25.2989H20.7829C20.0988 25.2989 19.4615 25.6669 19.1195 26.2593L18.2359 27.7897C18.0007 28.197 17.5794 28.4402 17.1091 28.4402C16.6387 28.4402 16.2175 28.197 15.9824 27.7897L15.0988 26.2593C14.7568 25.6669 14.1194 25.2989 13.4354 25.2989H11.7984C11.1144 25.2989 10.477 25.6669 10.135 26.2593L9.25143 27.7897C9.01622 28.197 8.59508 28.4402 8.12473 28.4402C7.65438 28.4402 7.23317 28.197 6.99796 27.7897L6.11437 26.2593C5.82484 25.7577 5.32328 25.418 4.76116 25.3253C5.07792 25.045 5.35595 24.7242 5.5911 24.365C5.74177 24.135 5.67729 23.8262 5.4472 23.6756C5.21703 23.525 4.90838 23.5894 4.75771 23.8195C4.43883 24.3085 4.01609 24.7082 3.51413 25.0079C3.09365 23.3755 3.80745 21.6518 5.25914 20.7949C5.34633 21.1433 5.38836 21.5028 5.37628 21.8606C5.36758 22.1356 5.58339 22.3655 5.85831 22.3741C6.13204 22.3837 6.36319 22.1671 6.37183 21.8921C6.38504 21.4749 6.34334 21.0565 6.24791 20.6487L6.07088 19.8922C6.03435 19.736 5.92478 19.607 5.7765 19.5456C5.62828 19.484 5.45948 19.4978 5.32328 19.5826L4.66315 19.9923C4.05872 20.3675 3.56082 20.8612 3.18715 21.4293C2.80824 20.8517 2.30848 20.3631 1.71116 19.9923L1.05109 19.5826C0.914823 19.498 0.74602 19.4841 0.59787 19.5456C0.449653 19.607 0.340084 19.736 0.303494 19.8922L0.126457 20.6487C-0.276491 22.371 0.303229 24.1456 1.58472 25.2988H0.498328C0.223277 25.2988 0.000287014 25.5218 0.000287014 25.7969C0.000287014 26.072 0.223277 26.2949 0.498328 26.2949H4.45098C4.78022 26.2949 5.08708 26.4721 5.25176 26.7572L6.13536 28.2877C6.55059 29.0069 7.29433 29.4362 8.12473 29.4362C8.95513 29.4362 9.69887 29.0069 10.1141 28.2877L10.9977 26.7572C11.1623 26.4721 11.4692 26.2949 11.7985 26.2949H13.4354C13.7647 26.2949 14.0716 26.4721 14.2362 26.7572L15.1198 28.2877C15.535 29.0069 16.2787 29.4362 17.1092 29.4362C17.9397 29.4362 18.6834 29.0069 19.0986 28.2877L19.9822 26.7572C20.1468 26.4721 20.4537 26.2949 20.783 26.2949H22.3535C22.6828 26.2949 22.9897 26.472 23.1543 26.7572L24.0379 28.2877C24.4532 29.0069 25.1968 29.4362 26.0273 29.4362C26.8578 29.4362 27.6015 29.0069 28.0167 28.2877L28.9004 26.7572C29.065 26.472 29.3718 26.2949 29.7011 26.2949H33.5019C33.777 26.2949 34 26.072 34 25.7969C34 25.5218 33.777 25.2989 33.5018 25.2989ZM1.09644 20.8757L1.11537 20.7948C1.79802 21.201 2.33298 21.7994 2.65285 22.5246C2.41731 23.2196 2.34062 23.9706 2.44567 24.7225C1.29592 23.8194 0.757575 22.3241 1.09644 20.8757ZM32.8142 20.8387L32.8848 20.7948C33.3053 22.4273 32.5914 24.1509 31.1397 25.0079C30.7284 23.403 31.4047 21.7114 32.8142 20.8387ZM28.722 20.8757L28.741 20.7948C29.4236 21.2011 29.9587 21.7994 30.2785 22.5246C30.0429 23.2196 29.9662 23.9706 30.0713 24.7224C28.9215 23.8194 28.3831 22.3241 28.722 20.8757Z" fill="#2A7D2E"/>
<path d="M2.01757 31.5283C2.29263 31.5283 2.51561 31.3053 2.51561 31.0303C2.51561 30.7552 2.29263 30.5322 2.01757 30.5322C1.74251 30.5322 1.51953 30.7552 1.51953 31.0303C1.51953 31.3053 1.74251 31.5283 2.01757 31.5283Z" fill="#2A7D2E"/>
<path d="M3.12866 29.8428C3.40372 29.8428 3.6267 29.6198 3.6267 29.3447C3.6267 29.0697 3.40372 28.8467 3.12866 28.8467C2.8536 28.8467 2.63062 29.0697 2.63062 29.3447C2.63062 29.6198 2.8536 29.8428 3.12866 29.8428Z" fill="#2A7D2E"/>
<path d="M4.09814 31.6499C4.3732 31.6499 4.59618 31.4269 4.59618 31.1518C4.59618 30.8768 4.3732 30.6538 4.09814 30.6538C3.82308 30.6538 3.6001 30.8768 3.6001 31.1518C3.6001 31.4269 3.82308 31.6499 4.09814 31.6499Z" fill="#2A7D2E"/>
<path d="M9.32495 32.6514C9.60001 32.6514 9.82299 32.4284 9.82299 32.1533C9.82299 31.8783 9.60001 31.6553 9.32495 31.6553C9.04988 31.6553 8.8269 31.8783 8.8269 32.1533C8.8269 32.4284 9.04988 32.6514 9.32495 32.6514Z" fill="#2A7D2E"/>
<path d="M11.5102 30.3896C11.7853 30.3896 12.0083 30.1667 12.0083 29.8916C12.0083 29.6165 11.7853 29.3936 11.5102 29.3936C11.2352 29.3936 11.0122 29.6165 11.0122 29.8916C11.0122 30.1667 11.2352 30.3896 11.5102 30.3896Z" fill="#2A7D2E"/>
<path d="M18.0413 33.1362C18.3163 33.1362 18.5393 32.9132 18.5393 32.6382C18.5393 32.3631 18.3163 32.1401 18.0413 32.1401C17.7662 32.1401 17.5432 32.3631 17.5432 32.6382C17.5432 32.9132 17.7662 33.1362 18.0413 33.1362Z" fill="#2A7D2E"/>
<path d="M20.2327 29.9626C20.5077 29.9626 20.7307 29.7397 20.7307 29.4646C20.7307 29.1895 20.5077 28.9666 20.2327 28.9666C19.9576 28.9666 19.7346 29.1895 19.7346 29.4646C19.7346 29.7397 19.9576 29.9626 20.2327 29.9626Z" fill="#2A7D2E"/>
<path d="M22.0837 29.0044C22.3588 29.0044 22.5818 28.7814 22.5818 28.5063C22.5818 28.2313 22.3588 28.0083 22.0837 28.0083C21.8087 28.0083 21.5857 28.2313 21.5857 28.5063C21.5857 28.7814 21.8087 29.0044 22.0837 29.0044Z" fill="#2A7D2E"/>
<path d="M22.1479 30.9592C22.423 30.9592 22.646 30.7362 22.646 30.4612C22.646 30.1861 22.423 29.9631 22.1479 29.9631C21.8729 29.9631 21.6499 30.1861 21.6499 30.4612C21.6499 30.7362 21.8729 30.9592 22.1479 30.9592Z" fill="#2A7D2E"/>
<path d="M29.8848 31.8579C30.1598 31.8579 30.3828 31.6349 30.3828 31.3599C30.3828 31.0848 30.1598 30.8618 29.8848 30.8618C29.6097 30.8618 29.3867 31.0848 29.3867 31.3599C29.3867 31.6349 29.6097 31.8579 29.8848 31.8579Z" fill="#2A7D2E"/>
<path d="M31.5249 30.3596C31.8 30.3596 32.0229 30.1366 32.0229 29.8616C32.0229 29.5865 31.8 29.3635 31.5249 29.3635C31.2498 29.3635 31.0269 29.5865 31.0269 29.8616C31.0269 30.1366 31.2498 30.3596 31.5249 30.3596Z" fill="#2A7D2E"/>
</g>
<defs>
<clipPath id="clip0_238_957">
<rect width="34" height="34" fill="white"/>
</clipPath>
</defs>
</svg>
