<svg width="34" height="35" viewBox="0 0 34 35" fill="none" xmlns="http://www.w3.org/2000/svg">
<g clip-path="url(#clip0_126_3436)">
<path d="M5.09994 31.0628H3.39994V29.3628C3.39994 29.0498 3.14623 28.7961 2.83327 28.7961C2.52031 28.7961 2.2666 29.0498 2.2666 29.3628V31.6295C2.2666 31.9424 2.52031 32.1961 2.83327 32.1961H5.09994C5.4129 32.1961 5.6666 31.9424 5.6666 31.6295C5.6666 31.3165 5.4129 31.0628 5.09994 31.0628Z" fill="#2A7D2E"/>
<path d="M30.6 6.69618C28.9427 6.69925 27.5286 7.89564 27.251 9.52951H18.0829C17.772 6.33704 16.506 3.31243 14.45 0.850442C14.231 0.616061 13.9248 0.482688 13.604 0.481937C13.2832 0.481186 12.9764 0.613123 12.7562 0.846475C11.6927 2.09866 10.8364 3.513 10.2198 5.03584C9.67595 3.93903 9.00206 2.91164 8.2127 1.97584C7.99275 1.74328 7.68676 1.61152 7.36667 1.61152C7.04657 1.61152 6.74059 1.74328 6.52063 1.97584C4.71751 4.14604 3.51336 6.7501 3.0277 9.52951H2.26667C1.01482 9.52951 0 10.5443 0 11.7962V32.1962C0 33.448 1.01482 34.4628 2.26667 34.4628H30.6C32.477 34.461 33.9981 32.9398 34 31.0628V10.0962C33.9981 8.21918 32.477 6.69805 30.6 6.69618ZM30.6 7.82951C31.8518 7.82951 32.8667 8.84433 32.8667 10.0962V28.5355C31.5795 27.372 29.6205 27.372 28.3333 28.5355V10.0962C28.3333 8.84433 29.3482 7.82951 30.6 7.82951ZM24.9333 10.6628H27.2V31.0628C27.2002 31.9005 27.5114 32.7083 28.0732 33.3295H13.6V31.6295C13.6 31.0036 14.1074 30.4962 14.7333 30.4962H19.2667C22.3949 30.4927 24.9299 27.9577 24.9333 24.8295V10.6628ZM13.5955 1.59618C15.7314 4.14151 16.9327 7.34073 17 10.6628C17 13.9348 15.9743 15.9328 14.1667 16.2728V14.0628C14.1667 13.7499 13.913 13.4962 13.6 13.4962C13.287 13.4962 13.0333 13.7499 13.0333 14.0628V16.2728C12.3945 16.1528 11.8203 15.8066 11.4161 15.2976C11.762 14.1635 11.9253 12.9816 11.9 11.7962C11.89 9.98959 11.5441 8.20062 10.88 6.52051C11.4655 4.72207 12.387 3.05107 13.5955 1.59618ZM7.36667 2.72951C8.38406 3.9434 9.19831 5.31394 9.77783 6.78798L9.78237 6.79818C10.4242 8.38674 10.7583 10.0829 10.7667 11.7962C10.7667 15.0681 9.741 17.0662 7.93333 17.4062V15.4308L9.4673 13.8968C9.68205 13.6745 9.67898 13.321 9.4604 13.1024C9.24181 12.8839 8.88838 12.8808 8.66603 13.0955L7.36667 14.3949L6.0673 13.0955C5.84495 12.8808 5.49152 12.8839 5.27294 13.1024C5.05435 13.321 5.05128 13.6745 5.26603 13.8968L6.8 15.4308V17.4062C4.99233 17.0662 3.96667 15.0687 3.96667 11.7962C4.04038 8.4761 5.23914 5.27941 7.36667 2.72951ZM1.13333 32.1962V11.7962C1.13333 11.1703 1.64074 10.6628 2.26667 10.6628H2.88433C2.85317 11.0329 2.83333 11.4097 2.83333 11.7962C2.83333 17.2311 5.40657 18.3474 6.8 18.5525V24.2628C6.8 24.5758 7.05371 24.8295 7.36667 24.8295C7.67963 24.8295 7.93333 24.5758 7.93333 24.2628V18.5525C9.21254 18.362 10.324 17.5723 10.9248 16.427C11.5048 16.9733 12.2429 17.3219 13.0333 17.4226V23.1295C13.0333 23.4425 13.287 23.6962 13.6 23.6962C13.913 23.6962 14.1667 23.4425 14.1667 23.1295V17.4192C15.5601 17.2141 18.1333 16.0977 18.1333 10.6628H19.8333V24.8295C19.8333 25.4554 19.3259 25.9628 18.7 25.9628H14.1667C11.0385 25.9663 8.50344 28.5013 8.5 31.6295V33.3295H2.26667C1.64074 33.3295 1.13333 32.8221 1.13333 32.1962ZM9.63333 33.3295V31.6295C9.63614 29.127 11.6641 27.099 14.1667 27.0962H18.7C19.9518 27.0962 20.9667 26.0814 20.9667 24.8295V10.6628H23.8V24.8295C23.7972 27.332 21.7692 29.36 19.2667 29.3628H14.7333C13.4815 29.3628 12.4667 30.3777 12.4667 31.6295V33.3295H9.63333ZM30.6 33.3295C29.3482 33.3295 28.3333 32.3147 28.3333 31.0628C28.3333 29.811 29.3482 28.7962 30.6 28.7962C31.8518 28.7962 32.8667 29.811 32.8667 31.0628C32.8667 32.3147 31.8518 33.3295 30.6 33.3295Z" fill="#2A7D2E"/>
</g>
<defs>
<clipPath id="clip0_126_3436">
<rect width="34" height="34" fill="white" transform="translate(0 0.462891)"/>
</clipPath>
</defs>
</svg>
