<svg width="25" height="25" viewBox="0 0 25 25" fill="none" xmlns="http://www.w3.org/2000/svg">
<g clip-path="url(#clip0_119_1101)">
<path fill-rule="evenodd" clip-rule="evenodd" d="M11.3481 22.6783C5.60926 22.6783 0.944092 18.013 0.944092 12.2742C0.944092 6.53534 5.60926 1.87012 11.3481 1.87012C14.2371 1.87012 16.9308 3.02181 18.9218 5.12991C19.0225 5.24341 19.0114 5.37053 18.947 5.46293L19.5577 6.26106C19.6741 6.20177 19.8254 6.214 19.9175 6.35961C21.1277 8.09689 21.7523 10.1465 21.7523 12.2741C21.7522 18.013 17.087 22.6783 11.3481 22.6783ZM11.3481 20.5311C6.79998 20.5311 3.09123 16.8223 3.09123 12.2742C3.09123 7.72606 6.79998 4.01726 11.3481 4.01726C13.5148 4.01726 15.5644 4.85658 17.1065 6.35967C17.2305 6.48202 17.2111 6.62802 17.1305 6.72623L17.9035 7.68564C18.0214 7.61666 18.1844 7.6233 18.2776 7.76509C21.7868 13.1053 17.9785 20.5311 11.3481 20.5311Z" fill="#2A7D2E"/>
<path fill-rule="evenodd" clip-rule="evenodd" d="M11.6215 17.6224C11.5044 17.6224 11.4068 17.5444 11.3678 17.4468C11.3483 17.4077 9.66956 13.0743 7.07342 11.4346C6.56589 11.1223 6.17557 10.7905 6.3317 10.0487C6.48783 9.32649 6.97587 8.91657 7.85422 8.72135C9.41577 8.3895 11.0945 10.81 11.7191 11.8055C13.9053 8.6238 18.2778 3.62667 24.6412 3.04108C24.9482 3.0051 25.0617 3.46014 24.7779 3.58764C24.6803 3.62667 15.584 7.78448 11.8948 17.4663C11.8362 17.5639 11.7386 17.6224 11.6215 17.6224Z" fill="#2A7D2E"/>
</g>
<defs>
<clipPath id="clip0_119_1101">
<rect width="24" height="24" fill="white" transform="translate(0.942383 0.274414)"/>
</clipPath>
</defs>
</svg>
