<svg width="36" height="28" viewBox="0 0 36 28" fill="none" xmlns="http://www.w3.org/2000/svg">
<path d="M3.2 25C1.2 22.8 0 20.4 0 16.4C0 9.4 5 3.2 12 0L13.8 2.6C7.2 6.2 5.8 10.8 5.4 13.8C6.4 13.2 7.8 13 9.2 13.2C12.8 13.6 15.6 16.4 15.6 20.2C15.6 22 14.8 23.8 13.6 25.2C12.2 26.6 10.6 27.2 8.6 27.2C6.4 27.2 4.4 26.2 3.2 25ZM23.2 25C21.2 22.8 20 20.4 20 16.4C20 9.4 25 3.2 32 0L33.8 2.6C27.2 6.2 25.8 10.8 25.4 13.8C26.4 13.2 27.8 13 29.2 13.2C32.8 13.6 35.6 16.4 35.6 20.2C35.6 22 34.8 23.8 33.6 25.2C32.4 26.6 30.6 27.2 28.6 27.2C26.4 27.2 24.4 26.2 23.2 25Z" fill="#2A7D2E"/>
</svg>
