<svg width="36" height="37" viewBox="0 0 36 37" fill="none" xmlns="http://www.w3.org/2000/svg">
<path d="M6.53907 7.95601L7.58672 10.1216L9.96329 10.4451C10.4344 10.5084 10.6031 11.0919 10.2797 11.4013L8.54297 13.0677L8.97188 15.4302C9.05626 15.8943 8.56407 16.2459 8.15626 16.0209L6.03985 14.8818L3.92344 16.0209C3.51563 16.2388 3.00235 15.9013 3.11485 15.3951L3.53672 13.0607L1.80001 11.3943C1.46251 11.0709 1.64532 10.4943 2.12344 10.431L4.49297 10.1076L5.54063 7.94195C5.73751 7.5271 6.34219 7.53414 6.53907 7.95601ZM6.70782 10.881L6.03985 9.48882L5.36485 10.881C5.28751 11.0427 5.12579 11.1693 4.93594 11.1974L3.41016 11.4013L4.52813 12.4701C4.65469 12.5966 4.72501 12.7794 4.68985 12.9693L4.41563 14.488L5.76563 13.7638C5.92735 13.6795 6.13126 13.6654 6.30001 13.7638L7.65704 14.4951L7.38985 13.0044C7.34766 12.8216 7.39688 12.6177 7.54454 12.4701L8.66251 11.4013L7.15079 11.1974C6.96797 11.1763 6.79219 11.0568 6.70782 10.881ZM18.5063 2.85836L19.5539 5.02398L21.9375 5.34742C22.4086 5.4107 22.5774 5.99429 22.2539 6.3107L20.5172 7.97711L20.9461 10.3396C21.0305 10.8037 20.5383 11.1552 20.1305 10.9302L18 9.79117L15.8836 10.9302C15.4758 11.1482 14.9625 10.8107 15.075 10.3044L15.4969 7.97007L13.7531 6.30367C13.4156 5.98023 13.5984 5.40367 14.0766 5.34039L16.4461 5.01695L17.4938 2.85836C17.7047 2.42945 18.3023 2.43648 18.5063 2.85836ZM18.675 5.78335L18 4.39117L17.332 5.78335C17.2547 5.94507 17.093 6.07164 16.9031 6.09976L15.3703 6.30367L16.4883 7.37242C16.6219 7.49898 16.6852 7.68179 16.65 7.87164L16.3758 9.39039L17.7328 8.66617C17.8945 8.58179 18.0914 8.56773 18.2672 8.66617L19.6242 9.39742L19.357 7.90679C19.3148 7.72398 19.3641 7.52007 19.5117 7.37242L20.6297 6.30367L19.118 6.09273C18.9281 6.07867 18.7594 5.95914 18.675 5.78335ZM30.4664 7.95601L31.5141 10.1216L33.8906 10.4451C34.3617 10.5084 34.5375 11.0919 34.207 11.4013L32.4703 13.0677L32.8992 15.4302C32.9836 15.8943 32.4914 16.2459 32.0836 16.0209L29.9672 14.8818L27.8508 16.0209C27.443 16.2388 26.9297 15.9013 27.0352 15.3951L27.457 13.0607L25.7203 11.3943C25.3828 11.0709 25.5656 10.4943 26.0438 10.431L28.4133 10.1076L29.4609 7.94195C29.6649 7.5271 30.2695 7.53414 30.4664 7.95601ZM30.6352 10.881L29.9672 9.48882L29.2922 10.881C29.2148 11.0427 29.0602 11.1693 28.8633 11.1974L27.3375 11.4013L28.4484 12.4701C28.575 12.5966 28.6453 12.7794 28.6102 12.9693L28.3359 14.488L29.693 13.7638C29.8547 13.6795 30.0586 13.6654 30.2274 13.7638L31.5914 14.4951L31.3242 13.0044C31.282 12.8216 31.3313 12.6177 31.4789 12.4701L32.5898 11.4013L31.0781 11.1974C30.8953 11.1763 30.7195 11.0568 30.6352 10.881ZM15.3914 22.3138C15.2367 22.0466 15.3281 21.7021 15.5953 21.5474C15.8625 21.3927 16.207 21.4841 16.3617 21.7513L17.1 23.031L19.7227 20.4084C19.9406 20.1904 20.2992 20.1904 20.5172 20.4084C20.7352 20.6263 20.7352 20.9849 20.5172 21.2029L17.3742 24.3459C17.1141 24.606 16.6781 24.5498 16.4953 24.2334L15.3914 22.3138ZM18 16.3724C21.0586 16.3724 23.5406 18.8544 23.5406 21.913C23.5406 24.9716 21.0586 27.4537 18 27.4537C14.9414 27.4537 12.4594 24.9716 12.4594 21.913C12.4594 18.8544 14.9414 16.3724 18 16.3724ZM21.1219 18.7912C19.3992 17.0685 16.6008 17.0685 14.8781 18.7912C13.1555 20.5138 13.1555 23.3123 14.8781 25.0349C16.6008 26.7576 19.3992 26.7576 21.1219 25.0349C22.8445 23.3052 22.8445 20.5138 21.1219 18.7912ZM18 12.8919C22.9781 12.8919 27.0141 16.9279 27.0141 21.906C27.0141 23.7904 26.4375 25.5412 25.4461 26.9896L28.1391 31.6513C28.3992 32.0873 28.0406 32.5794 27.5766 32.5091L24.8203 32.0732L23.3438 33.8873C23.0836 34.2248 22.5984 34.1685 22.4086 33.831L20.5242 30.5685C18.8789 31.0466 17.1141 31.0466 15.4758 30.5685L13.5914 33.831C13.4016 34.1685 12.9164 34.2248 12.6563 33.8873L11.1797 32.0732L8.42344 32.5091C7.95235 32.5865 7.62188 32.0732 7.84688 31.6724L10.5539 26.9896C8.10704 23.4107 8.56407 18.5943 11.6297 15.5287C13.2539 13.9044 15.5109 12.8919 18 12.8919ZM24.7008 27.9388C23.843 28.8951 22.7883 29.6615 21.593 30.1818L22.9711 32.5654L24.1523 31.1169C24.2859 30.9482 24.4899 30.8849 24.6867 30.9201L26.5852 31.2224L24.7008 27.9388ZM14.4 30.1818C13.2117 29.6615 12.157 28.8951 11.2992 27.9459L9.40782 31.2224L11.3063 30.9201C11.4961 30.8849 11.707 30.9552 11.8406 31.1169L13.0219 32.5654L14.4 30.1818ZM23.5828 16.3302C20.5031 13.2505 15.5039 13.2505 12.4242 16.3302C9.34454 19.4099 9.34454 24.4091 12.4242 27.4888C15.5109 30.5685 20.5031 30.5685 23.5828 27.4888C26.6625 24.4091 26.6625 19.4099 23.5828 16.3302Z" fill="#2A7D2E"/>
</svg>
