<svg width="36" height="37" viewBox="0 0 36 37" fill="none" xmlns="http://www.w3.org/2000/svg">
<path d="M2.25 33.2334C2.25026 33.0097 2.33923 32.7952 2.49741 32.6371C2.65559 32.4789 2.87005 32.3899 3.09375 32.3896H4.5V31.2646H3.09375C2.5716 31.2646 2.07085 31.4721 1.70163 31.8413C1.33242 32.2105 1.125 32.7113 1.125 33.2334C1.125 33.7555 1.33242 34.2563 1.70163 34.6255C2.07085 34.9947 2.5716 35.2021 3.09375 35.2021H13.5V34.0771H3.09375C2.87005 34.0769 2.65559 33.9879 2.49741 33.8297C2.33923 33.6716 2.25026 33.4571 2.25 33.2334Z" fill="#2A7D2E"/>
<path d="M22.0999 3.30664L24.3495 1.05697L25.1449 1.85235L22.8952 4.10202L22.0999 3.30664Z" fill="#2A7D2E"/>
<path d="M23.2244 6.1189L26.5988 2.74442L27.3942 3.53979L24.0197 6.91427L23.2244 6.1189Z" fill="#2A7D2E"/>
<path d="M23.7864 9.49365L27.1609 6.11917L27.9562 6.91455L24.5818 10.289L23.7864 9.49365Z" fill="#2A7D2E"/>
<path d="M27.1165 24.0687C27.3581 23.8272 27.5239 23.5205 27.5938 23.1861C27.6636 22.8518 27.6344 22.5043 27.5097 22.1863C27.385 21.8683 27.1702 21.5936 26.8916 21.3959C26.6131 21.1981 26.283 21.086 25.9416 21.0731C25.925 20.6308 25.7419 20.2112 25.429 19.8982C25.116 19.5853 24.6964 19.4022 24.2541 19.3856C24.2375 18.9433 24.0544 18.5237 23.7415 18.2107C23.4285 17.8978 23.0089 17.7147 22.5666 17.6981C22.5548 17.3608 22.4451 17.0342 22.2509 16.7581C22.6207 16.6283 22.9565 16.4168 23.2333 16.1394L23.5133 15.8594L24.8302 18.0541L25.7948 17.4753L24.1073 14.6628C24.0633 14.5895 24.0032 14.5272 23.9316 14.4806C23.8599 14.434 23.7785 14.4044 23.6937 14.3939C23.6089 14.3835 23.5228 14.3925 23.4419 14.4203C23.3611 14.4482 23.2877 14.494 23.2272 14.5545L22.4378 15.3439C22.1905 15.5911 21.8645 15.7441 21.5163 15.7764C21.1681 15.8088 20.8195 15.7184 20.5308 15.521L22.8326 13.1836C22.9365 13.0774 23.0605 12.9931 23.1974 12.9354C23.3343 12.8778 23.4814 12.848 23.6299 12.8479C23.7785 12.8462 23.926 12.8745 24.0634 12.9311C24.2008 12.9877 24.3254 13.0715 24.4297 13.1774L28.5227 17.2704C28.5751 17.3225 28.6167 17.3845 28.6449 17.4528C28.6732 17.5211 28.6877 17.5943 28.6875 17.6682V21.1112C28.6869 21.3329 28.7303 21.5525 28.8151 21.7574C28.8999 21.9622 29.0246 22.1481 29.1818 22.3045L34.4772 27.6L35.2727 26.8045L29.9772 21.509C29.9248 21.4569 29.8833 21.3949 29.855 21.3266C29.8267 21.2583 29.8123 21.1851 29.8125 21.1112V17.6682C29.8131 17.4465 29.7697 17.2269 29.6849 17.0221C29.6 16.8173 29.4754 16.6313 29.3182 16.475L25.2252 12.3819C25.0168 12.1723 24.7689 12.0061 24.4958 11.893C24.2228 11.7799 23.93 11.7221 23.6344 11.7229C23.6315 11.7229 23.6285 11.7229 23.6256 11.7229C23.3285 11.7232 23.0345 11.7827 22.7607 11.898C22.4869 12.0132 22.2388 12.1819 22.031 12.3942L21.9474 12.4791L19.358 9.88972L21.5397 7.70794C21.6964 7.55124 21.8207 7.36522 21.9055 7.16049C21.9903 6.95575 22.034 6.73632 22.034 6.51472C22.034 6.29312 21.9903 6.07369 21.9055 5.86896C21.8207 5.66422 21.6964 5.4782 21.5397 5.3215L18.0682 1.84996C17.9115 1.69326 17.7255 1.56897 17.5208 1.48416C17.316 1.39936 17.0966 1.35571 16.875 1.35571C16.6534 1.35571 16.434 1.39936 16.2292 1.48416C16.0245 1.56897 15.8385 1.69326 15.6818 1.84996L8.83523 8.6965C8.67854 8.8532 8.55424 9.03922 8.46944 9.24396C8.38463 9.44869 8.34099 9.66812 8.34099 9.88972C8.34099 10.1113 8.38463 10.3308 8.46944 10.5355C8.55424 10.7402 8.67854 10.9262 8.83523 11.0829L12.3068 14.5545C12.5489 14.7978 12.86 14.9608 13.1978 15.0214L12.375 15.8442L10.5227 13.992C10.4172 13.8865 10.2742 13.8272 10.125 13.8272C9.97581 13.8272 9.83274 13.8865 9.72725 13.992L9.233 14.4862C8.95413 14.7655 8.75361 15.1132 8.65153 15.4945C8.54946 15.8757 8.54943 16.2771 8.65144 16.6583C8.29467 16.7114 7.96456 16.8782 7.71023 17.134L5.159 19.6852C4.94941 19.8937 4.78325 20.1416 4.67013 20.4147C4.55701 20.6878 4.49918 20.9806 4.49999 21.2762V22.1283C4.49918 22.4238 4.55701 22.7167 4.67013 22.9897C4.78325 23.2628 4.94941 23.5108 5.159 23.7192L5.39201 23.9522L4.82951 24.5147H3.37499C3.2649 24.5147 3.15724 24.547 3.06534 24.6076C2.97344 24.6682 2.90134 24.7545 2.85798 24.8556L1.17048 28.7931C1.1262 28.8965 1.11389 29.0107 1.13515 29.1211C1.15641 29.2315 1.21026 29.333 1.28975 29.4125L2.41475 30.5375C2.49424 30.617 2.59573 30.6708 2.70612 30.6921C2.81651 30.7133 2.93074 30.701 3.03407 30.6567L6.97157 28.9692C7.07275 28.9259 7.15899 28.8538 7.21959 28.7619C7.28019 28.67 7.31249 28.5623 7.31249 28.4522V26.9977L7.87499 26.4352L7.94324 26.5035C8.20379 26.7654 8.51372 26.9731 8.85509 27.1145C9.19645 27.256 9.56248 27.3282 9.93197 27.3272H11.017L19.2897 35.6L20.0852 34.8045L11.6477 26.367C11.5955 26.3147 11.5335 26.2733 11.4652 26.245C11.397 26.2168 11.3239 26.2022 11.25 26.2022H9.93197C9.71027 26.2028 9.49066 26.1594 9.28584 26.0746C9.08102 25.9898 8.89506 25.8652 8.73872 25.708L5.95447 22.9237C5.84968 22.8195 5.76661 22.6955 5.71005 22.559C5.65349 22.4224 5.62458 22.276 5.62499 22.1283V21.2762C5.62458 21.1284 5.65349 20.982 5.71005 20.8455C5.76661 20.7089 5.84968 20.5849 5.95447 20.4807L8.5057 17.9295C8.55782 17.8771 8.61981 17.8355 8.68809 17.8073C8.75637 17.779 8.82958 17.7645 8.90348 17.7647H9.32951L11.9772 20.4125L12.7727 19.617L10.0285 16.8727C9.81751 16.6617 9.69899 16.3756 9.69899 16.0772C9.69899 15.7789 9.81751 15.4927 10.0285 15.2817L10.125 15.1852L15.0227 20.0829C15.0751 20.1351 15.1167 20.197 15.1449 20.2653C15.1732 20.3336 15.1877 20.4068 15.1875 20.4807V23.9522C15.1875 24.0261 15.202 24.0992 15.2303 24.1675C15.2586 24.2357 15.3 24.2977 15.3522 24.35L26.6022 35.6L27.3977 34.8045L16.3125 23.7192V20.4807C16.3134 20.1135 16.1936 19.7561 15.9715 19.4637L17.321 18.1142C17.637 17.7975 17.8145 17.3684 17.8145 16.921C17.8145 16.4736 17.637 16.0445 17.321 15.7278L16.0995 14.5062C15.8567 14.2633 15.5453 14.1007 15.2072 14.0405L16.3125 12.9352L19.5227 16.1394C19.5995 16.2159 19.681 16.2876 19.7667 16.354C19.6975 16.4056 19.632 16.4622 19.571 16.5232L17.321 18.7732C17.0794 19.0147 16.9135 19.3214 16.8437 19.6558C16.7739 19.9902 16.8031 20.3376 16.9278 20.6556C17.0525 20.9736 17.2673 21.2483 17.5458 21.4461C17.8244 21.6438 18.1545 21.756 18.4959 21.7688C18.5124 22.2111 18.6956 22.6308 19.0085 22.9437C19.3214 23.2567 19.7411 23.4398 20.1834 23.4563C20.194 23.7306 20.2686 23.9985 20.4014 24.2387C20.5342 24.4788 20.7214 24.6845 20.948 24.8393C21.1746 24.9941 21.4343 25.0937 21.7064 25.13C21.9784 25.1663 22.2551 25.1385 22.5144 25.0486C22.5914 25.2894 22.7195 25.5108 22.8899 25.6975C23.0603 25.8843 23.269 26.0321 23.5017 26.1309C23.7345 26.2296 23.9858 26.277 24.2385 26.2697C24.4912 26.2625 24.7394 26.2008 24.9661 26.0888L34.4772 35.6L35.2727 34.8045L25.8267 25.3585L27.1165 24.0687ZM6.18749 24.7477L7.07951 25.6397L6.35225 26.367C6.30001 26.4192 6.25857 26.4812 6.2303 26.5495C6.20203 26.6177 6.18748 26.6909 6.18749 26.7647V28.0813L2.94096 29.4727L2.35453 28.8862L3.74591 25.6397H5.06249C5.13636 25.6397 5.2095 25.6252 5.27775 25.5969C5.34599 25.5686 5.408 25.5272 5.46023 25.475L6.18749 24.7477ZM16.4772 2.64544C16.5828 2.54011 16.7259 2.48095 16.875 2.48095C17.0241 2.48095 17.1672 2.54011 17.2727 2.64544L20.7443 6.11698C20.8496 6.22255 20.9088 6.36559 20.9088 6.51472C20.9088 6.66385 20.8496 6.80689 20.7443 6.91246L19.6875 7.96924L15.4205 3.70222L16.4772 2.64544ZM13.1022 13.759L9.63071 10.2875C9.52538 10.1819 9.46622 10.0389 9.46622 9.88972C9.46622 9.74059 9.52538 9.59755 9.63071 9.49198L10.6875 8.4352L14.9545 12.7022L13.8977 13.759C13.7922 13.8643 13.6491 13.9235 13.5 13.9235C13.3509 13.9235 13.2078 13.8643 13.1022 13.759ZM15.304 15.3017L16.5255 16.5232C16.631 16.6287 16.6902 16.7718 16.6902 16.921C16.6902 17.0701 16.631 17.2132 16.5255 17.3187L15.1875 18.6567L13.1705 16.6397L14.5085 15.3017C14.614 15.1962 14.7571 15.137 14.9062 15.137C15.0554 15.137 15.1985 15.1962 15.304 15.3017ZM15.75 11.9067L11.483 7.63972L14.625 4.4977L18.892 8.76472L15.75 11.9067ZM19.7147 14.7464L17.108 12.1397L18.5625 10.6852L21.158 13.2807L19.7147 14.7464ZM18.5625 20.6455C18.4377 20.6455 18.3158 20.6085 18.2121 20.5392C18.1083 20.4699 18.0275 20.3714 17.9797 20.2561C17.932 20.1408 17.9195 20.014 17.9438 19.8917C17.9682 19.7693 18.0283 19.6569 18.1165 19.5687L20.3665 17.3187C20.4848 17.2004 20.6452 17.134 20.8125 17.134C20.9798 17.134 21.1402 17.2004 21.2585 17.3187C21.3768 17.437 21.4432 17.5974 21.4432 17.7647C21.4432 17.932 21.3768 18.0924 21.2585 18.2107L19.0085 20.4607C18.9501 20.5195 18.8806 20.5661 18.804 20.5978C18.7274 20.6295 18.6454 20.6457 18.5625 20.6455ZM20.25 22.333C20.1252 22.333 20.0033 22.296 19.8996 22.2267C19.7958 22.1574 19.715 22.0589 19.6672 21.9436C19.6195 21.8283 19.607 21.7015 19.6313 21.5792C19.6557 21.4568 19.7158 21.3444 19.804 21.2562L22.054 19.0062C22.1723 18.8879 22.3327 18.8215 22.5 18.8215C22.6673 18.8215 22.8277 18.8879 22.946 19.0062C23.0643 19.1245 23.1307 19.2849 23.1307 19.4522C23.1307 19.6195 23.0643 19.7799 22.946 19.8982L20.696 22.1482C20.6376 22.207 20.5681 22.2536 20.4915 22.2853C20.4149 22.317 20.3328 22.3332 20.25 22.333ZM22.3835 23.8357C22.2652 23.954 22.1048 24.0205 21.9375 24.0205C21.7702 24.0205 21.6098 23.954 21.4915 23.8357C21.3732 23.7174 21.3067 23.557 21.3067 23.3897C21.3067 23.2224 21.3732 23.062 21.4915 22.9437L23.7415 20.6937C23.8598 20.5754 24.0202 20.509 24.1875 20.509C24.3548 20.509 24.5152 20.5754 24.6335 20.6937C24.7518 20.812 24.8182 20.9724 24.8182 21.1397C24.8182 21.307 24.7518 21.4674 24.6335 21.5857L22.3835 23.8357ZM24.6335 24.9607C24.5152 25.079 24.3548 25.1455 24.1875 25.1455C24.0202 25.1455 23.8598 25.079 23.7415 24.9607C23.6232 24.8424 23.5567 24.682 23.5567 24.5147C23.5567 24.3474 23.6232 24.187 23.7415 24.0687L25.429 22.3812C25.4875 22.3226 25.5571 22.2762 25.6336 22.2445C25.7101 22.2128 25.7922 22.1965 25.875 22.1965C25.9578 22.1965 26.0398 22.2128 26.1164 22.2445C26.1929 22.2762 26.2624 22.3226 26.321 22.3812C26.3796 22.4398 26.426 22.5093 26.4577 22.5858C26.4894 22.6624 26.5057 22.7444 26.5057 22.8272C26.5057 22.9101 26.4894 22.9921 26.4577 23.0686C26.426 23.1451 26.3796 23.2147 26.321 23.2732L24.6335 24.9607Z" fill="#2A7D2E"/>
<path d="M4.58154 9.04736L5.54567 8.46799L7.23484 11.2789L6.27071 11.8583L4.58154 9.04736Z" fill="#2A7D2E"/>
<path d="M1.5813 12.689L1.8018 11.5853L4.61549 12.1475L4.39499 13.2511L1.5813 12.689Z" fill="#2A7D2E"/>
<path d="M2.5293 16.1487L5.3402 14.4595L5.91958 15.4236L3.10867 17.1128L2.5293 16.1487Z" fill="#2A7D2E"/>
<path d="M8.82886 29.5391L9.18436 28.4714L10.8724 29.0335L10.5169 30.1012L8.82886 29.5391Z" fill="#2A7D2E"/>
<path d="M6.34814 32.2222L7.14352 31.4268L8.26833 32.5516L7.47295 33.347L6.34814 32.2222Z" fill="#2A7D2E"/>
<path d="M9.1604 31.6602L9.95578 30.8648L11.0806 31.9896L10.2852 32.785L9.1604 31.6602Z" fill="#2A7D2E"/>
<path d="M32.0625 17.2021H33.1875C33.1867 16.4565 32.8901 15.7416 32.3628 15.2143C31.8355 14.6871 31.1207 14.3905 30.375 14.3896V15.5146C30.8224 15.5151 31.2513 15.6931 31.5677 16.0095C31.884 16.3258 32.062 16.7547 32.0625 17.2021Z" fill="#2A7D2E"/>
<path d="M33.75 14.9521H34.875C34.8743 14.3556 34.6371 13.7837 34.2152 13.3619C33.7934 12.9401 33.2215 12.7028 32.625 12.7021V13.8271C32.9233 13.8275 33.2092 13.9461 33.4201 14.157C33.631 14.3679 33.7497 14.6539 33.75 14.9521Z" fill="#2A7D2E"/>
</svg>
