<svg width="34" height="35" viewBox="0 0 34 35" fill="none" xmlns="http://www.w3.org/2000/svg">
<path d="M22.4073 26.801C20.6585 28.0481 18.5569 28.7037 16.4092 28.6724C14.5331 28.6427 12.6782 28.2697 10.9366 27.5717C10.5355 28.5062 10.2078 29.4706 9.95624 30.456C9.89057 30.7238 9.72336 30.9556 9.48993 31.1024C9.2565 31.2492 8.97515 31.2995 8.70532 31.2426C8.4355 31.1858 8.19833 31.0263 8.04395 30.7978C7.88957 30.5693 7.83006 30.2898 7.87799 30.0182C9.72576 23.3334 13.7974 17.4783 19.421 13.4192C19.6464 13.2501 19.9298 13.1775 20.2088 13.2173C20.4877 13.2572 20.7394 13.4062 20.9085 13.6317C21.0776 13.8571 21.1502 14.1405 21.1103 14.4194C21.0705 14.6984 20.9214 14.9501 20.696 15.1192C16.9745 17.8987 13.9414 21.4961 11.8305 25.6337C14.0603 26.4837 17.9562 27.3832 21.1663 25.0755C27.8941 20.2362 25.762 10.5377 24.5366 6.60216C23.5147 7.67178 22.256 8.48651 20.8617 8.98074C19.6661 9.39016 18.5738 9.67774 17.517 9.95824C15.8883 10.3152 14.3086 10.8674 12.8122 11.603C7.59183 14.4165 7.58191 20.1951 8.84558 23.3939C8.93946 23.6537 8.92848 23.9398 8.81496 24.1916C8.70145 24.4435 8.49433 24.6412 8.2375 24.7429C7.98068 24.8446 7.69435 24.8423 7.4392 24.7364C7.18406 24.6306 6.98016 24.4295 6.87074 24.1759C5.32658 20.2716 5.36341 13.2038 11.805 9.73158C13.4478 8.91509 15.1836 8.30096 16.9744 7.90266C17.9944 7.63207 19.0498 7.35299 20.1676 6.97049C21.6077 6.45508 22.8528 5.50638 23.7319 4.25474C23.8706 4.04882 24.0643 3.88588 24.2909 3.7844C24.5175 3.68291 24.768 3.64694 25.014 3.68057C25.26 3.7142 25.4916 3.81607 25.6827 3.97464C25.8737 4.13322 26.0165 4.34215 26.0949 4.57774C27.0427 7.13907 31.3649 20.3594 22.4073 26.801Z" fill="#2A7D2E"/>
</svg>
