<svg width="31" height="31" viewBox="0 0 31 31" fill="none" xmlns="http://www.w3.org/2000/svg">
<g clip-path="url(#clip0_103_3022)">
<path d="M29.7721 15.7161C29.125 15.7161 28.6004 15.1915 28.6004 14.5443C28.6004 8.08334 23.344 2.82692 16.883 2.82692C16.2358 2.82692 15.7113 2.30233 15.7113 1.65517C15.7113 1.00802 16.2358 0.483435 16.883 0.483435C24.441 0.327301 31.1001 6.98642 30.9438 14.5444C30.9439 15.1915 30.4193 15.7161 29.7721 15.7161ZM21.57 14.5443C21.57 11.9599 19.4674 9.85735 16.883 9.85735C16.2358 9.85735 15.7113 10.3819 15.7113 11.0291C15.7113 11.6762 16.2358 12.2008 16.883 12.2008C18.1752 12.2008 19.2265 13.2521 19.2265 14.5443C19.2265 15.1915 19.7511 15.7161 20.3982 15.7161C21.0454 15.7161 21.57 15.1915 21.57 14.5443ZM26.2569 14.5443C26.2569 9.37554 22.0518 5.17039 16.883 5.17039C16.2358 5.17039 15.7113 5.69498 15.7113 6.34213C15.7113 6.98929 16.2358 7.51387 16.883 7.51387C20.7596 7.51387 23.9134 10.6677 23.9134 14.5443C23.9134 15.1915 24.438 15.7161 25.0852 15.7161C25.7323 15.7161 26.2569 15.1915 26.2569 14.5443ZM21.5955 30.4803C21.8972 30.4735 22.1847 30.3507 22.398 30.1374L26.6163 25.9191C27.0739 25.4615 27.0739 24.7196 26.6163 24.262L20.245 17.8907C19.7874 17.4331 19.0454 17.4331 18.5879 17.8907L16.9988 19.4798C15.4092 18.7156 12.6827 15.9791 11.9434 14.3925L13.5165 12.8193C13.9704 12.383 13.9704 11.5986 13.5165 11.1623L7.10682 4.75249C6.6492 4.29487 5.90731 4.29487 5.44975 4.75249L1.29007 8.91217C1.07517 9.12707 0.95214 9.41707 0.947043 9.72096C0.928881 18.3093 12.576 30.3734 21.5436 30.4807C21.5685 30.4807 21.586 30.4804 21.5955 30.4803ZM6.27828 7.23816L11.0309 11.9908L9.72654 13.2952C9.43103 13.5907 9.31526 14.0213 9.42276 14.4252C10.038 16.8994 14.5337 21.3891 16.9596 22.0041C17.3638 22.1127 17.7957 21.9972 18.0919 21.701L19.4164 20.3764L24.1306 25.0906L21.1075 28.1136C14.6091 27.733 4.15796 18.6988 3.31771 10.1987L6.27828 7.23816Z" fill="white"/>
</g>
<defs>
<clipPath id="clip0_103_3022">
<rect width="30" height="30" fill="white" transform="translate(0.946777 0.480743)"/>
</clipPath>
</defs>
</svg>
