<svg width="36" height="55" viewBox="0 0 36 55" fill="none" xmlns="http://www.w3.org/2000/svg">
<path d="M17.9099 0C8.02535 0 0 8.02535 0 17.9099V37.0901C0 46.9746 8.02535 55 17.9099 55C27.7944 55 35.8197 46.9746 35.8197 37.0901V17.9099C35.8197 8.02535 27.7944 0 17.9099 0ZM18.6845 40.8394V38.2366C23.9521 38.4225 28.8479 40.5296 32.6282 44.2479C32.2253 45.0535 31.7915 45.8282 31.2648 46.5408C27.9493 43.0704 23.4563 41.0253 18.6845 40.8394ZM4.55492 46.5408C4.02816 45.8282 3.59436 45.0535 3.19155 44.2479C6.97183 40.5296 11.8676 38.4225 17.1352 38.2366V40.8394C12.3634 41.0253 7.87042 43.0704 4.55492 46.5408ZM5.88732 37.0901V31.6366C6.25915 31.8535 6.63098 32.0704 7.00281 32.2873C8.95492 33.2789 11.031 33.7746 13.2 33.7746C14.5324 33.7746 15.8338 33.5887 17.1042 33.1859V36.6873C13.2 36.8113 9.48169 37.9268 6.19718 39.9099C6.01127 39.0113 5.88732 38.0507 5.88732 37.0901ZM11.8056 5.79436L10.4113 3.34648C11.6197 2.72676 12.9521 2.23098 14.3155 1.92113L14.8113 4.67887C13.7577 4.95775 12.7662 5.32958 11.8056 5.79436ZM17.9099 5.88732C24.5408 5.88732 29.9324 11.2789 29.9324 17.9099V21.6901C27.9183 21.7521 25.9972 22.2479 24.169 23.1775C23.5183 23.5183 22.8986 23.8901 22.3099 24.3239C22.7746 22.9296 23.0225 21.4732 23.0225 20.0169C23.0225 16.1127 21.3493 12.3944 18.4366 9.82253L17.9099 9.35774L17.3831 9.82253C14.4704 12.4253 12.7972 16.1437 12.7972 20.0169C12.7972 21.5042 13.0451 22.9606 13.5099 24.3239C12.9211 23.8901 12.3014 23.5183 11.6507 23.1775C9.82253 22.2479 7.90141 21.7521 5.88732 21.6901V17.9099C5.88732 11.2789 11.2789 5.88732 17.9099 5.88732ZM21.0084 4.70986L21.5042 1.95211C22.8676 2.26197 24.2 2.75775 25.4084 3.37747L24.0141 5.82535C23.0535 5.32958 22.062 4.95775 21.0084 4.70986ZM5.45351 23.2394C7.37464 23.2394 9.2338 23.6732 10.938 24.5718C13.4479 25.8732 15.431 27.9803 16.5465 30.5521L2.81971 23.5183C3.68732 23.3324 4.55492 23.2394 5.45351 23.2394ZM18.6845 27.7324V12.3014C20.4817 14.4704 21.4732 17.1972 21.4732 20.0169C21.4732 22.8366 20.4817 25.5634 18.6845 27.7324ZM17.1352 27.7324C15.338 25.5634 14.3465 22.8366 14.3465 20.0169C14.3465 17.1972 15.338 14.4704 17.1352 12.3014V27.7324ZM24.8507 24.5718C26.5859 23.7042 28.4141 23.2394 30.3352 23.2394C31.2338 23.2394 32.1014 23.3324 32.969 23.5183L19.2422 30.5521C20.3577 27.9803 22.3408 25.8423 24.8507 24.5718ZM31.4817 21.7211V18.6845H34.3014V22.2479C33.3718 22 32.4113 21.8141 31.4817 21.7211ZM31.4507 17.1352C31.3887 16.0507 31.2028 14.9972 30.8929 14.0056L33.5268 13.0451C33.9296 14.3465 34.1775 15.7099 34.2394 17.1352H31.4507ZM30.3662 12.5493C29.9324 11.5577 29.4056 10.6592 28.7859 9.79155L30.9239 7.99437C31.7606 9.07887 32.4732 10.2873 33 11.5887L30.3662 12.5493ZM5.45351 12.5493L2.81971 11.5887C3.34647 10.2873 4.05915 9.10986 4.89577 7.99437L7.0338 9.79155C6.41408 10.6592 5.88732 11.5887 5.45351 12.5493ZM4.92676 14.0056C4.6169 14.9972 4.43098 16.0507 4.36901 17.1352H1.5493C1.61127 15.7099 1.85915 14.3465 2.26197 13.0451L4.92676 14.0056ZM4.33803 18.6845V21.7211C3.37746 21.7831 2.44789 21.969 1.51831 22.2479V18.6845H4.33803ZM15.8648 31.9155C14.9972 32.1014 14.1296 32.1944 13.231 32.1944C11.3099 32.1944 9.4507 31.7606 7.74648 30.862C5.23662 29.5606 3.25352 27.4535 2.13803 24.8817L15.8648 31.9155ZM29.5915 39.9099C26.338 37.9268 22.5887 36.8113 18.6845 36.6873V33.1859C19.9549 33.5577 21.2563 33.7746 22.5887 33.7746C24.7577 33.7746 26.8338 33.2789 28.7859 32.2873C29.1577 32.1014 29.5296 31.8845 29.9014 31.6366V37.0901C29.9324 38.0507 29.8084 39.0113 29.5915 39.9099ZM28.1042 30.893C26.369 31.7606 24.5408 32.2253 22.6197 32.2253C21.7211 32.2253 20.8535 32.1324 19.9859 31.9465L33.7127 24.9127C32.5972 27.4845 30.6141 29.5915 28.1042 30.893ZM29.9324 6.8169L27.7634 8.61408C27.0507 7.83944 26.2141 7.15774 25.3465 6.56901L26.7408 4.12113C27.9183 4.89578 29.0028 5.79437 29.9324 6.8169ZM19.9859 1.67324L19.4901 4.43099C18.9634 4.36901 18.4366 4.33803 17.9099 4.33803C17.3831 4.33803 16.8563 4.36901 16.3296 4.43099L15.8338 1.67324C16.5155 1.58028 17.1972 1.5493 17.9099 1.5493C18.6225 1.5493 19.3042 1.58028 19.9859 1.67324ZM9.07887 4.15212L10.4732 6.6C9.57464 7.18873 8.76901 7.87042 8.05634 8.64507L5.88732 6.84789C6.8169 5.79437 7.9014 4.89578 9.07887 4.15212ZM1.5493 27.1437C2.29296 28.3831 3.25351 29.5296 4.36901 30.4592V37.0901C4.36901 38.3606 4.55493 39.6 4.89577 40.8084C4.09014 41.3972 3.31549 42.0169 2.57183 42.6986C1.92112 40.9324 1.58027 39.0422 1.58027 37.0591V27.1437H1.5493ZM18.6845 46.5408C21.938 46.7268 24.9746 48.1521 27.2366 50.538C26.493 51.0338 25.7183 51.4986 24.9127 51.8704C23.2084 50.2592 21.0394 49.2986 18.6845 49.1127V46.5408ZM17.1352 49.1437C14.7803 49.3296 12.6113 50.2592 10.907 51.9014C10.1014 51.5296 9.32675 51.0648 8.58309 50.569C10.8141 48.1831 13.8507 46.7577 17.1352 46.5718V49.1437ZM12.5183 52.5521C14.0366 51.3127 15.9268 50.662 17.9099 50.662C19.893 50.662 21.7831 51.3127 23.3014 52.5521C21.5972 53.1408 19.8 53.4817 17.9099 53.4817C16.0197 53.4507 14.1915 53.1408 12.5183 52.5521ZM28.4761 49.6084C25.7493 46.6648 21.969 44.9606 17.9099 44.9606C13.8817 44.9606 10.0704 46.6338 7.34366 49.6084C6.69295 49.0507 6.07324 48.431 5.51549 47.7803C8.70704 44.3408 13.2 42.3577 17.9099 42.3577C22.6197 42.3577 27.1127 44.3408 30.3042 47.7803C29.7465 48.431 29.1268 49.0507 28.4761 49.6084ZM33.2789 42.7296C32.5352 42.0479 31.7606 41.3972 30.9549 40.8394C31.2958 39.631 31.4817 38.3915 31.4817 37.1211V30.4901C32.5972 29.5296 33.5268 28.4141 34.3014 27.1746V37.1211C34.2704 39.0732 33.9296 40.9634 33.2789 42.7296Z" fill="white"/>
<path d="M26.4019 18.4366C27.1766 18.4366 27.8273 17.8169 27.8273 17.0113C27.8273 16.2366 27.2075 15.5859 26.4019 15.5859C25.6273 15.5859 24.9766 16.2057 24.9766 17.0113C24.9766 17.8169 25.5963 18.4366 26.4019 18.4366Z" fill="white"/>
<path d="M8.02344 17.0425C8.02344 17.8172 8.64316 18.4679 9.44879 18.4679C10.2234 18.4679 10.8741 17.8482 10.8741 17.0425C10.8741 16.2679 10.2544 15.6172 9.44879 15.6172C8.64316 15.6172 8.02344 16.2369 8.02344 17.0425Z" fill="white"/>
</svg>
