<svg width="1920" height="134" viewBox="0 0 1920 134" fill="none" xmlns="http://www.w3.org/2000/svg">
<path d="M1912.16 124.844C1910.25 117.072 1906.24 110.452 1901.14 105.548C1905.11 88.7641 1910.18 72.1607 1916.34 55.8719C1910 67.2708 1904.21 79.0214 1898.96 91.0634C1898.93 90.5314 1898.91 89.9993 1898.88 89.4673C1898.13 78.9705 1896.14 68.8993 1897.56 58.569C1894.48 68.5431 1894.8 79.3405 1893.88 89.4303C1893.53 93.2561 1892.96 97.0311 1892.04 100.612C1891.61 98.7521 1891.13 96.9248 1890.59 95.1298C1889.34 90.795 1887.58 86.7055 1886.08 82.5234L1881.41 70.1067L1883.66 83.1618C1884.3 87.1958 1885.15 91.2021 1885.59 95.2177C1882.55 87.7834 1878.16 81.1957 1873.22 75.2741C1873.18 75.14 1873.12 75.0104 1873.08 74.8763C1874.51 69.0935 1876.51 63.408 1879.13 57.9491C1875.38 63.3478 1872.22 69.2184 1869.7 75.4129C1871.8 68.8576 1874.06 62.3347 1876.5 55.8719C1871.23 65.3509 1866.34 75.0752 1861.81 85.003C1862.02 80.0067 1861.77 75.0243 1861.02 70.153C1860.94 75.8894 1860.17 81.5473 1858.83 87.0155C1857.99 77.3976 1856.41 68.0943 1857.72 58.569C1854.64 68.5431 1854.96 79.3405 1854.04 89.4303C1853.69 93.2561 1853.13 97.0311 1852.2 100.612C1851.77 98.7521 1851.29 96.9248 1850.75 95.1298C1850.13 92.9647 1849.37 90.8598 1848.59 88.7734C1848.61 88.5744 1848.65 88.3755 1848.66 88.1766C1848.9 85.1603 1848.77 82.1348 1848.31 79.2064C1849.05 74.4877 1850.51 69.7967 1852.81 65.3648C1850.55 67.8167 1848.54 70.5601 1846.84 73.5208C1846.64 72.9564 1846.48 72.3689 1846.25 71.8184C1846.35 72.6511 1846.4 73.4745 1846.42 74.298C1845.74 75.5147 1845.13 76.7684 1844.56 78.0499L1841.57 70.1067L1843.41 80.7978C1842.68 82.7316 1842.04 84.7162 1841.54 86.7517C1839.86 83.9066 1838.01 81.2003 1836.03 78.6142C1835.92 75.7691 1835.67 72.9426 1835.24 70.153C1835.21 72.4661 1835.06 74.7652 1834.81 77.0459C1834.33 76.4399 1833.85 75.8293 1833.35 75.2371C1833.82 76.1069 1834.28 76.9904 1834.73 77.874C1834.42 80.4508 1833.99 82.9999 1833.42 85.5073C1832.43 82.1394 1831.7 78.6698 1831.31 75.1354C1829.69 60.5443 1833.54 44.8893 1842.45 32.1441C1832.54 42.5438 1826.03 56.5982 1824.56 71.6148C1821.09 78.1424 1818.21 85.0354 1815.96 92.1921C1815.18 89.3979 1814.25 86.6592 1813.16 83.9991C1815.96 74.5386 1819.1 65.1474 1822.61 55.8673C1818.44 63.3571 1814.5 70.9995 1810.8 78.7762C1809.76 76.7036 1808.62 74.6912 1807.4 72.7436C1808.42 75.3204 1809.26 77.9389 1809.96 80.585C1808.33 84.0501 1806.75 87.5428 1805.22 91.0587C1805.19 90.5267 1805.18 89.9947 1805.14 89.4627C1804.97 87.0663 1804.73 84.6885 1804.49 82.3291C1805.93 75.5934 1808.14 68.964 1811.17 62.6354C1808.37 66.6602 1805.92 70.9486 1803.8 75.4314C1803.3 69.8152 1803.04 64.2268 1803.82 58.5643C1801.38 66.4797 1801.07 74.9133 1800.59 83.1017C1799.11 87.145 1797.9 91.3085 1796.98 95.5646C1796.94 95.4212 1796.9 95.2685 1796.86 95.1251C1795.6 90.7904 1793.85 86.7009 1792.34 82.5188L1787.67 70.1021L1789.93 83.1572C1790.56 87.1913 1791.41 91.1975 1791.85 95.213C1789.34 89.0833 1785.92 83.5365 1782.02 78.4616C1784.39 70.8746 1786.97 63.334 1789.8 55.8673C1786.23 62.2792 1782.85 68.816 1779.62 75.4361C1779.57 75.3805 1779.53 75.3251 1779.48 75.2695C1779.15 74.0899 1778.76 72.9286 1778.29 71.8137C1778.54 73.9001 1778.54 75.9727 1778.36 78.0036C1776.3 82.3106 1774.33 86.6685 1772.41 91.0587C1772.38 90.5267 1772.37 89.9947 1772.33 89.4627C1772.16 87.0663 1771.92 84.6885 1771.68 82.3291C1773.12 75.5934 1775.33 68.964 1778.36 62.6354C1775.57 66.6602 1773.11 70.9486 1770.99 75.4314C1770.49 69.8152 1770.23 64.2268 1771.01 58.5643C1768.57 66.4797 1768.26 74.9133 1767.78 83.1017C1766.3 87.145 1765.09 91.3085 1764.17 95.5646C1764.12 95.4212 1764.08 95.2685 1764.04 95.1251C1762.79 90.7904 1761.03 86.7009 1759.53 82.5188L1754.86 70.1021L1757.11 83.1572C1757.75 87.1913 1758.6 91.1975 1759.04 95.213C1756 87.7787 1751.61 81.1911 1746.67 75.2695C1746.33 74.0899 1745.95 72.9286 1745.48 71.8137C1746.11 77.1894 1745.21 82.454 1743.41 87.2144C1741.61 91.9886 1738.92 96.3141 1735.73 100.071C1734.61 101.394 1733.4 102.638 1732.17 103.85C1735.36 92.7565 1736.16 81.1772 1734.47 70.1437C1734.25 86.155 1728.81 101.56 1719.83 113.796C1719.48 114.042 1719.13 114.291 1718.77 114.537C1718.01 98.5069 1720.57 82.0238 1726.6 66.526C1721.83 74.5062 1718.02 83.1479 1715.18 92.1875C1713.49 86.1133 1711.05 80.3167 1707.96 74.9781C1709.24 70.7775 1710.82 66.6416 1712.74 62.6307C1710.49 65.8598 1708.46 69.2601 1706.65 72.7945C1706.64 72.776 1706.64 72.7575 1706.62 72.7436C1706.63 72.7667 1706.64 72.7898 1706.64 72.8083C1701.91 82.0561 1698.7 92.243 1697.27 102.814C1696.54 103.462 1695.75 104.188 1694.92 104.988C1693.83 90.0178 1696.6 74.4137 1703.36 60.2853C1694.83 72.5725 1689.35 87.2884 1687.63 102.735C1687.7 95.6803 1686.84 88.7595 1685.1 82.2273C1684.23 93.1266 1680.91 103.397 1675.88 112.219L1674.94 112.126C1672.84 109.254 1670.83 106.288 1668.94 103.23C1668.58 89.5367 1671.43 75.473 1677.58 62.6307C1671.11 71.9571 1666.39 82.6899 1663.74 94.0704C1660.77 88.394 1658.13 82.4818 1655.9 76.3475C1656.07 79.336 1656.37 82.3291 1656.73 85.3269C1653.27 72.5123 1646.04 57.5651 1630.97 48.1461C1609.86 34.9522 1590.55 47.975 1580.5 57.4818C1580.47 57.1349 1580.42 56.7879 1580.4 56.4409C1580.34 56.8711 1580.29 57.3014 1580.23 57.7316C1575.77 61.9877 1573.2 65.4759 1573.2 65.4759C1573.2 65.4759 1575.77 63.593 1579.82 61.0625C1578.35 72.7899 1577.24 84.6052 1576.47 96.476C1572.83 100.885 1568.48 102.735 1568.48 102.735C1563.6 94.1907 1562.11 79.4423 1561.8 67.2662C1562.04 65.1566 1562.29 63.0471 1562.6 60.9422C1565.48 41.0265 1571.01 21.3188 1576.89 1.79165C1568.81 20.5231 1561.02 39.4859 1555.71 59.5359C1553.25 68.8761 1551.38 78.4616 1550.38 88.2506C1549.99 81.6074 1549.16 75.0845 1548.11 68.6587C1546.72 60.2575 1545.09 52.0599 1543.37 43.7744C1541.59 35.5259 1539.24 27.1478 1534.82 19.9587C1538.18 27.6983 1539.28 36.0024 1539.89 44.2786C1540.43 52.5965 1540.91 61.0255 1541.11 69.3017C1541.3 77.5965 1541.09 85.8219 1540.09 93.7928C1539.57 97.776 1538.83 101.676 1537.89 105.479C1537.76 105.974 1537.59 106.445 1537.46 106.931C1537.08 88.9908 1534.18 71.365 1528.9 54.7523C1530.48 70.9301 1529.82 87.0848 1527.13 102.661C1522.66 108.375 1519.51 101.5 1517.37 91.6786C1516.9 87.9916 1516.44 84.4803 1516.21 80.8302C1515.37 69.0242 1515.97 56.8665 1518.08 44.7135C1511.93 55.4046 1506.95 67.058 1503.4 79.3914C1502.9 81.0939 1502.44 82.838 1502.01 84.5867C1501.18 77.8324 1500.73 70.9811 1500.7 64.0742C1497.17 77.356 1495.17 91.253 1494.79 105.405C1492.37 100.191 1490.56 94.5284 1489.32 88.6485C1487.17 78.4847 1486.58 67.7612 1486.73 57.0331C1485.34 62.9361 1484.17 68.9316 1483.38 75.0336C1479.1 54.1926 1472.41 48.8262 1472.41 48.8262C1484.12 67.5715 1474.75 107.412 1474.75 107.412C1464.69 104.535 1461.69 97.2578 1460.87 92.058C1462.37 86.8767 1463.33 81.6074 1463.85 76.3659C1464.75 67.3402 1464.34 58.3931 1463.35 49.6404C1462.36 40.8784 1460.78 32.2783 1459.19 23.6921C1459.61 32.4171 1460.03 41.1514 1459.84 49.807C1459.65 58.4533 1458.87 67.0395 1456.91 75.2232C1455.41 81.6213 1453.17 87.7695 1450.18 93.3626C1450.91 88.5282 1451.07 83.6568 1450.65 78.8687C1449.91 70.5369 1447.6 62.5706 1444.37 55.1826C1441.14 47.7853 1436.99 40.9293 1432.36 34.5174C1436 41.5399 1439.03 48.854 1441.06 56.353C1443.09 63.8428 1444.08 71.5269 1443.62 79.0028C1443.17 86.414 1441.18 93.654 1437.84 99.941C1436.22 103.004 1434.26 105.816 1432.04 108.291C1425.77 96.4298 1425.02 80.2381 1432.15 66.526C1426.12 73.0721 1421.93 81.6814 1420.2 91.0078C1419.57 94.3572 1419.27 97.8176 1419.3 101.315C1414.72 93.8622 1411.65 85.276 1410.66 76.2919C1410.29 72.961 1410.24 69.5701 1410.43 66.1744C1419.39 26.218 1445.94 16.0173 1445.94 16.0173C1407.25 18.099 1395.33 79.5719 1393.14 93.3626C1388.31 89.0509 1383.36 86.3169 1383.36 86.3169C1384.29 90.9338 1384.11 95.1714 1383.57 98.6272C1381.72 95.3888 1380.21 91.8498 1379.13 88.0795C1378.58 91.1466 1378.36 94.3387 1378.39 97.577C1373.07 84.656 1362.27 76.9442 1362.27 76.9442C1367.65 80.9783 1366.86 91.1836 1365.2 99.1546C1364.36 95.6479 1363.75 91.9146 1363.2 88.1766C1359.87 92.7288 1356.5 97.2948 1353.8 102.93C1353.76 103.008 1353.73 103.091 1353.69 103.165C1353.63 102.939 1353.55 102.726 1353.49 102.499C1352.33 97.8593 1352.03 92.7519 1352.4 87.6215C1353.13 77.2357 1356.36 66.5676 1358.08 55.821C1354.11 65.957 1348.76 75.3667 1345.49 86.3261C1344.43 89.9392 1343.67 93.7049 1343.29 97.5909L1340.52 92.1089C1341.07 89.3887 1341.49 86.6824 1341.83 83.9529C1342.44 78.878 1342.66 73.7938 1342.53 68.7697C1341.49 73.692 1340.12 78.4986 1338.41 83.1433C1336.69 87.751 1334.7 92.3541 1332.32 96.3742C1329.9 100.436 1327.01 103.61 1323.45 105.738C1323.32 105.812 1323.19 105.872 1323.06 105.941C1329.43 88.0933 1331.28 69.1028 1328.61 51.1809C1328.12 62.5059 1325.81 73.5532 1322.01 83.8835C1324.78 68.1359 1327.38 52.3698 1329.76 36.5899C1323.08 57.0978 1316.07 77.4716 1308.75 97.702C1308.58 95.4397 1308.34 93.2145 1308.08 91.0263C1308.61 83.3006 1309.76 75.4777 1311.08 67.6178L1319.75 18.8577L1304.25 65.957C1302.38 71.8277 1300.58 77.7677 1299.06 83.865C1297.86 79.632 1296.96 75.2788 1296.38 70.8469C1297.5 67.7612 1298.72 64.6987 1300.15 61.6963C1298.71 63.4635 1297.32 65.2954 1295.99 67.169C1295.77 64.7866 1295.65 62.381 1295.63 59.9661C1294.87 63.3062 1294.32 66.7157 1293.94 70.1622C1288.09 79.0214 1283.48 88.9214 1280.39 99.4645C1275.82 80.7608 1274.6 60.8913 1277.13 41.1606C1271.21 60.017 1268.73 80.2612 1269.96 100.612C1265.9 95.7543 1263.85 88.6577 1263.85 88.6577C1264.39 94.0149 1263.82 97.887 1262.62 100.7C1262.59 100.422 1262.57 100.131 1262.55 99.8577L1261.77 91.2946L1258.67 57.0331L1248.95 90.027L1246.51 98.2756C1246.18 99.4136 1245.85 100.524 1245.52 101.616L1242.76 93.3441L1241.39 95.4675C1243.33 88.9261 1245.2 82.3707 1246.94 75.8015C1241.5 85.4795 1235.83 94.991 1229.98 104.359C1235.85 77.5919 1243.69 51.1023 1253.49 25.2003C1244.56 41.2346 1236.42 57.7686 1229.03 74.7051C1228.99 73.9603 1228.97 73.2062 1228.92 72.4614C1228.39 65.0549 1227.43 57.8519 1226.85 50.6489C1226.27 43.4552 1226.05 36.2198 1227.06 28.9891C1224.91 35.9608 1223.92 43.3303 1223.34 50.6443C1222.75 57.9676 1222.53 65.2816 1221.89 72.4059C1221.4 77.7908 1220.6 83.1016 1219.3 88.1349C1218.69 85.5165 1218.01 82.9444 1217.26 80.4231C1215.4 74.3535 1213.35 68.4921 1211.2 62.6122C1209.04 56.7509 1206.75 50.9543 1204.34 45.227C1205.63 51.3105 1206.79 57.4032 1207.8 63.5144C1208.73 69.1768 1209.56 74.8855 1210.21 80.5202C1205.94 70.0882 1199.78 60.8497 1192.86 52.5364C1192.38 50.8571 1191.82 49.2148 1191.15 47.6327C1192.04 55.1919 1190.77 62.603 1188.25 69.3017C1185.71 76.0189 1181.93 82.107 1177.44 87.3855C1175.85 89.2452 1174.16 90.9986 1172.43 92.701C1176.92 77.0968 1178.05 60.8034 1175.67 45.2872C1175.36 67.8075 1167.71 89.4858 1155.08 106.695C1154.56 107.051 1154.05 107.417 1153.52 107.773C1152.46 85.2159 1156.11 62.0016 1164.6 40.1937C1157.9 51.403 1152.51 63.5236 1148.52 76.2133C1145.79 66.489 1141.74 57.269 1136.49 48.9372C1143.25 66.0449 1145.01 84.5312 1142.25 101.792C1139.92 94.9031 1137.31 88.6531 1137.31 88.6531C1142 100.371 1137.31 109.744 1137.31 109.744L1130.58 85.0586C1129.64 76.8378 1127.85 68.8715 1125.66 61.0948C1126.14 71.3511 1125.9 81.6259 1124.14 91.3918C1123.64 94.1814 1122.99 96.9201 1122.22 99.5848C1120.23 93.4412 1117.67 87.5844 1114.56 82.1718C1116.51 92.6871 1116.47 103.235 1114.72 113.158C1113.3 113.783 1112.1 113.079 1111.11 111.65C1111.11 110.683 1111.08 109.73 1111.03 108.814C1110.68 103.008 1109.5 98.0026 1108.17 93.0202C1105.42 83.0878 1101.27 73.8678 1096.07 65.6795C1097.24 75.3158 1096.92 84.8226 1095.31 93.7836C1094.47 98.2386 1093.41 102.744 1091.85 106.334C1090.76 108.944 1089.37 111.035 1087.91 112.455C1086.85 111.835 1085.95 110.715 1085.2 109.258C1080.97 84.7949 1084.34 58.2914 1095.64 34.7117C1085.7 49.0205 1078.71 65.6702 1075.22 83.3006C1074.41 77.1246 1073.8 70.9024 1073.42 64.6339C1071.19 76.5093 1069.75 88.6346 1069.12 100.899C1066.54 95.4767 1063.68 90.2399 1060.54 85.2482C1063.43 75.3574 1066.69 65.5407 1070.36 55.8488C1064.02 67.2477 1058.23 78.9982 1052.98 91.0402C1052.95 90.5082 1052.94 89.9762 1052.9 89.4442C1052.15 78.9473 1050.16 68.8761 1051.58 58.5458C1048.5 68.5199 1048.82 79.3175 1047.9 89.4072C1047.56 93.2331 1046.99 97.008 1046.07 100.589C1045.63 98.7289 1045.15 96.9016 1044.61 95.1066C1043.36 90.7719 1041.61 86.6823 1040.1 82.5002L1035.43 70.0836L1037.68 83.1386C1038.33 87.1727 1039.17 91.179 1039.61 95.1945C1036.57 87.7602 1032.18 81.1726 1027.24 75.251C1026.9 74.0714 1026.52 72.9101 1026.05 71.7952C1026.68 77.1709 1025.78 82.4355 1023.98 87.1958C1022.29 91.6832 1019.79 95.7589 1016.85 99.3535C1020.58 84.6699 1025.12 70.1345 1030.53 55.8488C1025.25 65.3279 1020.36 75.0521 1015.83 84.9799C1016.05 79.9836 1015.79 75.0012 1015.05 70.1298C1014.97 75.8663 1014.2 81.5241 1012.86 86.9923C1012.02 77.3744 1010.43 68.0712 1011.74 58.5458C1008.67 68.5199 1008.99 79.3175 1008.07 89.4072C1007.72 93.2331 1007.15 97.008 1006.23 100.589C1005.8 98.7289 1005.31 96.9016 1004.78 95.1066C1003.52 90.7719 1001.77 86.6823 1000.26 82.5002L995.589 70.0836L997.842 83.1386C998.481 87.1727 999.327 91.179 999.767 95.1945C996.727 87.7602 992.342 81.1726 987.401 75.251C987.063 74.0714 986.684 72.9101 986.207 71.7952C986.836 77.1709 985.944 82.4355 984.144 87.1958C982.34 91.97 979.652 96.2956 976.46 100.052C975.331 101.375 974.133 102.62 972.898 103.832C976.095 92.738 976.895 81.1587 975.202 70.1252C974.98 86.1365 969.539 101.542 960.564 113.778C960.208 114.023 959.857 114.273 959.496 114.518C958.742 98.4884 961.3 82.0052 967.333 66.5075C962.568 74.4877 958.755 83.1294 955.92 92.169C953.981 85.239 951.099 78.6605 947.357 72.7251C953.57 88.4449 953.856 105.807 948.92 120.801L942.814 116.364C943.586 111.932 943.785 107.496 943.568 103.202C943.179 95.6386 941.639 88.394 939.663 81.3668C940.001 88.6577 939.83 95.9578 938.581 102.902C937.716 107.773 936.231 112.418 934.14 116.581C932.553 116.85 930.883 117.104 929.319 117.275C929.319 116.595 929.305 115.929 929.264 115.282C929.014 111.155 928.176 107.597 927.233 104.054C925.276 96.9941 922.329 90.4388 918.628 84.6191C919.461 91.4705 919.234 98.2247 918.091 104.595C917.504 107.718 916.764 110.868 915.681 113.403C913.983 112.816 912.151 112.228 910.324 111.668C908.298 95.3981 910.902 78.1147 918.327 62.6077C914.506 68.1082 911.305 74.1037 908.765 80.4231C908.395 77.4115 907.687 74.4877 906.535 71.786C907.164 77.1616 906.271 82.4262 904.472 87.1866C903.556 89.6107 902.404 91.9192 901.081 94.0981C900.692 90.7071 900.396 87.2976 900.188 83.8696C899.286 88.6762 898.569 93.543 898.032 98.4514C897.616 98.9834 897.218 99.5293 896.783 100.043C895.659 101.366 894.456 102.61 893.221 103.822C896.418 92.7288 897.218 81.1494 895.525 70.116C895.303 86.1272 889.867 101.532 880.887 113.769C880.531 114.014 880.18 114.264 879.819 114.509C879.065 98.4791 881.623 81.996 887.656 66.4982C882.891 74.4784 879.079 83.1202 876.243 92.1598C874.304 85.2297 871.422 78.6513 867.68 72.7159C873.634 87.7788 874.133 104.345 869.822 118.899C867.43 119.542 864.636 119.968 862.512 119.385C863.812 113.958 864.164 108.467 863.891 103.198C863.669 98.8908 863.049 94.6995 862.212 90.5822C863.664 85.4934 864.608 80.3213 865.112 75.177C866.019 66.1513 865.603 57.2042 864.617 48.4514C863.627 39.6894 862.04 31.0893 860.458 22.4985C860.879 31.2235 861.296 39.9578 861.106 48.6134C860.916 57.2597 860.134 65.846 858.177 74.0344C856.669 80.4324 854.43 86.5806 851.442 92.1736C852.173 87.3392 852.33 82.4679 851.914 77.6798C851.173 69.348 848.865 61.3817 845.636 53.9937C842.402 46.5964 838.257 39.7403 833.622 33.3284C837.262 40.351 840.297 47.665 842.323 55.1641C844.35 62.6539 845.34 70.338 844.886 77.8139C844.618 82.2782 843.776 86.6731 842.43 90.8413C841.352 88.6947 840.214 86.5991 838.951 84.6191C839.529 89.3702 839.562 94.0658 839.168 98.6272C839.145 98.6688 839.127 98.7104 839.108 98.7521C837.489 101.815 835.528 104.627 833.302 107.102C831.933 104.507 830.827 101.704 830.009 98.766C830.314 86.4927 833.159 74.0621 838.646 62.6077C834.825 68.1082 831.623 74.1037 829.083 80.4231C829.032 80.0068 828.982 79.5904 828.912 79.1787C829.652 74.46 831.11 69.769 833.413 65.3371C831.151 67.789 829.148 70.5323 827.441 73.4931C827.242 72.9287 827.085 72.3412 826.854 71.7906C826.951 72.6234 827.002 73.4468 827.025 74.2703C824.397 79.0167 822.482 84.2859 821.455 89.8189C821.335 90.4573 821.256 91.1096 821.163 91.7526C820.895 89.1342 820.668 86.5112 820.511 83.8743C819.72 88.0795 819.086 92.3309 818.577 96.6101C817.675 94.8938 816.833 93.1405 816.093 91.3317C816.972 84.2166 816.917 77.0599 815.852 70.116C815.779 75.3297 815.145 80.474 814.025 85.4703C813.03 82.1024 812.304 78.6328 811.916 75.0984C810.296 60.5073 814.145 44.8523 823.055 32.1071C813.146 42.5068 806.637 56.5612 805.161 71.5778C801.692 78.1054 798.81 84.9984 796.566 92.1551C794.628 85.2251 791.745 78.6466 788.003 72.7112C793.383 86.3122 794.318 101.144 791.278 114.611L784.237 109.221C784.325 107.19 784.316 105.178 784.214 103.193C783.821 95.6294 782.285 88.3848 780.309 81.3576C780.647 88.6485 780.476 95.9486 779.227 102.893C778.639 106.191 777.765 109.392 776.627 112.413C774.665 113.88 772.325 115.147 769.914 115.443C769.91 115.388 769.91 115.328 769.91 115.277C769.66 111.15 768.823 107.593 767.879 104.049C766.107 97.6557 763.489 91.7018 760.264 86.3076C763.234 76.0514 766.607 65.883 770.405 55.8349C764.062 67.2338 758.27 78.9843 753.02 91.0263C752.992 90.4943 752.978 89.9623 752.941 89.4303C752.77 87.0339 752.534 84.6561 752.289 82.2967C753.727 75.561 755.939 68.9316 758.969 62.603C756.174 66.6278 753.723 70.9163 751.604 75.3991C751.1 69.7829 750.841 64.1944 751.618 58.5319C749.175 66.4473 748.87 74.8809 748.389 83.0693C746.908 87.1125 745.696 91.2808 744.776 95.5322C744.734 95.3888 744.692 95.2361 744.651 95.0927C743.596 91.4473 742.194 87.9777 740.876 84.4756C740.862 84.2721 740.843 84.0732 740.829 83.8696C740.806 83.9806 740.792 84.0917 740.774 84.2027C740.561 83.6291 740.339 83.06 740.136 82.4864L735.468 70.0697L737.721 83.1248C738.239 86.3955 738.905 89.6477 739.372 92.8999C739.317 93.2931 739.252 93.6818 739.201 94.0796C736.185 87.0894 731.975 80.8718 727.279 75.2417C727.062 74.4877 726.817 73.7521 726.553 73.0212C735.907 27.3329 774.069 15.9987 774.069 15.9987C730.43 17.8168 713.193 65.0271 707.65 86.1041C706.596 82.9444 705.337 79.7338 703.848 76.5325C704.819 73.1553 705.925 69.8013 707.211 66.4982C705.656 69.0981 704.241 71.7952 702.895 74.5293C697.672 64.0418 689.816 53.8549 677.992 46.4669C640.497 23.0306 607.688 67.5576 607.688 67.5576C607.688 67.5576 642.837 41.7805 663.928 46.4669C675.961 49.1408 685.704 72.4105 691.852 92.3401C692.634 100.727 691.995 109.115 689.918 116.975L682.738 116.045C683.469 111.719 683.654 107.389 683.437 103.198C683.048 95.634 681.508 88.3894 679.532 81.3622C679.87 88.6531 679.699 95.9533 678.45 102.897C677.585 107.755 676.109 112.385 674.027 116.54L669.184 117.539C669.188 116.766 669.174 116.008 669.133 115.277C668.883 111.15 668.046 107.593 667.106 104.049C665.15 96.9895 662.203 90.4342 658.497 84.6144C659.33 91.4658 659.103 98.2201 657.96 104.59C657.364 107.759 656.614 110.961 655.504 113.514C655.407 113.755 655.286 113.954 655.18 114.18L650.022 110.211C648.324 94.3711 650.993 77.652 658.196 62.6077C649.148 75.6443 643.517 91.4057 642.185 107.875L638.544 108.615C639.488 99.1314 638.743 89.7403 636.426 81.0338C635.533 92.2153 632.068 102.731 626.817 111.701C618.735 100.788 612.064 88.4588 607.225 75.1538C607.47 79.5025 607.933 83.865 608.571 88.2275C600.568 109.383 589.359 104.123 586.254 102.129C589.627 92.4558 593.411 82.8611 597.704 73.4052C589.211 83.023 581.221 93.2191 573.741 103.896L574.8 94.4636L577.756 68.1313L567.981 92.7565L563.096 105.071C562.8 105.807 562.499 106.566 562.203 107.324C563.045 102.754 563.285 98.2062 563.026 93.7743C562.402 83.6337 559.561 74.3258 556.568 65.2307C557.285 74.7792 557.697 84.434 556.004 93.3765C555.273 97.3504 554.042 101.181 552.409 104.664C546.155 103.022 538.646 90.9107 534.922 84.2305C533.632 74.6219 532.54 64.9577 531.721 55.2427C529.949 68.4875 528.672 81.8479 527.798 95.2732C524.162 99.6819 519.813 101.532 519.813 101.532C514.928 92.9879 513.438 78.2395 513.128 66.0634C513.369 63.9538 513.623 61.8443 513.933 59.7394C516.811 39.8236 522.339 20.116 528.219 0.588867C520.141 19.3203 512.351 38.2831 507.045 58.333C504.579 67.6733 502.715 77.2634 501.711 87.0478C501.318 80.4046 500.489 73.8816 499.444 67.4558C498.051 59.0547 496.423 50.8571 494.702 42.5716C492.921 34.3231 490.571 25.9497 486.153 18.7559C489.516 26.4956 490.608 34.7996 491.223 43.0759C491.764 51.3938 492.241 59.8227 492.44 68.0989C492.625 76.3891 492.417 84.619 491.417 92.59C490.899 96.5731 490.159 100.473 489.22 104.276C489.09 104.771 488.924 105.243 488.785 105.728C488.41 87.788 485.51 70.1622 480.231 53.5495C481.809 69.7273 481.147 85.882 478.464 101.463C473.986 107.176 470.836 100.302 468.698 90.4804C468.226 86.7934 467.764 83.2821 467.537 79.632C466.704 67.826 467.297 55.6684 469.406 43.5154C463.258 54.2065 458.28 65.8598 454.732 78.1932C454.228 79.8957 453.769 81.6398 453.339 83.3885C452.511 76.6342 452.062 69.7875 452.03 62.876C448.5 76.1578 446.497 90.0548 446.118 104.206C443.703 98.9926 441.885 93.3301 440.65 87.4456C438.498 77.2819 437.906 66.5584 438.059 55.8302C436.666 61.7332 435.496 67.7288 434.705 73.8261C430.426 52.9851 423.732 47.6188 423.732 47.6188C435.45 66.3641 426.077 106.205 426.077 106.205C416.011 103.327 413.017 96.0504 412.194 90.8505C413.697 85.6692 414.66 80.4 415.173 75.1585C416.08 66.1328 415.664 57.1857 414.678 48.4329C413.688 39.6709 412.101 31.0708 410.519 22.48C410.94 31.205 411.357 39.9393 411.167 48.5949C410.977 57.2412 410.195 65.8274 408.238 74.0158C406.73 80.4138 404.491 86.562 401.503 92.1551C402.234 87.3207 402.391 82.4494 401.975 77.6613C401.234 69.3295 398.926 61.3631 395.697 53.9751C392.463 46.5778 388.318 39.7218 383.683 33.3099C387.328 40.3325 390.358 47.6465 392.385 55.1456C394.411 62.6354 395.401 70.3195 394.947 77.7954C394.499 85.2066 392.509 92.4466 389.169 98.7336C387.55 101.796 385.589 104.609 383.363 107.084C377.095 95.2223 376.341 79.0306 383.479 65.3186C377.442 71.8647 373.255 80.474 371.52 89.8004C370.896 93.1497 370.595 96.6101 370.623 100.108C366.034 92.6547 362.967 84.0685 361.977 75.0845C360.357 60.4934 364.206 44.8384 373.116 32.0932C362.388 43.3534 355.629 58.8882 354.949 75.2973C354.491 86.5991 356.915 98.1368 362.014 108.634L359.691 108.439C358.623 106.33 357.6 104.188 356.61 102.023C355.528 90.6655 351.012 69.5284 332.725 58.0971C306.911 41.9655 284.326 72.6187 284.326 72.6187C284.326 72.6187 295.387 64.5136 307.036 60.2575C303.488 68.3395 299.463 76.2225 296.803 85.1279C295.743 88.741 294.989 92.5067 294.61 96.3927L291.839 90.9107C292.385 88.1905 292.806 85.4842 293.148 82.7547C293.759 77.6751 293.981 72.5956 293.842 67.5715C292.81 72.4938 291.436 77.3004 289.729 81.9451C288.008 86.5528 286.019 91.1559 283.632 95.176C281.217 99.2378 278.326 102.411 274.764 104.539C274.639 104.613 274.504 104.674 274.38 104.743C280.75 86.8952 282.6 67.9046 279.922 49.9827C279.431 61.3077 277.123 72.355 273.325 82.6853C276.091 66.9378 278.691 51.1716 281.074 35.3917C274.393 55.8996 267.389 76.2734 260.066 96.5038C259.89 94.2415 259.65 92.0209 259.395 89.8281C259.923 82.1024 261.07 74.2795 262.393 66.4196L271.063 17.6595L255.56 64.7588C253.691 70.6248 251.887 76.5695 250.37 82.6668C249.181 78.4339 248.274 74.0806 247.696 69.6487C248.815 66.563 250.032 63.5005 251.461 60.4981C250.013 62.2699 248.63 64.0972 247.298 65.9708C247.085 63.5884 246.96 61.1828 246.942 58.7679C246.183 62.108 245.628 65.5175 245.248 68.964C239.396 77.8232 234.789 87.7232 231.698 98.2663C227.128 79.5626 225.916 59.6931 228.446 39.9624C222.529 58.8142 220.04 79.063 221.275 99.4136C217.209 94.5561 215.164 87.4595 215.164 87.4595C215.701 92.8167 215.127 96.6888 213.934 99.5015C213.911 99.2239 213.887 98.9325 213.86 98.6596L213.082 90.0965L209.983 55.8349L200.259 88.8289L197.825 97.0774C197.492 98.2154 197.159 99.3257 196.831 100.417L194.073 92.1459L192.704 94.2693C194.638 87.7279 196.511 81.1725 198.256 74.6033C192.815 84.2813 187.143 93.7928 181.296 103.161C187.157 76.3937 194.999 49.9041 204.797 24.0021C195.873 40.0364 187.726 56.5704 180.338 73.5069C180.297 72.7621 180.278 72.008 180.227 71.2632C179.7 63.8567 178.742 56.6537 178.159 49.4507C177.576 42.257 177.364 35.0217 178.372 27.7909C176.216 34.7626 175.231 42.1321 174.648 49.4461C174.061 56.7694 173.843 64.0834 173.2 71.2077C172.71 76.5926 171.914 81.9035 170.614 86.9367C170.003 84.3183 169.323 81.7462 168.574 79.2249C166.714 73.1553 164.665 67.2939 162.509 61.414C160.353 55.5527 158.059 49.7561 155.653 44.0288C156.944 50.1123 158.105 56.205 159.113 62.3162C160.043 67.9786 160.876 73.692 161.519 79.3221C157.249 68.89 151.096 59.6515 144.171 51.3382C143.69 49.6589 143.13 48.0166 142.454 46.4345C143.343 53.9983 142.08 61.4048 139.554 68.1035C137.014 74.8161 133.234 80.9089 128.742 86.1874C127.156 88.0471 125.467 89.8004 123.732 91.5028C128.229 75.8986 129.353 59.6052 126.975 44.089C126.665 66.6093 119.013 88.2876 106.384 105.497C105.866 105.853 105.357 106.219 104.83 106.575C103.766 84.0177 107.416 60.8034 115.905 38.9955C109.211 50.2048 103.812 62.3208 99.824 75.0151C97.0992 65.2908 93.0513 56.0708 87.7959 47.739C94.5594 64.8467 96.3127 83.333 93.5555 100.593C91.2239 93.7049 88.6194 87.4549 88.6194 87.4549C93.3057 99.173 88.6194 108.546 88.6194 108.546L81.8882 83.8604C80.9491 75.6396 79.1588 67.6733 76.9706 59.8967C77.4471 70.153 77.2019 80.4277 75.444 90.1936C74.949 92.9832 74.2967 95.7219 73.5241 98.3866C71.5348 92.243 68.9765 86.3863 65.8631 80.9736C67.8154 91.489 67.7737 102.037 66.0297 111.96C64.6048 112.584 63.4066 111.881 62.412 110.452C62.412 109.485 62.3888 108.532 62.3333 107.616C61.9817 101.81 60.8021 96.8044 59.479 91.822C56.7264 81.8896 52.5813 72.6696 47.3722 64.4813C48.5426 74.1176 48.2234 83.6244 46.6135 92.5854C45.7762 97.0404 44.7214 101.546 43.1578 105.136C42.0706 107.741 40.6781 109.836 39.2116 111.257C38.1522 110.637 37.2594 109.517 36.5053 108.06C32.2816 83.5967 35.6494 57.0932 46.942 33.5135C37.0095 47.8223 30.0194 64.472 26.5266 82.1024C25.717 75.9264 25.1017 69.7042 24.727 63.4357C22.4972 75.3112 21.0538 87.4364 20.4293 99.7004C17.8294 94.2461 14.9519 88.9862 11.7922 83.9667C13.4067 90.869 14.5216 97.8083 15.1415 104.706C15.4469 108.18 15.6782 111.59 15.4006 114.611C15.3451 115.328 15.2433 116.017 15.123 116.674C11.7366 109.092 6.26849 103.054 0 99.3165C4.9269 107.542 5.84288 117.021 3.60843 124.469L6.43965 124.423L1.90599 131.977H111.926L112.194 132.287C112.282 132.186 112.375 132.079 112.463 131.977H633.072L638.151 133.148H1050.59H1074.03H1160.61L1160.88 133.458C1160.97 133.356 1161.06 133.25 1161.15 133.148H1484.12H1685.66H1896.57H1920L1912.16 124.844ZM147.205 103.915C137.833 110.947 147.205 80.4786 147.205 80.4786L142.316 86.3446C144.189 80.8395 145.42 75.1816 145.855 69.496C146.331 63.3756 145.818 57.2181 144.208 51.5187C149.755 61.7842 154.043 72.6974 155.764 83.7632C156.379 87.6677 156.643 91.6 156.569 95.4675L151.892 89.8513C151.892 89.8513 156.583 96.8831 147.205 103.915ZM241.543 102.906C241.658 95.1298 242.709 87.256 244.675 79.4979C244.675 86.1041 245.35 92.7843 246.724 99.3997C245.6 101.172 243.787 102.254 241.543 102.906ZM334.89 97.4799C333.044 94.2415 331.527 90.7025 330.454 86.9322C329.903 89.9993 329.676 93.1914 329.713 96.4297C324.389 83.5087 313.591 75.7969 313.591 75.7969C318.971 79.831 318.176 90.0363 316.52 98.0073C315.678 94.5006 315.076 90.7673 314.516 87.0293C311.195 91.5815 307.822 96.1475 305.121 101.782C305.084 101.861 305.051 101.944 305.014 102.018C304.954 101.792 304.866 101.579 304.811 101.352C303.65 96.712 303.353 91.6046 303.719 86.4742C304.334 77.7445 306.707 68.816 308.475 59.8088C313.596 58.0878 318.745 57.1996 323.047 58.1526C331.504 60.0308 338.309 76.6759 342.528 90.573C338.397 87.2236 334.682 85.1696 334.682 85.1696C335.603 89.7819 335.431 94.0195 334.89 97.4799ZM724.925 84.4895C725.225 81.0106 725.669 77.6936 726.262 74.5432C726.35 77.9666 725.85 81.316 724.925 84.4895ZM736.013 108.902C732.734 110.401 729.19 112.469 725.993 114.139C725.443 110.318 725.087 106.672 724.846 103.128C726.812 98.2941 728.117 93.2515 728.505 88.1766C728.843 83.8002 728.459 79.4054 727.302 75.3389C731.262 82.6529 734.32 90.4296 735.546 98.3172C736.106 101.861 736.254 105.432 736.013 108.902ZM758.733 104.632C758.335 106.751 757.854 108.87 757.257 110.813C755.92 111.155 754.731 111.96 753.598 112.589C755.346 104.558 757.35 96.5592 759.602 88.6114C759.945 94.0981 759.653 99.4923 758.733 104.632ZM801.215 113.806C800.859 114.051 800.507 114.301 800.146 114.546C799.54 101.657 801.109 88.4819 804.884 75.7506C804.592 84.2165 805.92 92.8028 808.77 100.982C806.66 105.529 804.125 109.836 801.215 113.806ZM994.53 117.719C993.873 118.145 993.216 118.571 992.55 118.996L993.632 120.245C993.623 120.269 993.614 120.292 993.605 120.315C987.294 120.981 980.952 120.449 977.506 116.785C980.068 113.029 982.395 109.078 984.274 104.868C986.656 99.5154 988.192 93.8622 988.627 88.1766C988.965 83.8002 988.581 79.4054 987.424 75.3389C991.384 82.6529 994.442 90.4296 995.668 98.3172C996.718 104.974 996.385 111.738 994.53 117.719ZM1034.32 117.881C1029.59 119.329 1023.19 120.199 1016.49 117.992C1019.39 113.88 1022.03 109.54 1024.11 104.868C1026.49 99.5154 1028.03 93.8622 1028.46 88.1766C1028.8 83.8002 1028.42 79.4054 1027.26 75.3389C1031.22 82.6529 1034.28 90.4296 1035.5 98.3172C1036.56 105.034 1036.22 111.858 1034.32 117.881ZM1052.95 115.476C1053.05 115.018 1053.14 114.555 1053.24 114.097C1053.29 114.569 1053.32 115.041 1053.35 115.513L1052.95 115.476ZM1064.09 115.841C1064.03 116.558 1063.94 117.248 1063.82 117.904C1061.67 113.089 1058.67 108.92 1055.16 105.548C1056.77 98.7799 1058.56 92.0395 1060.52 85.3361C1062.11 92.1921 1063.22 99.0805 1063.83 105.932C1064.14 109.406 1064.38 112.82 1064.09 115.841ZM1195.89 105.085C1186.52 112.117 1195.89 81.6536 1195.89 81.6536L1191 87.5197C1192.87 82.0145 1194.1 76.3567 1194.54 70.6711C1195.02 64.5506 1194.5 58.3932 1192.89 52.6937C1198.44 62.9592 1202.72 73.8724 1204.45 84.9383C1205.06 88.8428 1205.33 92.775 1205.25 96.6425L1200.58 91.0263C1200.58 91.0263 1205.26 98.0535 1195.89 105.085ZM1290.22 104.077C1290.34 96.3002 1291.39 88.4264 1293.35 80.6683C1293.35 87.2745 1294.03 93.9547 1295.4 100.57C1294.28 102.342 1292.47 103.425 1290.22 104.077ZM1408.38 109.665C1408.32 109.564 1408.28 109.462 1408.23 109.36C1408.03 107.144 1407.89 104.979 1407.77 102.865C1408.63 105.233 1409.59 107.579 1410.7 109.86L1408.38 109.665ZM1616.67 93.964L1611.78 106.279C1611.48 107.014 1611.18 107.773 1610.89 108.532C1611.73 103.961 1611.97 99.4137 1611.71 94.9818C1611.09 84.8411 1608.25 75.5332 1605.25 66.4381C1605.97 75.9865 1606.38 85.6414 1604.69 94.5838C1603.96 98.5577 1602.73 102.388 1601.1 105.872C1594.84 104.229 1587.34 92.1181 1583.61 85.4379C1582.5 77.157 1581.57 68.8299 1580.8 60.4703C1590.56 54.4701 1607.66 45.537 1619.43 48.1554C1628.37 50.1446 1635.77 65.9662 1640.85 81.0893C1634.41 88.7734 1628.26 96.7859 1622.44 105.104L1623.5 95.671L1626.45 69.3387L1616.67 93.964ZM1634.94 103.332C1637.11 97.0959 1639.48 90.8922 1642.03 84.7393C1644.37 92.1829 1646.11 99.15 1647.16 103.846C1641.78 106.987 1636.84 104.553 1634.94 103.332ZM1687.04 113.07C1686.97 113.144 1686.91 113.214 1686.84 113.288L1686.82 113.283C1686.92 112.534 1687 111.784 1687.09 111.035C1687.07 111.715 1687.04 112.39 1687.04 113.07ZM1708.61 119.45C1707.14 119.08 1706 118.233 1705.51 116.655C1705.42 116.174 1705.32 115.693 1705.24 115.207C1704.92 109.439 1709.76 96.4482 1704.12 98.109C1704.37 90.6192 1705.56 83.0878 1707.73 75.7553C1712.69 90.1751 1712.8 105.733 1708.61 119.45ZM1755.16 111.358C1750.03 109.818 1745.42 108.601 1745.42 108.601L1738.86 113.565C1740.59 110.78 1742.19 107.898 1743.54 104.868C1745.92 99.5154 1747.46 93.8622 1747.89 88.1766C1748.23 83.8002 1747.85 79.4054 1746.69 75.3389C1750.65 82.6529 1753.71 90.4296 1754.93 98.3172C1755.63 102.707 1755.71 107.135 1755.16 111.358ZM1779.59 75.5055C1779.58 75.5193 1779.58 75.5286 1779.57 75.5379C1779.55 75.4685 1779.52 75.4083 1779.5 75.3389C1779.53 75.3944 1779.56 75.4499 1779.59 75.5055ZM1787.27 115.291L1787.18 115.226C1787.18 115.226 1777.26 117.47 1771.96 117.544C1772.44 115.207 1772.94 112.871 1773.46 110.535C1774.49 108.694 1775.48 106.816 1776.35 104.868C1778.73 99.5154 1780.27 93.8622 1780.7 88.1766C1780.84 86.3678 1780.82 84.5636 1780.71 82.7686C1781.03 81.7092 1781.33 80.6498 1781.66 79.595C1784.55 85.6415 1786.75 91.9423 1787.74 98.3172C1788.65 104.086 1788.53 109.938 1787.27 115.291ZM1810.14 116.762L1804.55 118.608C1806.55 108.698 1808.92 98.8353 1811.68 89.0509C1813 98.4467 1812.44 107.935 1810.14 116.762ZM1821.06 113.163L1819.51 113.676C1819.01 101.061 1820.58 88.1951 1824.27 75.7506C1823.98 84.2165 1825.31 92.8028 1828.16 100.982C1826.16 105.289 1823.78 109.369 1821.06 113.163ZM1834.84 120.565C1835.48 119.695 1836.11 118.811 1836.74 117.923C1837.32 118.765 1837.91 119.593 1838.53 120.412C1837.29 120.518 1836.05 120.574 1834.84 120.565ZM1840.17 95.0835C1839.62 95.9255 1839.07 96.7582 1838.48 97.5585C1837.38 95.5554 1836.35 93.5059 1835.48 91.3733C1835.92 87.8157 1836.13 84.249 1836.09 80.7007C1837.88 84.5821 1839.37 88.5606 1840.43 92.5946C1840.32 93.4135 1840.24 94.2461 1840.17 95.0835ZM1862.47 117.992C1862.66 117.724 1862.85 117.456 1863.04 117.187C1863.06 117.53 1863.07 117.877 1863.1 118.219C1862.89 118.154 1862.68 118.062 1862.47 117.992ZM1862.82 99.3812C1863.38 97.193 1863.95 95.0049 1864.55 92.8259C1864.19 94.6625 1863.87 96.5083 1863.62 98.3727C1863.36 98.7058 1863.1 99.0481 1862.82 99.3812ZM1880.3 117.881C1876.02 119.191 1870.36 120.023 1864.36 118.538L1873 117.123C1871.86 112.608 1871.11 107.958 1870.74 103.244C1872.72 98.3774 1874.05 93.2978 1874.44 88.1813C1874.78 83.8049 1874.4 79.4099 1873.24 75.3435C1877.2 82.6575 1880.26 90.4342 1881.48 98.3219C1882.54 105.034 1882.19 111.858 1880.3 117.881ZM1898.93 115.476C1899.03 115.018 1899.12 114.555 1899.21 114.097C1899.27 114.569 1899.3 115.041 1899.33 115.513L1898.93 115.476Z" fill="#F0FFF0"/>
</svg>
