<svg width="1920" height="134" viewBox="0 0 1920 134" fill="none" xmlns="http://www.w3.org/2000/svg">
<path d="M1912.16 124.881C1910.25 117.109 1906.24 110.489 1901.14 105.585C1905.11 88.8013 1910.18 72.1978 1916.34 55.909C1910 67.3079 1904.21 79.0585 1898.96 91.1005C1898.93 90.5685 1898.91 90.0365 1898.88 89.5044C1898.13 79.0076 1896.14 68.9364 1897.56 58.6061C1894.48 68.5802 1894.8 79.3777 1893.88 89.4674C1893.53 93.2932 1892.96 97.0683 1892.04 100.649C1891.61 98.7892 1891.13 96.9619 1890.59 95.1669C1889.34 90.8322 1887.58 86.7426 1886.08 82.5605L1881.41 70.1438L1883.66 83.1989C1884.3 87.2329 1885.15 91.2393 1885.59 95.2548C1882.55 87.8205 1878.16 81.2328 1873.22 75.3112C1873.18 75.1771 1873.12 75.0476 1873.08 74.9134C1874.51 69.1306 1876.51 63.4451 1879.13 57.9862C1875.38 63.3849 1872.22 69.2555 1869.7 75.45C1871.8 68.8947 1874.06 62.3718 1876.5 55.909C1871.23 65.3881 1866.34 75.1123 1861.81 85.0401C1862.02 80.0438 1861.77 75.0615 1861.02 70.1901C1860.94 75.9266 1860.17 81.5844 1858.83 87.0526C1857.99 77.4347 1856.41 68.1314 1857.72 58.6061C1854.64 68.5802 1854.96 79.3777 1854.04 89.4674C1853.69 93.2932 1853.13 97.0683 1852.2 100.649C1851.77 98.7892 1851.29 96.9619 1850.75 95.1669C1850.13 93.0018 1849.37 90.8969 1848.59 88.8105C1848.61 88.6115 1848.65 88.4126 1848.66 88.2137C1848.9 85.1974 1848.77 82.1719 1848.31 79.2435C1849.05 74.5248 1850.51 69.8338 1852.81 65.4019C1850.55 67.8538 1848.54 70.5972 1846.84 73.5579C1846.64 72.9935 1846.48 72.406 1846.25 71.8555C1846.35 72.6882 1846.4 73.5117 1846.42 74.3351C1845.74 75.5518 1845.13 76.8055 1844.56 78.087L1841.57 70.1438L1843.41 80.8349C1842.68 82.7687 1842.04 84.7533 1841.54 86.7888C1839.86 83.9437 1838.01 81.2374 1836.03 78.6514C1835.92 75.8062 1835.67 72.9797 1835.24 70.1901C1835.21 72.5032 1835.06 74.8023 1834.81 77.0831C1834.33 76.477 1833.85 75.8664 1833.35 75.2743C1833.82 76.144 1834.28 77.0275 1834.73 77.9111C1834.42 80.4879 1833.99 83.037 1833.42 85.5444C1832.43 82.1765 1831.7 78.7069 1831.31 75.1725C1829.69 60.5814 1833.54 44.9264 1842.45 32.1812C1832.54 42.5809 1826.03 56.6353 1824.56 71.6519C1821.09 78.1795 1818.21 85.0725 1815.96 92.2292C1815.18 89.435 1814.25 86.6963 1813.16 84.0362C1815.96 74.5757 1819.1 65.1845 1822.61 55.9044C1818.44 63.3942 1814.5 71.0367 1810.8 78.8133C1809.76 76.7408 1808.62 74.7283 1807.4 72.7807C1808.42 75.3575 1809.26 77.976 1809.96 80.6222C1808.33 84.0872 1806.75 87.5799 1805.22 91.0958C1805.19 90.5638 1805.18 90.0318 1805.14 89.4998C1804.97 87.1034 1804.73 84.7256 1804.49 82.3662C1805.93 75.6305 1808.14 69.0011 1811.17 62.6725C1808.37 66.6973 1805.92 70.9857 1803.8 75.4685C1803.3 69.8523 1803.04 64.2639 1803.82 58.6014C1801.38 66.5168 1801.07 74.9504 1800.59 83.1388C1799.11 87.1821 1797.9 91.3456 1796.98 95.6017C1796.94 95.4583 1796.9 95.3056 1796.86 95.1622C1795.6 90.8275 1793.85 86.738 1792.34 82.5559L1787.67 70.1392L1789.93 83.1943C1790.56 87.2284 1791.41 91.2346 1791.85 95.2501C1789.34 89.1204 1785.92 83.5736 1782.02 78.4987C1784.39 70.9117 1786.97 63.3711 1789.8 55.9044C1786.23 62.3163 1782.85 68.8531 1779.62 75.4732C1779.57 75.4177 1779.53 75.3622 1779.48 75.3066C1779.15 74.127 1778.76 72.9658 1778.29 71.8508C1778.54 73.9372 1778.54 76.0098 1778.36 78.0407C1776.3 82.3477 1774.33 86.7056 1772.41 91.0958C1772.38 90.5638 1772.37 90.0318 1772.33 89.4998C1772.16 87.1034 1771.92 84.7256 1771.68 82.3662C1773.12 75.6305 1775.33 69.0011 1778.36 62.6725C1775.57 66.6973 1773.11 70.9857 1770.99 75.4685C1770.49 69.8523 1770.23 64.2639 1771.01 58.6014C1768.57 66.5168 1768.26 74.9504 1767.78 83.1388C1766.3 87.1821 1765.09 91.3456 1764.17 95.6017C1764.12 95.4583 1764.08 95.3056 1764.04 95.1622C1762.79 90.8275 1761.03 86.738 1759.53 82.5559L1754.86 70.1392L1757.11 83.1943C1757.75 87.2284 1758.6 91.2346 1759.04 95.2501C1756 87.8158 1751.61 81.2282 1746.67 75.3066C1746.33 74.127 1745.95 72.9658 1745.48 71.8508C1746.11 77.2265 1745.21 82.4911 1743.41 87.2515C1741.61 92.0257 1738.92 96.3512 1735.73 100.108C1734.61 101.431 1733.4 102.675 1732.17 103.887C1735.36 92.7936 1736.16 81.2143 1734.47 70.1808C1734.25 86.1921 1728.81 101.597 1719.83 113.834C1719.48 114.079 1719.13 114.329 1718.77 114.574C1718.01 98.544 1720.57 82.0609 1726.6 66.5631C1721.83 74.5433 1718.02 83.1851 1715.18 92.2246C1713.49 86.1504 1711.05 80.3538 1707.96 75.0152C1709.24 70.8146 1710.82 66.6788 1712.74 62.6678C1710.49 65.8969 1708.46 69.2972 1706.65 72.8316C1706.64 72.8131 1706.64 72.7946 1706.62 72.7807C1706.63 72.8039 1706.64 72.827 1706.64 72.8455C1701.91 82.0932 1698.7 92.2801 1697.27 102.851C1696.54 103.499 1695.75 104.225 1694.92 105.025C1693.83 90.0549 1696.6 74.4508 1703.36 60.3224C1694.83 72.6096 1689.35 87.3255 1687.63 102.772C1687.7 95.7174 1686.84 88.7966 1685.1 82.2644C1684.23 93.1637 1680.91 103.434 1675.88 112.256L1674.94 112.164C1672.84 109.291 1670.83 106.325 1668.94 103.267C1668.58 89.5738 1671.43 75.5102 1677.58 62.6678C1671.11 71.9942 1666.39 82.727 1663.74 94.1075C1660.77 88.4311 1658.13 82.5189 1655.9 76.3846C1656.07 79.3731 1656.37 82.3662 1656.73 85.364C1653.27 72.5494 1646.04 57.6022 1630.97 48.1832C1609.86 34.9893 1590.55 48.0121 1580.5 57.5189C1580.47 57.172 1580.42 56.825 1580.4 56.478C1580.34 56.9082 1580.29 57.3385 1580.23 57.7687C1575.77 62.0248 1573.2 65.513 1573.2 65.513C1573.2 65.513 1575.77 63.6301 1579.82 61.0996C1578.35 72.827 1577.24 84.6423 1576.47 96.5131C1572.83 100.922 1568.48 102.772 1568.48 102.772C1563.6 94.2278 1562.11 79.4794 1561.8 67.3033C1562.04 65.1937 1562.29 63.0842 1562.6 60.9793C1565.48 41.0636 1571.01 21.3559 1576.89 1.82876C1568.81 20.5602 1561.02 39.523 1555.71 59.573C1553.25 68.9132 1551.38 78.4987 1550.38 88.2878C1549.99 81.6445 1549.16 75.1216 1548.11 68.6958C1546.72 60.2946 1545.09 52.097 1543.37 43.8115C1541.59 35.563 1539.24 27.1849 1534.82 19.9958C1538.18 27.7355 1539.28 36.0395 1539.89 44.3158C1540.43 52.6337 1540.91 61.0626 1541.11 69.3388C1541.3 77.6336 1541.09 85.859 1540.09 93.8299C1539.57 97.8131 1538.83 101.713 1537.89 105.516C1537.76 106.011 1537.59 106.483 1537.46 106.968C1537.08 89.0279 1534.18 71.4021 1528.9 54.7894C1530.48 70.9672 1529.82 87.1219 1527.13 102.698C1522.66 108.412 1519.51 101.537 1517.37 91.7157C1516.9 88.0287 1516.44 84.5174 1516.21 80.8673C1515.37 69.0613 1515.97 56.9036 1518.08 44.7506C1511.93 55.4417 1506.95 67.0951 1503.4 79.4286C1502.9 81.131 1502.44 82.8751 1502.01 84.6238C1501.18 77.8695 1500.73 71.0182 1500.7 64.1113C1497.17 77.3931 1495.17 91.2901 1494.79 105.442C1492.37 100.228 1490.56 94.5655 1489.32 88.6856C1487.17 78.5218 1486.58 67.7983 1486.73 57.0702C1485.34 62.9732 1484.17 68.9687 1483.38 75.0707C1479.1 54.2297 1472.41 48.8633 1472.41 48.8633C1484.12 67.6087 1474.75 107.449 1474.75 107.449C1464.69 104.572 1461.69 97.2949 1460.87 92.0951C1462.37 86.9138 1463.33 81.6445 1463.85 76.4031C1464.75 67.3773 1464.34 58.4303 1463.35 49.6775C1462.36 40.9155 1460.78 32.3154 1459.19 23.7292C1459.62 32.4542 1460.03 41.1885 1459.84 49.8441C1459.65 58.4904 1458.87 67.0766 1456.91 75.2603C1455.41 81.6584 1453.17 87.8066 1450.18 93.3997C1450.91 88.5653 1451.07 83.6939 1450.65 78.9058C1449.91 70.5741 1447.6 62.6077 1444.37 55.2197C1441.14 47.8224 1436.99 40.9664 1432.36 34.5545C1436 41.577 1439.03 48.8911 1441.06 56.3901C1443.09 63.8799 1444.08 71.564 1443.62 79.0399C1443.17 86.4511 1441.18 93.6911 1437.84 99.9781C1436.23 103.041 1434.26 105.853 1432.04 108.328C1425.77 96.4669 1425.02 80.2752 1432.15 66.5631C1426.12 73.1092 1421.93 81.7185 1420.2 91.0449C1419.57 94.3943 1419.27 97.8547 1419.3 101.352C1414.72 93.8993 1411.65 85.3131 1410.66 76.329C1410.29 72.9982 1410.24 69.6072 1410.43 66.2115C1419.39 26.2551 1445.94 16.0544 1445.94 16.0544C1407.25 18.1362 1395.33 79.609 1393.14 93.3997C1388.31 89.0881 1383.36 86.354 1383.36 86.354C1384.29 90.9709 1384.11 95.2085 1383.57 98.6643C1381.72 95.4259 1380.21 91.8869 1379.13 88.1166C1378.58 91.1837 1378.36 94.3758 1378.39 97.6141C1373.07 84.6932 1362.27 76.9813 1362.27 76.9813C1367.65 81.0154 1366.86 91.2207 1365.2 99.1917C1364.36 95.685 1363.75 91.9517 1363.2 88.2137C1359.87 92.7659 1356.5 97.3319 1353.8 102.967C1353.76 103.045 1353.73 103.129 1353.69 103.203C1353.63 102.976 1353.55 102.763 1353.49 102.536C1352.33 97.8964 1352.03 92.789 1352.4 87.6586C1353.13 77.2728 1356.36 66.6047 1358.08 55.8581C1354.11 65.9941 1348.76 75.4038 1345.49 86.3633C1344.43 89.9763 1343.67 93.742 1343.29 97.628L1340.52 92.146C1341.07 89.4258 1341.49 86.7195 1341.83 83.99C1342.44 78.9151 1342.66 73.8309 1342.53 68.8069C1341.49 73.7291 1340.12 78.5357 1338.41 83.1804C1336.69 87.7881 1334.7 92.3912 1332.32 96.4113C1329.9 100.473 1327.01 103.647 1323.45 105.775C1323.32 105.849 1323.19 105.909 1323.06 105.978C1329.43 88.1304 1331.28 69.1399 1328.61 51.2181C1328.12 62.543 1325.81 73.5903 1322.01 83.9206C1324.78 68.1731 1327.38 52.407 1329.76 36.627C1323.08 57.1349 1316.07 77.5087 1308.75 97.7391C1308.58 95.4769 1308.34 93.2516 1308.08 91.0634C1308.61 83.3377 1309.76 75.5148 1311.08 67.6549L1319.75 18.8948L1304.25 65.9941C1302.38 71.8648 1300.58 77.8048 1299.06 83.9021C1297.86 79.6692 1296.96 75.3159 1296.38 70.884C1297.5 67.7983 1298.72 64.7358 1300.15 61.7334C1298.71 63.5006 1297.32 65.3325 1295.99 67.2062C1295.77 64.8237 1295.65 62.4181 1295.63 60.0032C1294.87 63.3433 1294.32 66.7528 1293.94 70.1993C1288.09 79.0585 1283.48 88.9585 1280.39 99.5016C1275.82 80.7979 1274.6 60.9284 1277.13 41.1977C1271.21 60.0541 1268.73 80.2983 1269.96 100.649C1265.9 95.7914 1263.85 88.6948 1263.85 88.6948C1264.39 94.052 1263.82 97.9241 1262.62 100.737C1262.59 100.459 1262.57 100.168 1262.55 99.8948L1261.77 91.3317L1258.67 57.0702L1248.95 90.0641L1246.51 98.3127C1246.18 99.4507 1245.85 100.561 1245.52 101.653L1242.76 93.3812L1241.39 95.5046C1243.33 88.9632 1245.2 82.4078 1246.94 75.8386C1241.5 85.5166 1235.83 95.0281 1229.98 104.396C1235.85 77.629 1243.69 51.1394 1253.49 25.2374C1244.56 41.2718 1236.42 57.8057 1229.03 74.7422C1228.99 73.9974 1228.97 73.2433 1228.92 72.4985C1228.39 65.092 1227.43 57.889 1226.85 50.686C1226.27 43.4923 1226.05 36.257 1227.06 29.0262C1224.91 35.9979 1223.92 43.3674 1223.34 50.6814C1222.75 58.0047 1222.53 65.3187 1221.89 72.443C1221.4 77.8279 1220.6 83.1387 1219.3 88.1721C1218.69 85.5536 1218.01 82.9815 1217.26 80.4602C1215.4 74.3907 1213.35 68.5292 1211.2 62.6493C1209.04 56.788 1206.75 50.9914 1204.34 45.2641C1205.63 51.3476 1206.79 57.4403 1207.8 63.5515C1208.73 69.214 1209.56 74.9227 1210.21 80.5574C1205.94 70.1253 1199.78 60.8868 1192.86 52.5735C1192.38 50.8942 1191.82 49.2519 1191.15 47.6698C1192.04 55.229 1190.77 62.6401 1188.25 69.3388C1185.71 76.0561 1181.93 82.1441 1177.44 87.4226C1175.85 89.2823 1174.16 91.0357 1172.43 92.7381C1176.92 77.134 1178.05 60.8405 1175.67 45.3243C1175.36 67.8446 1167.71 89.5229 1155.08 106.732C1154.56 107.089 1154.05 107.454 1153.52 107.81C1152.46 85.253 1156.11 62.0387 1164.6 40.2308C1157.9 51.4401 1152.51 63.5607 1148.52 76.2504C1145.79 66.5261 1141.74 57.3061 1136.49 48.9743C1143.25 66.082 1145.01 84.5683 1142.25 101.829C1139.92 94.9402 1137.31 88.6902 1137.31 88.6902C1142 100.408 1137.31 109.781 1137.31 109.781L1130.58 85.0957C1129.64 76.8749 1127.85 68.9086 1125.66 61.1319C1126.14 71.3882 1125.9 81.663 1124.14 91.4289C1123.64 94.2185 1122.99 96.9572 1122.22 99.6219C1120.23 93.4783 1117.67 87.6215 1114.56 82.2089C1116.51 92.7242 1116.47 103.272 1114.72 113.195C1113.3 113.82 1112.1 113.117 1111.11 111.687C1111.11 110.72 1111.08 109.767 1111.03 108.851C1110.68 103.045 1109.5 98.0397 1108.17 93.0573C1105.42 83.1249 1101.27 73.9049 1096.07 65.7166C1097.24 75.3529 1096.92 84.8597 1095.31 93.8207C1094.47 98.2757 1093.41 102.782 1091.85 106.372C1090.76 108.981 1089.37 111.072 1087.91 112.492C1086.85 111.872 1085.95 110.753 1085.2 109.295C1080.97 84.832 1084.34 58.3285 1095.64 34.7488C1085.7 49.0576 1078.71 65.7073 1075.22 83.3377C1074.42 77.1617 1073.8 70.9395 1073.42 64.671C1071.19 76.5464 1069.75 88.6717 1069.12 100.936C1066.54 95.5138 1063.68 90.277 1060.54 85.2853C1063.43 75.3945 1066.69 65.5778 1070.36 55.8859C1064.02 67.2848 1058.23 79.0353 1052.98 91.0773C1052.95 90.5453 1052.94 90.0133 1052.9 89.4813C1052.15 78.9845 1050.16 68.9132 1051.58 58.5829C1048.5 68.557 1048.82 79.3546 1047.9 89.4443C1047.56 93.2702 1046.99 97.0451 1046.07 100.626C1045.63 98.766 1045.15 96.9387 1044.61 95.1437C1043.36 90.809 1041.61 86.7194 1040.1 82.5373L1035.43 70.1207L1037.68 83.1758C1038.33 87.2098 1039.17 91.2161 1039.61 95.2316C1036.57 87.7973 1032.18 81.2097 1027.24 75.2882C1026.9 74.1085 1026.52 72.9473 1026.05 71.8323C1026.68 77.208 1025.78 82.4726 1023.98 87.2329C1022.29 91.7203 1019.79 95.796 1016.85 99.3906C1020.58 84.707 1025.12 70.1716 1030.53 55.8859C1025.25 65.365 1020.36 75.0892 1015.83 85.017C1016.05 80.0207 1015.79 75.0383 1015.05 70.1669C1014.97 75.9034 1014.2 81.5612 1012.86 87.0294C1012.02 77.4116 1010.43 68.1083 1011.74 58.5829C1008.67 68.557 1008.99 79.3546 1008.07 89.4443C1007.72 93.2702 1007.15 97.0451 1006.23 100.626C1005.8 98.766 1005.31 96.9387 1004.78 95.1437C1003.52 90.809 1001.77 86.7194 1000.26 82.5373L995.589 70.1207L997.842 83.1758C998.481 87.2098 999.327 91.2161 999.767 95.2316C996.727 87.7973 992.342 81.2097 987.401 75.2882C987.063 74.1085 986.684 72.9473 986.207 71.8323C986.836 77.208 985.944 82.4726 984.144 87.2329C982.34 92.0072 979.652 96.3327 976.46 100.089C975.331 101.412 974.133 102.657 972.898 103.869C976.095 92.7751 976.895 81.1958 975.202 70.1623C974.98 86.1736 969.539 101.579 960.564 113.815C960.208 114.06 959.857 114.31 959.496 114.555C958.742 98.5255 961.3 82.0423 967.333 66.5446C962.568 74.5248 958.756 83.1666 955.92 92.2061C953.981 85.2761 951.099 78.6976 947.357 72.7622C953.57 88.482 953.856 105.844 948.92 120.838L942.814 116.401C943.586 111.969 943.785 107.533 943.568 103.24C943.179 95.6758 941.639 88.4311 939.663 81.4039C940.001 88.6948 939.83 95.995 938.581 102.939C937.716 107.81 936.231 112.455 934.14 116.619C932.553 116.887 930.883 117.141 929.319 117.312C929.319 116.632 929.305 115.966 929.264 115.319C929.014 111.192 928.176 107.634 927.233 104.091C925.276 97.0313 922.329 90.4759 918.628 84.6562C919.461 91.5076 919.234 98.2618 918.091 104.632C917.504 107.755 916.764 110.905 915.681 113.44C913.983 112.853 912.151 112.265 910.324 111.706C908.298 95.4352 910.902 78.1518 918.327 62.6448C914.506 68.1453 911.305 74.1408 908.765 80.4602C908.395 77.4486 907.687 74.5248 906.535 71.8231C907.164 77.1987 906.271 82.4633 904.472 87.2237C903.556 89.6478 902.404 91.9563 901.081 94.1352C900.692 90.7442 900.396 87.3347 900.188 83.9067C899.286 88.7133 898.569 93.5801 898.032 98.4885C897.616 99.0205 897.218 99.5664 896.783 100.08C895.659 101.403 894.456 102.647 893.221 103.86C896.418 92.7659 897.218 81.1865 895.525 70.1531C895.303 86.1643 889.867 101.57 880.887 113.806C880.531 114.051 880.18 114.301 879.819 114.546C879.065 98.5162 881.623 82.0331 887.656 66.5353C882.891 74.5155 879.079 83.1573 876.243 92.1969C874.304 85.2669 871.422 78.6884 867.68 72.753C873.634 87.8159 874.133 104.382 869.822 118.936C867.43 119.579 864.636 120.005 862.512 119.422C863.812 113.995 864.164 108.504 863.891 103.235C863.669 98.9279 863.049 94.7366 862.212 90.6193C863.664 85.5305 864.608 80.3584 865.112 75.2141C866.019 66.1884 865.602 57.2413 864.617 48.4885C863.627 39.7265 862.04 31.1264 860.458 22.5356C860.879 31.2606 861.296 39.9949 861.106 48.6505C860.916 57.2968 860.134 65.8831 858.177 74.0715C856.669 80.4695 854.43 86.6177 851.442 92.2107C852.173 87.3764 852.33 82.505 851.914 77.7169C851.173 69.3851 848.865 61.4188 845.636 54.0308C842.402 46.6335 838.257 39.7774 833.622 33.3655C837.262 40.3881 840.297 47.7021 842.323 55.2012C844.35 62.691 845.34 70.3751 844.886 77.851C844.618 82.3153 843.776 86.7102 842.43 90.8784C841.352 88.7319 840.214 86.6362 838.951 84.6562C839.529 89.4073 839.562 94.1029 839.168 98.6643C839.145 98.7059 839.127 98.7475 839.108 98.7892C837.489 101.852 835.528 104.664 833.302 107.139C831.933 104.544 830.827 101.741 830.009 98.8031C830.314 86.5298 833.159 74.0992 838.646 62.6448C834.825 68.1453 831.623 74.1408 829.083 80.4602C829.032 80.0439 828.982 79.6275 828.912 79.2158C829.652 74.4971 831.11 69.8061 833.413 65.3742C831.151 67.8261 829.148 70.5694 827.441 73.5302C827.242 72.9658 827.085 72.3783 826.854 71.8278C826.951 72.6605 827.002 73.4839 827.025 74.3074C824.397 79.0539 822.482 84.3231 821.455 89.856C821.335 90.4944 821.256 91.1467 821.163 91.7897C820.895 89.1713 820.668 86.5483 820.511 83.9114C819.72 88.1166 819.086 92.368 818.577 96.6472C817.675 94.9309 816.833 93.1776 816.093 91.3688C816.972 84.2537 816.917 77.097 815.852 70.1531C815.778 75.3668 815.145 80.5111 814.025 85.5074C813.03 82.1395 812.304 78.6699 811.916 75.1355C810.296 60.5445 814.145 44.8894 823.055 32.1443C813.146 42.5439 806.637 56.5983 805.161 71.6149C801.692 78.1425 798.81 85.0355 796.566 92.1922C794.628 85.2622 791.745 78.6837 788.003 72.7483C793.383 86.3493 794.318 101.181 791.278 114.648L784.237 109.258C784.325 107.227 784.316 105.215 784.214 103.23C783.821 95.6665 782.285 88.4219 780.309 81.3947C780.647 88.6856 780.476 95.9857 779.227 102.93C778.639 106.228 777.765 109.429 776.627 112.45C774.665 113.917 772.325 115.184 769.914 115.48C769.91 115.425 769.91 115.365 769.91 115.314C769.66 111.187 768.822 107.63 767.879 104.086C766.107 97.6928 763.489 91.7389 760.264 86.3448C763.234 76.0885 766.607 65.9201 770.405 55.872C764.062 67.2709 758.27 79.0214 753.02 91.0634C752.992 90.5314 752.978 89.9994 752.941 89.4674C752.77 87.071 752.534 84.6932 752.289 82.3338C753.727 75.5981 755.939 68.9687 758.969 62.6401C756.174 66.6649 753.723 70.9534 751.604 75.4362C751.1 69.82 750.841 64.2315 751.618 58.569C749.175 66.4844 748.87 74.918 748.389 83.1064C746.908 87.1497 745.696 91.3179 744.776 95.5693C744.734 95.4259 744.692 95.2732 744.651 95.1298C743.596 91.4844 742.194 88.0148 740.876 84.5127C740.862 84.3092 740.843 84.1103 740.829 83.9067C740.806 84.0177 740.792 84.1288 740.774 84.2398C740.561 83.6662 740.339 83.0972 740.136 82.5235L735.468 70.1068L737.721 83.1619C738.239 86.4326 738.905 89.6848 739.372 92.937C739.317 93.3303 739.252 93.7189 739.201 94.1167C736.185 87.1265 731.975 80.9089 727.279 75.2788C727.062 74.5248 726.817 73.7892 726.553 73.0583C735.907 27.37 774.069 16.0358 774.069 16.0358C730.43 17.8539 713.193 65.0642 707.65 86.1412C706.596 82.9815 705.337 79.7709 703.848 76.5696C704.819 73.1925 705.925 69.8384 707.211 66.5353C705.657 69.1353 704.241 71.8324 702.895 74.5664C697.672 64.0789 689.816 53.892 677.992 46.504C640.497 23.0677 607.688 67.5947 607.688 67.5947C607.688 67.5947 642.837 41.8176 663.928 46.504C675.961 49.1779 685.704 72.4476 691.852 92.3773C692.634 100.765 691.995 109.152 689.918 117.012L682.738 116.082C683.469 111.756 683.654 107.426 683.437 103.235C683.048 95.6711 681.508 88.4265 679.532 81.3994C679.87 88.6902 679.699 95.9904 678.45 102.934C677.585 107.792 676.109 112.423 674.027 116.577L669.184 117.576C669.188 116.804 669.174 116.045 669.133 115.314C668.883 111.187 668.045 107.63 667.106 104.086C665.149 97.0266 662.203 90.4713 658.497 84.6515C659.33 91.5029 659.103 98.2572 657.96 104.627C657.364 107.796 656.614 110.998 655.504 113.551C655.407 113.792 655.286 113.991 655.18 114.218L650.022 110.248C648.324 94.4082 650.993 77.6891 658.196 62.6448C649.148 75.6814 643.517 91.4428 642.185 107.912L638.544 108.652C639.488 99.1685 638.743 89.7774 636.426 81.0709C635.533 92.2524 632.068 102.768 626.817 111.738C618.735 100.825 612.064 88.4959 607.225 75.191C607.47 79.5396 607.933 83.9021 608.571 88.2646C600.568 109.42 589.359 104.16 586.254 102.166C589.627 92.493 593.411 82.8982 597.704 73.4423C589.211 83.0602 581.221 93.2562 573.741 103.933L574.8 94.5007L577.756 68.1684L567.981 92.7937L563.096 105.109C562.8 105.844 562.499 106.603 562.203 107.362C563.045 102.791 563.285 98.2433 563.026 93.8114C562.402 83.6708 559.561 74.3629 556.568 65.2678C557.285 74.8163 557.697 84.4711 556.004 93.4136C555.273 97.3875 554.042 101.218 552.409 104.701C546.155 103.059 538.646 90.9478 534.922 84.2676C533.632 74.659 532.54 64.9948 531.721 55.2798C529.949 68.5246 528.672 81.885 527.798 95.3103C524.162 99.719 519.813 101.57 519.813 101.57C514.928 93.025 513.438 78.2766 513.128 66.1005C513.369 63.991 513.623 61.8814 513.933 59.7765C516.811 39.8607 522.339 20.1531 528.219 0.625977C520.141 19.3574 512.351 38.3202 507.045 58.3701C504.579 67.7104 502.715 77.3005 501.711 87.0849C501.318 80.4417 500.489 73.9187 499.444 67.493C498.051 59.0918 496.423 50.8942 494.702 42.6087C492.921 34.3602 490.571 25.9868 486.153 18.793C489.516 26.5327 490.608 34.8367 491.223 43.113C491.764 51.4309 492.241 59.8598 492.44 68.136C492.625 76.4262 492.417 84.6561 491.417 92.6271C490.899 96.6102 490.159 100.51 489.22 104.313C489.09 104.808 488.924 105.28 488.785 105.766C488.41 87.8251 485.51 70.1993 480.231 53.5866C481.809 69.7644 481.147 85.9191 478.464 101.5C473.986 107.213 470.836 100.339 468.698 90.5175C468.226 86.8305 467.764 83.3192 467.537 79.6691C466.704 67.8631 467.296 55.7055 469.406 43.5525C463.258 54.2436 458.28 65.8969 454.732 78.2304C454.228 79.9328 453.769 81.6769 453.339 83.4256C452.511 76.6713 452.062 69.8246 452.03 62.9131C448.5 76.1949 446.497 90.0919 446.118 104.243C443.703 99.0297 441.885 93.3673 440.65 87.4827C438.498 77.319 437.906 66.5955 438.059 55.8673C436.666 61.7704 435.496 67.7659 434.705 73.8632C430.426 53.0222 423.732 47.6559 423.732 47.6559C435.45 66.4012 426.077 106.242 426.077 106.242C416.011 103.365 413.017 96.0875 412.194 90.8877C413.697 85.7063 414.66 80.4371 415.173 75.1956C416.08 66.1699 415.664 57.2228 414.678 48.4701C413.688 39.708 412.101 31.1079 410.519 22.5171C410.94 31.2421 411.357 39.9764 411.167 48.632C410.977 57.2783 410.195 65.8645 408.238 74.0529C406.73 80.4509 404.491 86.5992 401.503 92.1922C402.234 87.3579 402.391 82.4865 401.975 77.6984C401.234 69.3666 398.926 61.4003 395.697 54.0122C392.463 46.6149 388.318 39.7589 383.683 33.347C387.328 40.3696 390.358 47.6836 392.385 55.1827C394.411 62.6725 395.401 70.3566 394.947 77.8325C394.499 85.2437 392.509 92.4837 389.169 98.7707C387.55 101.833 385.589 104.646 383.363 107.121C377.095 95.2594 376.341 79.0677 383.479 65.3557C377.442 71.9018 373.255 80.5111 371.52 89.8375C370.896 93.1869 370.595 96.6472 370.623 100.145C366.034 92.6918 362.967 84.1056 361.977 75.1216C360.357 60.5306 364.206 44.8755 373.116 32.1303C362.388 43.3905 355.629 58.9253 354.949 75.3344C354.491 86.6362 356.915 98.1739 362.014 108.671L359.691 108.476C358.623 106.367 357.6 104.225 356.61 102.06C355.528 90.7026 351.012 69.5655 332.725 58.1342C306.911 42.0027 284.326 72.6559 284.326 72.6559C284.326 72.6559 295.387 64.5507 307.036 60.2946C303.488 68.3766 299.463 76.2596 296.803 85.1651C295.743 88.7781 294.989 92.5438 294.61 96.4298L291.839 90.9478C292.385 88.2276 292.806 85.5213 293.148 82.7918C293.759 77.7123 293.981 72.6327 293.842 67.6087C292.81 72.5309 291.436 77.3375 289.729 81.9822C288.008 86.5899 286.019 91.193 283.632 95.2131C281.217 99.2749 278.326 102.449 274.764 104.577C274.639 104.651 274.504 104.711 274.38 104.78C280.75 86.9323 282.6 67.9417 279.922 50.0199C279.431 61.3448 277.123 72.3921 273.325 82.7224C276.091 66.9749 278.691 51.2088 281.074 35.4288C274.393 55.9367 267.389 76.3105 260.066 96.5409C259.89 94.2787 259.65 92.058 259.395 89.8652C259.923 82.1395 261.07 74.3166 262.393 66.4567L271.063 17.6966L255.56 64.7959C253.691 70.6619 251.887 76.6066 250.37 82.7039C249.181 78.471 248.274 74.1177 247.696 69.6858C248.815 66.6001 250.032 63.5376 251.461 60.5352C250.013 62.307 248.63 64.1343 247.298 66.008C247.085 63.6255 246.96 61.2199 246.942 58.805C246.183 62.1451 245.628 65.5546 245.248 69.0011C239.396 77.8603 234.789 87.7603 231.698 98.3034C227.128 79.5997 225.916 59.7302 228.446 39.9995C222.529 58.8513 220.04 79.1001 221.275 99.4507C217.209 94.5932 215.164 87.4967 215.164 87.4967C215.701 92.8538 215.127 96.7259 213.934 99.5386C213.911 99.261 213.887 98.9696 213.86 98.6967L213.082 90.1336L209.983 55.872L200.259 88.866L197.825 97.1145C197.492 98.2525 197.159 99.3628 196.831 100.455L194.073 92.183L192.704 94.3064C194.638 87.765 196.511 81.2096 198.256 74.6404C192.815 84.3184 187.143 93.8299 181.296 103.198C187.157 76.4308 194.999 49.9412 204.797 24.0392C195.873 40.0736 187.726 56.6075 180.338 73.544C180.297 72.7992 180.278 72.0451 180.227 71.3003C179.7 63.8938 178.742 56.6908 178.159 49.4878C177.576 42.2941 177.364 35.0588 178.372 27.828C176.216 34.7997 175.231 42.1692 174.648 49.4832C174.061 56.8065 173.843 64.1205 173.2 71.2448C172.71 76.6297 171.914 81.9406 170.614 86.9739C170.003 84.3554 169.323 81.7833 168.574 79.262C166.714 73.1925 164.665 67.331 162.509 61.4512C160.353 55.5898 158.059 49.7932 155.653 44.0659C156.944 50.1494 158.105 56.2421 159.113 62.3533C160.043 68.0158 160.876 73.7291 161.519 79.3592C157.249 68.9271 151.096 59.6886 144.171 51.3753C143.69 49.696 143.13 48.0537 142.454 46.4716C143.343 54.0354 142.08 61.4419 139.554 68.1406C137.014 74.8532 133.234 80.946 128.742 86.2245C127.156 88.0842 125.467 89.8375 123.732 91.5399C128.229 75.9358 129.353 59.6423 126.975 44.1261C126.665 66.6464 119.013 88.3247 106.384 105.534C105.866 105.89 105.357 106.256 104.83 106.612C103.766 84.0548 107.416 60.8405 115.905 39.0326C109.211 50.2419 103.812 62.3579 99.824 75.0522C97.0992 65.3279 93.0513 56.1079 87.7959 47.7762C94.5594 64.8838 96.3127 83.3701 93.5555 100.63C91.2239 93.742 88.6194 87.492 88.6194 87.492C93.3057 99.2101 88.6194 108.583 88.6194 108.583L81.8882 83.8975C80.9491 75.6767 79.1588 67.7104 76.9706 59.9338C77.4471 70.1901 77.2019 80.4648 75.444 90.2307C74.949 93.0203 74.2967 95.759 73.5241 98.4237C71.5348 92.2801 68.9765 86.4234 65.8631 81.0108C67.8154 91.5261 67.7737 102.074 66.0297 111.997C64.6048 112.622 63.4066 111.918 62.412 110.489C62.412 109.522 62.3888 108.569 62.3333 107.653C61.9817 101.847 60.8021 96.8415 59.479 91.8591C56.7264 81.9267 52.5813 72.7067 47.3722 64.5184C48.5426 74.1547 48.2234 83.6615 46.6135 92.6225C45.7762 97.0775 44.7214 101.583 43.1578 105.173C42.0706 107.778 40.6781 109.874 39.2116 111.294C38.1522 110.674 37.2594 109.554 36.5053 108.097C32.2816 83.6338 35.6494 57.1303 46.942 33.5506C37.0095 47.8594 30.0194 64.5091 26.5266 82.1395C25.717 75.9635 25.1017 69.7413 24.727 63.4729C22.4972 75.3483 21.0538 87.4735 20.4293 99.7375C17.8294 94.2833 14.9519 89.0233 11.7922 84.0038C13.4067 90.9061 14.5216 97.8454 15.1415 104.743C15.4469 108.217 15.6782 111.627 15.4006 114.648C15.3451 115.365 15.2433 116.054 15.123 116.711C11.7366 109.129 6.26849 103.092 0 99.3536C4.9269 107.579 5.84288 117.058 3.60843 124.506L6.43965 124.46L1.90599 132.015H111.926L112.194 132.324C112.282 132.223 112.375 132.116 112.463 132.015H633.072L638.151 133.185H1050.59H1074.03H1160.61L1160.88 133.495C1160.97 133.393 1161.06 133.287 1161.15 133.185H1484.12H1685.66H1896.57H1920L1912.16 124.881ZM147.205 103.952C137.833 110.984 147.205 80.5157 147.205 80.5157L142.316 86.3817C144.189 80.8766 145.42 75.2188 145.855 69.5332C146.331 63.4127 145.818 57.2552 144.208 51.5558C149.755 61.8213 154.043 72.7345 155.764 83.8003C156.379 87.7048 156.643 91.6371 156.569 95.5046L151.892 89.8884C151.892 89.8884 156.583 96.9202 147.205 103.952ZM241.543 102.944C241.658 95.1669 242.709 87.2931 244.675 79.535C244.675 86.1412 245.35 92.8214 246.724 99.4368C245.6 101.209 243.787 102.291 241.543 102.944ZM334.89 97.517C333.044 94.2786 331.527 90.7396 330.454 86.9693C329.903 90.0364 329.676 93.2285 329.713 96.4668C324.389 83.5459 313.591 75.834 313.591 75.834C318.971 79.8681 318.176 90.0734 316.52 98.0444C315.678 94.5377 315.076 90.8044 314.516 87.0664C311.195 91.6186 307.822 96.1846 305.121 101.819C305.084 101.898 305.051 101.981 305.014 102.055C304.954 101.829 304.866 101.616 304.811 101.389C303.65 96.7491 303.353 91.6417 303.719 86.5113C304.334 77.7816 306.707 68.8531 308.475 59.8459C313.596 58.1249 318.745 57.2367 323.047 58.1897C331.504 60.0679 338.309 76.713 342.528 90.6101C338.397 87.2607 334.682 85.2067 334.682 85.2067C335.603 89.819 335.431 94.0566 334.89 97.517ZM724.925 84.5266C725.225 81.0477 725.669 77.7307 726.262 74.5803C726.35 78.0037 725.85 81.3531 724.925 84.5266ZM736.013 108.939C732.734 110.438 729.19 112.506 725.993 114.176C725.443 110.355 725.087 106.709 724.846 103.166C726.812 98.3312 728.117 93.2886 728.505 88.2137C728.843 83.8373 728.459 79.4425 727.302 75.376C731.262 82.69 734.32 90.4667 735.546 98.3543C736.106 101.898 736.254 105.469 736.013 108.939ZM758.733 104.669C758.335 106.788 757.854 108.907 757.257 110.85C755.92 111.192 754.731 111.997 753.598 112.626C755.346 104.595 757.35 96.5963 759.602 88.6485C759.945 94.1352 759.653 99.5294 758.733 104.669ZM801.215 113.843C800.859 114.088 800.507 114.338 800.146 114.583C799.54 101.694 801.109 88.519 804.884 75.7877C804.592 84.2537 805.92 92.8399 808.77 101.019C806.66 105.567 804.125 109.874 801.215 113.843ZM994.53 117.757C993.873 118.182 993.216 118.608 992.55 119.033L993.632 120.283C993.623 120.306 993.614 120.329 993.605 120.352C987.294 121.018 980.952 120.486 977.506 116.822C980.068 113.066 982.395 109.115 984.274 104.905C986.656 99.5525 988.192 93.8993 988.627 88.2137C988.965 83.8373 988.581 79.4425 987.424 75.376C991.384 82.69 994.442 90.4667 995.668 98.3543C996.718 105.011 996.385 111.775 994.53 117.757ZM1034.32 117.919C1029.59 119.367 1023.19 120.236 1016.49 118.03C1019.39 113.917 1022.03 109.577 1024.11 104.905C1026.49 99.5525 1028.03 93.8993 1028.46 88.2137C1028.8 83.8373 1028.42 79.4425 1027.26 75.376C1031.22 82.69 1034.28 90.4667 1035.5 98.3543C1036.56 105.072 1036.22 111.895 1034.32 117.919ZM1052.95 115.513C1053.05 115.055 1053.14 114.592 1053.24 114.134C1053.29 114.606 1053.32 115.078 1053.35 115.55L1052.95 115.513ZM1064.09 115.878C1064.03 116.595 1063.94 117.285 1063.82 117.942C1061.67 113.126 1058.67 108.958 1055.16 105.585C1056.77 98.817 1058.56 92.0766 1060.52 85.3732C1062.11 92.2292 1063.22 99.1176 1063.83 105.969C1064.14 109.443 1064.38 112.857 1064.09 115.878ZM1195.89 105.122C1186.52 112.154 1195.89 81.6908 1195.89 81.6908L1191 87.5568C1192.87 82.0516 1194.1 76.3938 1194.54 70.7082C1195.02 64.5877 1194.5 58.4303 1192.89 52.7308C1198.44 62.9963 1202.72 73.9095 1204.45 84.9754C1205.06 88.8799 1205.33 92.8121 1205.25 96.6796L1200.58 91.0634C1200.58 91.0634 1205.26 98.0906 1195.89 105.122ZM1290.22 104.114C1290.34 96.3373 1291.39 88.4635 1293.35 80.7054C1293.35 87.3116 1294.03 93.9918 1295.4 100.607C1294.28 102.379 1292.47 103.462 1290.22 104.114ZM1408.38 109.702C1408.32 109.601 1408.28 109.499 1408.23 109.397C1408.03 107.181 1407.89 105.016 1407.77 102.902C1408.63 105.27 1409.59 107.616 1410.7 109.897L1408.38 109.702ZM1616.67 94.0011L1611.78 106.316C1611.48 107.052 1611.18 107.81 1610.89 108.569C1611.73 103.998 1611.97 99.4508 1611.71 95.0189C1611.09 84.8783 1608.25 75.5703 1605.25 66.4752C1605.97 76.0237 1606.38 85.6785 1604.69 94.621C1603.96 98.5949 1602.73 102.425 1601.1 105.909C1594.84 104.267 1587.34 92.1552 1583.61 85.475C1582.5 77.1941 1581.57 68.867 1580.8 60.5074C1590.56 54.5073 1607.66 45.5741 1619.43 48.1925C1628.37 50.1818 1635.77 66.0033 1640.85 81.1264C1634.41 88.8105 1628.26 96.823 1622.44 105.141L1623.5 95.7081L1626.45 69.3758L1616.67 94.0011ZM1634.94 103.369C1637.11 97.133 1639.48 90.9293 1642.03 84.7765C1644.37 92.22 1646.11 99.1871 1647.16 103.883C1641.78 107.024 1636.84 104.59 1634.94 103.369ZM1687.04 113.107C1686.97 113.181 1686.91 113.251 1686.84 113.325L1686.82 113.32C1686.92 112.571 1687 111.821 1687.09 111.072C1687.07 111.752 1687.04 112.427 1687.04 113.107ZM1708.61 119.487C1707.14 119.117 1706 118.27 1705.51 116.693C1705.42 116.211 1705.32 115.73 1705.24 115.245C1704.92 109.476 1709.76 96.4854 1704.12 98.1462C1704.37 90.6563 1705.56 83.1249 1707.73 75.7924C1712.69 90.2122 1712.8 105.77 1708.61 119.487ZM1755.16 111.396C1750.03 109.855 1745.42 108.638 1745.42 108.638L1738.86 113.602C1740.59 110.817 1742.19 107.935 1743.54 104.905C1745.92 99.5525 1747.46 93.8993 1747.89 88.2137C1748.23 83.8373 1747.85 79.4425 1746.69 75.376C1750.65 82.69 1753.71 90.4667 1754.93 98.3543C1755.63 102.745 1755.71 107.172 1755.16 111.396ZM1779.59 75.5426C1779.58 75.5564 1779.58 75.5657 1779.57 75.575C1779.55 75.5056 1779.52 75.4454 1779.5 75.376C1779.53 75.4315 1779.56 75.4871 1779.59 75.5426ZM1787.27 115.328L1787.18 115.263C1787.18 115.263 1777.26 117.507 1771.96 117.581C1772.44 115.245 1772.94 112.908 1773.46 110.572C1774.49 108.731 1775.48 106.853 1776.35 104.905C1778.73 99.5525 1780.27 93.8993 1780.7 88.2137C1780.84 86.4049 1780.82 84.6007 1780.71 82.8057C1781.03 81.7463 1781.33 80.6869 1781.66 79.6321C1784.55 85.6786 1786.75 91.9794 1787.74 98.3543C1788.65 104.123 1788.53 109.975 1787.27 115.328ZM1810.14 116.799L1804.55 118.645C1806.55 108.736 1808.92 98.8724 1811.68 89.088C1813 98.4838 1812.44 107.972 1810.14 116.799ZM1821.06 113.2L1819.51 113.713C1819.01 101.098 1820.58 88.2322 1824.27 75.7877C1823.98 84.2537 1825.31 92.8399 1828.16 101.019C1826.16 105.326 1823.78 109.406 1821.06 113.2ZM1834.84 120.602C1835.48 119.732 1836.11 118.848 1836.74 117.96C1837.32 118.802 1837.91 119.63 1838.53 120.449C1837.29 120.555 1836.05 120.611 1834.84 120.602ZM1840.17 95.1206C1839.62 95.9626 1839.07 96.7953 1838.48 97.5956C1837.38 95.5925 1836.35 93.5431 1835.48 91.4104C1835.92 87.8528 1836.13 84.2861 1836.09 80.7378C1837.88 84.6192 1839.37 88.5977 1840.43 92.6317C1840.32 93.4506 1840.24 94.2832 1840.17 95.1206ZM1862.47 118.03C1862.66 117.761 1862.85 117.493 1863.04 117.225C1863.06 117.567 1863.07 117.914 1863.1 118.256C1862.89 118.191 1862.68 118.099 1862.47 118.03ZM1862.82 99.4183C1863.38 97.2301 1863.95 95.042 1864.55 92.8631C1864.19 94.6997 1863.87 96.5454 1863.62 98.4098C1863.36 98.7429 1863.1 99.0852 1862.82 99.4183ZM1880.3 117.919C1876.02 119.228 1870.36 120.06 1864.36 118.575L1873 117.16C1871.86 112.645 1871.12 107.995 1870.74 103.281C1872.72 98.4145 1874.05 93.3349 1874.44 88.2184C1874.78 83.842 1874.4 79.4471 1873.24 75.3806C1877.2 82.6946 1880.26 90.4713 1881.48 98.359C1882.54 105.072 1882.19 111.895 1880.3 117.919ZM1898.93 115.513C1899.03 115.055 1899.12 114.592 1899.21 114.134C1899.27 114.606 1899.3 115.078 1899.33 115.55L1898.93 115.513Z" fill="white"/>
</svg>
