<svg width="338" height="348" viewBox="0 0 338 348" fill="none" xmlns="http://www.w3.org/2000/svg">
<g opacity="0.05">
<path d="M60.3267 53.1319C60.2906 37.9027 53.4531 22.8259 42.1045 12.9482C30.7558 3.07055 15.0809 -1.44152 0.279785 0.8993C8.37025 27.2543 32.1409 47.7993 60.3267 53.1319Z" fill="white"/>
<path d="M69.0931 67.669C59.433 46.0392 63.7324 18.6805 79.5706 1.14355C87.6025 10.6271 91.8292 23.3833 91.0845 35.9475C90.3322 48.469 84.6288 60.6615 69.0931 67.669Z" fill="white"/>
<path d="M80.3137 90.2023C73.8206 77.7121 61.8069 68.3515 48.2659 65.221C34.7252 62.0905 19.888 65.2381 8.66089 73.5995C26.2604 92.6964 54.8924 100.308 80.3137 90.2023Z" fill="white"/>
<path d="M91.8878 110.449C86.1434 97.1596 86.0593 81.405 91.6363 67.989C97.2133 54.5735 108.439 43.6767 121.832 38.6484C127.628 64.2288 117.981 92.7964 91.8878 110.449Z" fill="white"/>
<path d="M98.4197 128.716C90.1932 116.487 76.8979 107.93 62.4786 105.622C48.0849 103.331 32.791 107.293 21.2212 116.36C41.4112 134.889 71.7159 141.139 98.4197 128.716Z" fill="white"/>
<path d="M106.85 148.161C104.207 133.791 107.889 118.33 116.724 106.742C125.567 95.1981 139.394 87.7128 153.715 86.8135C153.728 112.768 137.36 138.027 106.85 148.161Z" fill="white"/>
<path d="M112.811 173.668C106.247 160.901 94.1446 151.289 80.4212 147.879C66.6978 144.469 51.5488 147.361 39.9209 155.593C58.1344 173.758 85.0121 182.524 112.811 173.668Z" fill="white"/>
<path d="M116.98 194.174C116.453 180.833 121.327 167.341 130.2 157.481C139.072 147.622 151.854 141.522 164.957 140.904C164.925 153.476 160.554 166.035 152.783 175.833C145.056 185.625 133.946 192.631 116.98 194.174Z" fill="white"/>
<path d="M122.061 220.993C116.999 208.673 107.109 198.493 95.0969 193.181C83.0845 187.868 69.0075 187.501 56.6802 192.142C71.3148 211.583 95.5858 223.099 122.061 220.993Z" fill="white"/>
<path d="M52.4829 42.9482C98.7509 106.861 124.149 186.261 123.821 265.833" stroke="white" stroke-width="7.0337" stroke-miterlimit="10" stroke-linecap="round"/>
<path d="M265.576 158.162C269.889 143.552 280.689 131.011 294.349 124.695C308.008 118.378 324.336 118.471 337.874 124.855C322.694 147.9 294.131 160.967 265.576 158.162Z" fill="white"/>
<path d="M253.082 169.636C268.416 151.596 271.967 124.123 261.698 102.812C251.31 109.664 243.677 120.737 240.868 132.978C238.085 145.254 240.149 158.576 253.082 169.636Z" fill="white"/>
<path d="M235.994 188.142C245.757 177.993 259.889 172.362 273.755 173.169C287.628 173.946 300.985 181.147 309.424 192.329C287.166 205.701 257.54 204.968 235.994 188.142Z" fill="white"/>
<path d="M219.177 204.305C228.431 193.15 232.956 178.075 231.348 163.64C229.74 149.206 222.026 135.605 210.597 126.993C197.87 149.888 199.09 180.03 219.177 204.305Z" fill="white"/>
<path d="M207.803 219.984C219.139 210.533 234.317 206.07 248.753 207.894C263.219 209.725 276.755 217.841 285.34 229.774C260.784 241.937 229.913 239.402 207.803 219.984Z" fill="white"/>
<path d="M194.233 236.3C200.808 223.269 201.612 207.355 196.385 193.769C191.157 180.183 179.949 169.155 166.454 164.259C159.154 189.156 167.79 218.01 194.233 236.3Z" fill="white"/>
<path d="M181.334 259.102C191.203 248.721 205.532 242.874 219.662 243.446C233.793 244.018 247.529 251.037 256.381 262.2C233.809 274.538 205.563 275.38 181.334 259.102Z" fill="white"/>
<path d="M171.616 277.603C175.858 264.932 174.981 250.631 169.202 238.677C163.454 226.727 152.904 217.268 140.518 213.017C137.015 225.098 137.705 238.357 142.383 249.953C147.068 261.518 155.747 271.39 171.616 277.603Z" fill="white"/>
<path d="M159.191 301.939C167.522 291.528 179.858 284.528 192.894 282.822C205.93 281.115 219.543 284.679 230.056 292.619C210.546 307.154 184.014 311.366 159.191 301.939Z" fill="white"/>
<path d="M275.94 150.581C213.609 198.94 166.921 267.989 144.913 344.486" stroke="white" stroke-width="7.0337" stroke-miterlimit="10" stroke-linecap="round"/>
</g>
</svg>
