<svg width="251" height="255" viewBox="0 0 251 255" fill="none" xmlns="http://www.w3.org/2000/svg">
<path d="M113.288 20.7511C113.288 20.7511 91.8557 46.2241 108.171 102.125C108.171 102.125 129.601 76.65 113.288 20.7511Z" fill="#FBFBFB"/>
<path d="M18.0691 131.678C18.0691 131.678 59.2021 142.731 108.246 102.068C108.246 102.068 62.7886 87.6167 18.0691 131.678Z" fill="#FBFBFB"/>
<path d="M201.775 33.9629C201.775 33.9629 154.526 33.6156 108.215 102.075C108.215 102.075 155.463 102.422 201.775 33.9629Z" fill="#FBFBFB"/>
<path d="M233.571 131.724C233.571 131.724 201.289 85.0549 108.159 101.872C108.159 101.872 151.234 136.711 233.571 131.724Z" fill="#FBFBFB"/>
<path d="M41.6077 196.137C41.6077 196.137 88.331 182.299 108.473 102.042C108.473 102.042 57.1959 135.321 41.6077 196.137Z" fill="#FBFBFB"/>
<path d="M112.544 240.057C112.544 240.057 141.86 189.075 108.195 102.117C108.195 102.117 93.8453 179.878 112.544 240.057Z" fill="#FBFBFB"/>
<path d="M199.359 219.217C199.359 219.217 203.991 154.074 108.282 102.092C108.282 102.092 121.853 164.394 199.359 219.217Z" fill="#FBFBFB"/>
<path d="M30.2416 44.765C38.2045 48.1563 45.7974 52.0301 53.2777 56.2172C60.7346 60.4165 67.9785 64.9911 74.9746 69.9224C81.9423 74.8977 88.5712 80.3465 94.8271 86.198C100.996 92.1511 106.617 98.6653 111.521 105.709L110.181 106.625C105.217 99.7965 99.5633 93.4977 93.3685 87.754C87.0833 82.1079 80.442 76.8655 73.4628 72.0894C66.4573 67.3568 59.2091 62.9821 51.7592 58.9804C44.3175 55.0053 36.6501 51.2921 28.8925 48.1718L30.2416 44.765Z" fill="#FBFBFB"/>
</svg>
