<svg width="233" height="317" viewBox="0 0 233 317" fill="none" xmlns="http://www.w3.org/2000/svg">
<path fill-rule="evenodd" clip-rule="evenodd" d="M233.017 284.325C227.984 265.386 222.045 247.172 214.97 229.678C213.739 230.509 211.525 232.077 207.883 235.472C203.866 239.216 198.11 245.184 191.61 254.999C185.11 264.813 177.865 278.476 170.872 289.774C163.879 301.071 157.137 310.004 153.572 314.124C150.007 318.244 149.618 317.551 150.765 310.615C151.913 303.678 154.597 290.495 161.077 276.592C167.557 262.69 177.833 248.066 187.624 239.332C197.415 230.598 206.72 227.753 211.445 226.959C212.384 226.802 213.142 226.725 213.755 226.709C213.043 224.987 212.319 223.273 211.584 221.565C210.054 221.812 207.845 222.268 204.691 223.199C199.716 224.666 192.392 227.313 183.118 233.083C173.843 238.853 162.617 247.745 152.397 254.62C142.179 261.493 132.966 266.351 128.291 268.374C123.616 270.397 123.479 269.585 126.814 263.863C130.149 258.141 136.958 247.506 147.548 238.033C158.138 228.559 172.51 220.245 184.506 217.023C195.482 214.074 204.469 215.387 209.498 216.809C208.045 213.558 206.55 210.334 205.011 207.134C202.522 207.354 198.781 207.462 194.391 208.963C189.279 210.711 183.285 214.348 174.804 218.015C166.323 221.683 155.354 225.382 145.973 228.498C136.592 231.613 128.798 234.144 125.032 234.975C121.266 235.806 121.527 234.935 126.697 229.927C131.866 224.919 141.943 215.772 152.07 209.908C162.196 204.043 172.372 201.459 181.358 201.097C190.343 200.736 198.141 202.596 202.662 203.618L203.375 203.778C201.685 200.357 199.944 196.966 198.148 193.605C197.933 193.645 197.61 193.657 197.088 193.677C195.719 193.73 192.98 193.836 187.597 194.927C182.215 196.018 174.189 198.095 163.516 203.062C152.844 208.029 139.523 215.887 127.655 221.86C115.787 227.833 105.369 231.923 100.175 233.57C94.9822 235.218 95.0129 234.424 99.6185 229.111C104.224 223.798 113.405 213.965 126.198 205.503C138.991 197.041 155.398 189.949 168.311 187.624C181.223 185.299 190.643 187.739 195.085 189.534C195.5 189.702 195.872 189.864 196.205 190.021C194.191 186.355 192.111 182.725 189.962 179.131C189.492 179.314 188.867 179.481 188.058 179.608C185.363 180.034 180.631 180.03 174.855 181.96C169.078 183.889 162.254 187.754 152.645 191.729C143.037 195.705 130.644 199.794 120.047 203.242C109.45 206.689 100.648 209.497 96.4065 210.458C92.1661 211.418 92.4867 210.532 98.4333 205.311C104.38 200.091 115.952 190.535 127.472 184.289C138.993 178.042 150.462 175.105 160.527 174.448C170.593 173.791 179.257 175.415 184.282 176.299C186.284 176.651 187.708 176.886 188.721 177.073C186.043 172.665 183.26 168.312 180.367 164.014C180.155 164.041 179.854 164.053 179.405 164.071C178.036 164.124 175.297 164.229 169.915 165.32C164.533 166.411 156.506 168.488 145.834 173.456C135.161 178.423 121.84 186.28 109.972 192.253C98.1046 198.226 87.6862 202.316 82.4927 203.963C77.2995 205.611 77.3302 204.818 81.9356 199.504C86.5406 194.191 95.7221 184.358 108.516 175.896C121.308 167.434 137.716 160.343 150.628 158.018C163.54 155.693 172.96 158.132 177.402 159.927L177.641 160.025C175.45 156.87 173.199 153.745 170.884 150.65C168.393 150.689 164.058 150.077 158.812 151.159C153.52 152.251 147.302 155.067 138.516 157.621C129.73 160.176 118.377 162.468 108.667 164.382C98.9577 166.296 90.8915 167.831 86.9965 168.193C83.1023 168.555 83.3797 167.742 88.759 163.503C94.1382 159.262 104.62 151.592 115.123 147.105C125.626 142.617 136.151 141.311 145.429 142.016C154.707 142.721 162.738 145.437 167.396 146.957L168.312 147.255C165.718 143.878 163.048 140.537 160.298 137.232C160.085 137.23 159.82 137.221 159.482 137.21C157.897 137.155 154.725 137.046 148.454 137.696C142.184 138.346 132.813 139.756 120.259 143.79C107.705 147.823 91.9662 154.481 77.9866 159.406C64.0074 164.332 51.7858 167.526 45.7096 168.735C39.6341 169.945 39.703 169.171 45.2561 164.328C50.8087 159.484 61.8463 150.572 77.0016 143.283C92.1571 135.993 111.433 130.326 126.464 129.052C140.606 127.853 150.991 130.543 156.385 132.616C154.194 130.078 151.954 127.563 149.666 125.069L149.535 125.06C147.062 124.875 142.775 123.829 137.403 124.41C132.03 124.991 125.572 127.202 116.583 128.906C107.594 130.61 96.0731 131.809 86.2244 132.788C76.3769 133.766 68.2007 134.525 64.2894 134.513C60.3784 134.502 60.7318 133.72 66.4914 130.013C72.2504 126.305 83.4164 119.671 94.2996 116.205C105.183 112.74 115.785 112.445 124.953 114.032C133.634 115.534 141.03 118.724 145.604 120.721C144.182 119.225 142.741 117.736 141.281 116.256C138.215 113.148 135.143 110.157 132.051 107.278C130.537 107.08 127.73 106.761 122.516 106.787C116.855 106.814 108.358 107.246 96.7831 109.742C85.2084 112.238 70.5558 116.796 57.629 119.963C44.7016 123.131 33.498 124.906 27.9616 125.45C22.4257 125.994 22.5554 125.308 27.945 121.471C33.3351 117.634 43.9849 110.644 58.172 105.468C72.3592 100.293 90.0842 96.9304 103.629 97.1192C112.558 97.244 119.67 98.9126 124.723 100.701C121.642 98.0394 118.529 95.4833 115.373 93.0268C115.037 93.0734 114.636 93.106 114.16 93.1188C112.015 93.1746 108.377 92.824 103.61 93.5533C98.8443 94.284 92.9489 96.0946 84.8924 97.7679C76.8369 99.4407 66.6194 100.977 57.892 102.26C49.1631 103.544 41.923 104.577 38.4993 104.839C35.0775 105.102 35.4721 104.595 40.9204 101.906C46.3674 99.2178 56.8674 94.3468 66.7739 91.4548C76.6806 88.5626 85.994 87.649 93.8466 87.9973C101.699 88.3459 108.092 89.9572 111.809 90.8573L112.881 91.1156C108.815 88.0414 104.67 85.1278 100.419 82.3659C99.2751 82.3711 97.2273 82.4137 93.5281 82.7668C89.3225 83.1673 82.9832 83.97 74.2179 86.0374C65.4522 88.1057 54.2601 91.4379 44.4448 93.9412C34.6292 96.4444 26.1883 98.118 22.0398 98.7752C17.8921 99.4319 18.0353 99.0723 22.3001 96.7421C26.5649 94.4117 34.9511 90.11 45.8395 86.4937C56.7283 82.8778 70.12 79.9461 80.1643 79.1164C87.0426 78.5484 92.3516 78.9659 95.9983 79.5716C94.1629 78.4442 92.3065 77.3425 90.4272 76.2671C90.0489 76.3669 89.4304 76.4257 88.5088 76.3943C86.515 76.326 83.1014 75.8356 78.7149 76.1909C74.3284 76.5464 68.9687 77.7479 61.5871 78.7176C54.2055 79.6873 44.8016 80.4247 36.7647 81.0321C28.7291 81.6392 22.0605 82.1154 18.8918 82.1512C15.7236 82.1874 16.0541 81.7822 20.9335 79.8208C25.8123 77.8587 35.2393 74.339 44.2569 72.4463C53.2744 70.5538 61.882 70.2888 69.2209 71.0046C76.559 71.7196 82.6293 73.4153 86.1567 74.3703C86.8173 74.5497 87.389 74.7024 87.8829 74.835C83.2361 72.2617 78.4451 69.8406 73.4795 67.5605C68.3833 66.0963 61.7436 65.5434 53.1245 63.6271C44.1939 61.6405 33.1374 58.1903 23.703 55.198C14.2706 52.2061 6.45968 49.6719 2.87166 48.1156C-0.716902 46.5606 -0.0834051 45.9815 6.67242 44.8511C13.4275 43.7212 26.3071 42.0384 37.6737 43.1551C49.0409 44.2727 58.8963 48.1902 66.6916 53.2702C74.487 58.3502 80.2219 64.5946 83.5743 68.1674C85.9497 70.6988 87.128 71.8891 87.6299 72.5921C88.6286 73.0941 89.6212 73.6048 90.6089 74.1251C89.023 72.0906 87.482 69.5331 86.2443 66.3574C83.1068 58.3041 81.9176 46.2761 82.9739 35.6258C84.0307 24.9744 87.3329 15.699 89.2468 10.8812C91.1609 6.06311 91.6865 5.70211 92.4661 9.25024C93.2468 12.7986 94.2812 20.256 94.5707 29.3226C94.8601 38.3892 94.4047 49.0652 94.938 57.0436C95.4723 65.0211 96.9956 70.3014 98.2212 73.7111C99.4468 77.1206 100.374 78.661 100.839 79.4304C101.078 79.8271 101.194 80.02 101.21 80.1673C102.532 80.9783 103.844 81.8054 105.146 82.6487C103.662 79.836 102.093 75.5252 101.444 69.3961C100.488 60.375 101.522 47.4151 103.924 36.2478C106.325 25.0798 110.093 15.7043 112.19 10.8634C114.288 6.02257 114.714 5.71585 114.711 9.60135C114.708 13.4875 114.276 21.5671 113.069 31.2472C111.862 40.9278 109.88 52.2104 109.015 60.769C108.149 69.3283 108.4 75.1643 108.732 78.9687C109.064 82.7734 109.478 84.5458 109.684 85.4325L109.751 85.7203C113.62 88.3776 117.407 91.173 121.122 94.0955C119.312 90.7852 117.633 86.6883 116.482 81.7246C113.705 69.7451 114.003 52.7217 116.949 38.1688C119.894 23.6169 125.486 11.5342 128.644 5.30754C131.8 -0.91861 132.523 -1.29109 132.981 3.83745C133.439 8.96634 133.632 19.5955 132.635 32.2774C131.64 44.9598 129.454 59.6958 128.932 70.9245C128.411 82.1531 129.553 89.8754 130.598 94.9217C131.643 99.9679 132.59 102.34 133.064 103.526C133.231 103.943 133.338 104.213 133.389 104.409C135.8 106.565 138.183 108.774 140.541 111.03C138.86 107.892 137.004 103.785 135.83 98.718C134.037 90.9709 133.84 80.9801 136.421 69.1923C139.003 57.404 144.364 43.8186 147.381 36.6717C150.398 29.5262 151.07 28.8185 151.249 32.4459C151.429 36.0737 151.113 44.0351 150.678 53.6566C150.241 63.2782 149.682 74.5601 148.57 83.7356C147.457 92.9115 145.79 99.9811 145.51 105.253C145.229 110.524 146.336 113.999 146.606 116.207C146.643 116.513 146.664 116.795 146.672 117.053C149.068 119.469 151.413 121.908 153.711 124.37C152.107 119.226 150.894 111.931 151.822 102.682C153.221 88.7313 159.492 70.3363 167.565 55.5191C175.639 40.7016 185.517 29.4588 190.885 23.7584C196.253 18.0575 197.112 17.8971 195.775 23.6225C194.439 29.349 190.906 40.9627 185.455 54.405C180.003 67.8474 172.631 83.1213 168.168 95.1443C163.704 107.167 162.148 115.942 161.433 121.776C160.717 127.611 160.841 130.507 160.903 131.955L160.919 132.352C164.244 136.158 167.461 140.015 170.571 143.924C169.629 140.266 168.611 135.211 168.837 129.134C169.134 121.187 171.559 111.493 177.135 100.792C182.713 90.0907 191.442 78.3814 196.224 72.2736C201.006 66.1665 201.841 65.6602 201.064 69.2079C200.288 72.756 197.9 80.3576 194.961 89.5294C192.021 98.7014 188.529 109.443 185.054 118.008C181.578 126.573 178.119 132.96 176.469 137.975C174.818 142.989 174.977 146.633 174.659 148.834C174.646 148.93 174.63 149.023 174.615 149.113C177.961 153.496 181.18 157.943 184.278 162.453L184.136 161.641C183.343 157.122 181.862 149.339 183.005 140.104C184.149 130.87 187.919 120.185 195.416 109.202C202.914 98.2214 214.141 86.9435 220.26 81.1257C226.378 75.3075 227.39 74.9483 226.137 78.8896C224.885 82.8319 221.37 91.0752 217.062 101.003C212.753 110.933 207.65 122.548 202.786 131.614C197.923 140.68 193.296 147.198 190.891 152.614C188.486 158.03 188.301 162.347 187.713 164.838C187.536 165.59 187.322 166.176 187.094 166.62C189.651 170.466 192.124 174.356 194.513 178.291C193.507 173.934 193.058 167.256 195.736 159.169C199.142 148.885 207.606 136.321 217.138 126.882C226.67 117.442 237.271 111.125 242.969 108.002C248.667 104.88 249.463 104.952 247.381 109C245.299 113.05 240.338 121.078 233.372 130.063C226.406 139.049 217.434 148.993 211.574 157.123C205.714 165.253 202.965 171.569 201.424 175.84C199.882 180.112 199.547 182.34 199.38 183.454C199.213 184.568 199.213 184.568 198.617 184.717C198.538 184.736 198.451 184.759 198.353 184.774C200.819 189.043 203.193 193.363 205.48 197.734C205.599 196.803 205.946 195.245 206.488 192.506C207.414 187.839 208.909 179.742 213.199 171.61C217.491 163.479 224.577 155.311 235.003 148.758C245.43 142.206 259.198 137.27 266.584 134.888C273.97 132.507 274.976 132.682 272.482 135.765C269.988 138.848 263.994 144.84 256.71 152.019C249.426 159.198 240.85 167.565 233.393 173.648C225.935 179.732 219.594 183.531 215.573 187.42C211.552 191.308 209.849 195.287 208.449 197.339C207.564 198.638 206.799 199.166 206.263 199.239C207.366 201.373 208.449 203.519 209.512 205.677C209.882 205.008 210.336 204.195 210.882 203.198C213.09 199.176 216.804 192.176 223.472 185.688C230.141 179.199 239.766 173.219 252.485 169.342C265.204 165.464 281.018 163.688 289.431 162.976C297.844 162.264 298.858 162.617 295.415 164.909C291.973 167.201 284.073 171.434 274.502 176.485C264.929 181.536 253.682 187.406 244.216 191.437C234.751 195.468 227.064 197.659 221.8 200.381C216.535 203.102 213.69 206.353 211.673 207.93C211.393 208.149 211.129 208.335 210.882 208.492C211.643 210.072 212.394 211.658 213.134 213.25C213.406 212.808 213.748 212.309 214.175 211.746C217.174 207.79 224.354 200.657 237.609 196.086C250.864 191.516 270.194 189.507 287.03 190.634C303.867 191.761 318.213 196.023 325.637 198.511C333.062 200.998 333.567 201.711 327.808 202.895C322.049 204.079 310.023 205.735 295.533 206.413C281.043 207.091 264.086 206.793 251.299 207.774C238.511 208.755 229.891 211.017 224.294 212.81C218.695 214.603 216.117 215.928 214.828 216.591L214.698 216.658C215.571 218.586 216.431 220.523 217.275 222.469C217.125 222.043 217.379 221.268 219.678 219.655C222.779 217.481 229.603 213.785 239.985 212.515C250.367 211.246 264.308 212.404 275.71 215.27C287.113 218.137 295.977 222.714 300.493 225.264C305.008 227.814 305.175 228.339 300.871 228.372C296.566 228.406 287.789 227.947 277.551 226.545C267.314 225.143 255.615 222.796 246.481 221.806C237.348 220.815 230.781 221.181 226.431 221.628C222.081 222.076 219.949 222.605 218.884 222.869C217.817 223.134 217.817 223.134 217.507 222.808C217.443 222.74 217.365 222.658 217.31 222.551C225.647 241.792 232.557 261.922 238.348 282.915C238.737 284.386 237.86 285.895 236.389 286.284C234.915 286.674 233.406 285.797 233.017 284.325Z" fill="#FBFBFB"/>
</svg>
