<svg width="1920" height="134" viewBox="0 0 1920 134" fill="none" xmlns="http://www.w3.org/2000/svg">
<path d="M1912.16 124.552C1910.25 116.78 1906.24 110.16 1901.14 105.256C1905.11 88.4726 1910.18 71.8692 1916.34 55.5804C1910 66.9793 1904.21 78.7299 1898.96 90.7719C1898.93 90.2399 1898.91 89.7078 1898.88 89.1758C1898.13 78.679 1896.14 68.6078 1897.56 58.2775C1894.48 68.2515 1894.8 79.049 1893.88 89.1388C1893.53 92.9646 1892.96 96.7396 1892.04 100.32C1891.61 98.4606 1891.13 96.6332 1890.59 94.8383C1889.34 90.5035 1887.58 86.414 1886.08 82.2319L1881.41 69.8151L1883.66 82.8703C1884.3 86.9043 1885.15 90.9106 1885.59 94.9262C1882.55 87.4919 1878.16 80.9042 1873.22 74.9826C1873.18 74.8485 1873.12 74.7189 1873.08 74.5848C1874.51 68.802 1876.51 63.1165 1879.13 57.6576C1875.38 63.0563 1872.22 68.9269 1869.7 75.1214C1871.8 68.5661 1874.06 62.0432 1876.5 55.5804C1871.23 65.0594 1866.34 74.7837 1861.81 84.7115C1862.02 79.7152 1861.77 74.7328 1861.02 69.8615C1860.94 75.5979 1860.17 81.2558 1858.83 86.724C1857.99 77.1061 1856.41 67.8028 1857.72 58.2775C1854.64 68.2515 1854.96 79.049 1854.04 89.1388C1853.69 92.9646 1853.13 96.7396 1852.2 100.32C1851.77 98.4606 1851.29 96.6332 1850.75 94.8383C1850.13 92.6732 1849.37 90.5683 1848.59 88.4819C1848.61 88.2829 1848.65 88.084 1848.66 87.8851C1848.9 84.8688 1848.77 81.8433 1848.31 78.9149C1849.05 74.1962 1850.51 69.5052 1852.81 65.0733C1850.55 67.5252 1848.54 70.2685 1846.84 73.2293C1846.64 72.6649 1846.48 72.0774 1846.25 71.5269C1846.35 72.3596 1846.4 73.183 1846.42 74.0065C1845.74 75.2232 1845.13 76.4769 1844.56 77.7584L1841.57 69.8151L1843.41 80.5063C1842.68 82.4401 1842.04 84.4247 1841.54 86.4602C1839.86 83.6151 1838.01 80.9088 1836.03 78.3227C1835.92 75.4776 1835.67 72.651 1835.24 69.8615C1835.21 72.1746 1835.06 74.4737 1834.81 76.7544C1834.33 76.1484 1833.85 75.5378 1833.35 74.9456C1833.82 75.8154 1834.28 76.6989 1834.73 77.5825C1834.42 80.1593 1833.99 82.7084 1833.42 85.2158C1832.43 81.8479 1831.7 78.3783 1831.31 74.8438C1829.69 60.2528 1833.54 44.5978 1842.45 31.8526C1832.54 42.2523 1826.03 56.3067 1824.56 71.3233C1821.09 77.8509 1818.21 84.7439 1815.96 91.9006C1815.18 89.1064 1814.25 86.3677 1813.16 83.7076C1815.96 74.2471 1819.1 64.8559 1822.61 55.5758C1818.44 63.0656 1814.5 70.708 1810.8 78.4847C1809.76 76.4121 1808.62 74.3997 1807.4 72.4521C1808.42 75.0289 1809.26 77.6474 1809.96 80.2935C1808.33 83.7586 1806.75 87.2513 1805.22 90.7672C1805.19 90.2352 1805.18 89.7032 1805.14 89.1712C1804.97 86.7748 1804.73 84.397 1804.49 82.0376C1805.93 75.3019 1808.14 68.6725 1811.17 62.3439C1808.37 66.3687 1805.92 70.6571 1803.8 75.1399C1803.3 69.5237 1803.04 63.9353 1803.82 58.2728C1801.38 66.1882 1801.07 74.6218 1800.59 82.8102C1799.11 86.8534 1797.9 91.017 1796.98 95.2731C1796.94 95.1297 1796.9 94.977 1796.86 94.8336C1795.6 90.4989 1793.85 86.4094 1792.34 82.2273L1787.67 69.8106L1789.93 82.8657C1790.56 86.8997 1791.41 90.906 1791.85 94.9215C1789.34 88.7918 1785.92 83.245 1782.02 78.1701C1784.39 70.5831 1786.97 63.0425 1789.8 55.5758C1786.23 61.9877 1782.85 68.5245 1779.62 75.1446C1779.57 75.089 1779.53 75.0336 1779.48 74.978C1779.15 73.7984 1778.76 72.6371 1778.29 71.5222C1778.54 73.6086 1778.54 75.6812 1778.36 77.7121C1776.3 82.0191 1774.33 86.377 1772.41 90.7672C1772.38 90.2352 1772.37 89.7032 1772.33 89.1712C1772.16 86.7748 1771.92 84.397 1771.68 82.0376C1773.12 75.3019 1775.33 68.6725 1778.36 62.3439C1775.57 66.3687 1773.11 70.6571 1770.99 75.1399C1770.49 69.5237 1770.23 63.9353 1771.01 58.2728C1768.57 66.1882 1768.26 74.6218 1767.78 82.8102C1766.3 86.8534 1765.09 91.017 1764.17 95.2731C1764.12 95.1297 1764.08 94.977 1764.04 94.8336C1762.79 90.4989 1761.03 86.4094 1759.53 82.2273L1754.86 69.8106L1757.11 82.8657C1757.75 86.8997 1758.6 90.906 1759.04 94.9215C1756 87.4872 1751.61 80.8996 1746.67 74.978C1746.33 73.7984 1745.95 72.6371 1745.48 71.5222C1746.11 76.8979 1745.21 82.1625 1743.41 86.9229C1741.61 91.6971 1738.92 96.0226 1735.73 99.779C1734.61 101.102 1733.4 102.347 1732.17 103.559C1735.36 92.465 1736.16 80.8857 1734.47 69.8522C1734.25 85.8635 1728.81 101.269 1719.83 113.505C1719.48 113.75 1719.13 114 1718.77 114.245C1718.01 98.2154 1720.57 81.7323 1726.6 66.2345C1721.83 74.2147 1718.02 82.8564 1715.18 91.896C1713.49 85.8218 1711.05 80.0252 1707.96 74.6866C1709.24 70.486 1710.82 66.3501 1712.74 62.3392C1710.49 65.5683 1708.46 68.9686 1706.65 72.503C1706.64 72.4845 1706.64 72.466 1706.62 72.4521C1706.63 72.4752 1706.64 72.4983 1706.64 72.5168C1701.91 81.7646 1698.7 91.9515 1697.27 102.522C1696.54 103.17 1695.75 103.896 1694.92 104.697C1693.83 89.7263 1696.6 74.1222 1703.36 59.9938C1694.83 72.281 1689.35 86.9969 1687.63 102.444C1687.7 95.3888 1686.84 88.468 1685.1 81.9358C1684.23 92.8351 1680.91 103.105 1675.88 111.927L1674.94 111.835C1672.84 108.962 1670.83 105.997 1668.94 102.939C1668.58 89.2452 1671.43 75.1815 1677.58 62.3392C1671.11 71.6656 1666.39 82.3984 1663.74 93.7789C1660.77 88.1025 1658.13 82.1903 1655.9 76.0559C1656.07 79.0445 1656.37 82.0376 1656.73 85.0354C1653.27 72.2208 1646.04 57.2736 1630.97 47.8546C1609.86 34.6607 1590.55 47.6835 1580.5 57.1903C1580.47 56.8434 1580.42 56.4964 1580.4 56.1494C1580.34 56.5796 1580.29 57.0099 1580.23 57.4401C1575.77 61.6962 1573.2 65.1844 1573.2 65.1844C1573.2 65.1844 1575.77 63.3015 1579.82 60.771C1578.35 72.4984 1577.24 84.3137 1576.47 96.1845C1572.83 100.593 1568.48 102.444 1568.48 102.444C1563.6 93.8992 1562.11 79.1508 1561.8 66.9747C1562.04 64.8651 1562.29 62.7556 1562.6 60.6507C1565.48 40.735 1571.01 21.0273 1576.89 1.50015C1568.81 20.2316 1561.02 39.1944 1555.71 59.2443C1553.25 68.5846 1551.38 78.1701 1550.38 87.9591C1549.99 81.3159 1549.16 74.793 1548.11 68.3672C1546.72 59.966 1545.09 51.7684 1543.37 43.4829C1541.59 35.2344 1539.24 26.8563 1534.82 19.6672C1538.18 27.4068 1539.28 35.7109 1539.89 43.9871C1540.43 52.305 1540.91 60.7339 1541.11 69.0102C1541.3 77.305 1541.09 85.5304 1540.09 93.5013C1539.57 97.4845 1538.83 101.384 1537.89 105.187C1537.76 105.682 1537.59 106.154 1537.46 106.64C1537.08 88.6993 1534.18 71.0735 1528.9 54.4608C1530.48 70.6386 1529.82 86.7933 1527.13 102.37C1522.66 108.083 1519.51 101.209 1517.37 91.3871C1516.9 87.7001 1516.44 84.1888 1516.21 80.5387C1515.37 68.7327 1515.97 56.575 1518.08 44.422C1511.93 55.1131 1506.95 66.7665 1503.4 79.0999C1502.9 80.8024 1502.44 82.5465 1502.01 84.2952C1501.18 77.5409 1500.73 70.6896 1500.7 63.7827C1497.17 77.0645 1495.17 90.9615 1494.79 105.113C1492.37 99.8993 1490.56 94.2369 1489.32 88.357C1487.17 78.1932 1486.58 67.4697 1486.73 56.7416C1485.34 62.6446 1484.17 68.6401 1483.38 74.7421C1479.1 53.9011 1472.41 48.5347 1472.41 48.5347C1484.12 67.28 1474.75 107.121 1474.75 107.121C1464.69 104.243 1461.69 96.9663 1460.87 91.7665C1462.37 86.5852 1463.33 81.3159 1463.85 76.0744C1464.75 67.0487 1464.34 58.1016 1463.35 49.3489C1462.36 40.5869 1460.78 31.9868 1459.19 23.4006C1459.61 32.1256 1460.03 40.8599 1459.84 49.5155C1459.65 58.1618 1458.87 66.748 1456.91 74.9317C1455.41 81.3298 1453.17 87.478 1450.18 93.0711C1450.91 88.2367 1451.07 83.3653 1450.65 78.5772C1449.91 70.2454 1447.6 62.2791 1444.37 54.8911C1441.14 47.4938 1436.99 40.6378 1432.36 34.2259C1436 41.2484 1439.03 48.5625 1441.06 56.0615C1443.09 63.5513 1444.08 71.2354 1443.62 78.7113C1443.17 86.1225 1441.18 93.3625 1437.84 99.6495C1436.22 102.712 1434.26 105.525 1432.04 108C1425.77 96.1383 1425.02 79.9466 1432.15 66.2345C1426.12 72.7806 1421.93 81.3899 1420.2 90.7163C1419.57 94.0657 1419.27 97.5261 1419.3 101.023C1414.72 93.5707 1411.65 84.9845 1410.66 76.0004C1410.29 72.6695 1410.24 69.2785 1410.43 65.8829C1419.39 25.9265 1445.94 15.7258 1445.94 15.7258C1407.25 17.8075 1395.33 79.2804 1393.14 93.0711C1388.31 88.7594 1383.36 86.0254 1383.36 86.0254C1384.29 90.6423 1384.11 94.8799 1383.57 98.3357C1381.72 95.0973 1380.21 91.5583 1379.13 87.788C1378.58 90.8551 1378.36 94.0472 1378.39 97.2855C1373.07 84.3645 1362.27 76.6527 1362.27 76.6527C1367.65 80.6868 1366.86 90.8921 1365.2 98.8631C1364.36 95.3564 1363.75 91.6231 1363.2 87.8851C1359.87 92.4373 1356.5 97.0033 1353.8 102.638C1353.76 102.717 1353.73 102.8 1353.69 102.874C1353.63 102.647 1353.55 102.435 1353.49 102.208C1352.33 97.5677 1352.03 92.4604 1352.4 87.33C1353.13 76.9442 1356.36 66.2761 1358.08 55.5295C1354.11 65.6655 1348.76 75.0752 1345.49 86.0346C1344.43 89.6477 1343.67 93.4134 1343.29 97.2994L1340.52 91.8174C1341.07 89.0972 1341.49 86.3909 1341.83 83.6614C1342.44 78.5865 1342.66 73.5023 1342.53 68.4782C1341.49 73.4005 1340.12 78.2071 1338.41 82.8518C1336.69 87.4595 1334.7 92.0626 1332.32 96.0827C1329.9 100.145 1327.01 103.318 1323.45 105.446C1323.32 105.52 1323.19 105.58 1323.06 105.65C1329.43 87.8018 1331.28 68.8113 1328.61 50.8894C1328.12 62.2144 1325.81 73.2617 1322.01 83.592C1324.78 67.8444 1327.38 52.0783 1329.76 36.2984C1323.08 56.8063 1316.07 77.1801 1308.75 97.4104C1308.58 95.1482 1308.34 92.923 1308.08 90.7348C1308.61 83.0091 1309.76 75.1862 1311.08 67.3263L1319.75 18.5662L1304.25 65.6655C1302.38 71.5361 1300.58 77.4762 1299.06 83.5735C1297.86 79.3405 1296.96 74.9873 1296.38 70.5554C1297.5 67.4697 1298.72 64.4072 1300.15 61.4048C1298.71 63.172 1297.32 65.0039 1295.99 66.8775C1295.77 64.495 1295.65 62.0895 1295.63 59.6746C1294.87 63.0147 1294.32 66.4242 1293.94 69.8707C1288.09 78.7299 1283.48 88.6299 1280.39 99.173C1275.82 80.4693 1274.6 60.5998 1277.13 40.8691C1271.21 59.7255 1268.73 79.9697 1269.96 100.32C1265.9 95.4628 1263.85 88.3662 1263.85 88.3662C1264.39 93.7234 1263.82 97.5955 1262.62 100.408C1262.59 100.131 1262.57 99.8391 1262.55 99.5662L1261.77 91.0031L1258.67 56.7416L1248.95 89.7355L1246.51 97.9841C1246.18 99.1221 1245.85 100.232 1245.52 101.324L1242.76 93.0526L1241.39 95.176C1243.33 88.6346 1245.2 82.0792 1246.94 75.51C1241.5 85.188 1235.83 94.6995 1229.98 104.068C1235.85 77.3004 1243.69 50.8108 1253.49 24.9087C1244.56 40.9431 1236.42 57.4771 1229.03 74.4136C1228.99 73.6688 1228.97 72.9147 1228.92 72.1699C1228.39 64.7634 1227.43 57.5604 1226.85 50.3574C1226.27 43.1637 1226.05 35.9283 1227.06 28.6976C1224.91 35.6693 1223.92 43.0388 1223.34 50.3528C1222.75 57.6761 1222.53 64.9901 1221.89 72.1144C1221.4 77.4993 1220.6 82.8101 1219.3 87.8434C1218.69 85.225 1218.01 82.6529 1217.26 80.1316C1215.4 74.062 1213.35 68.2006 1211.2 62.3207C1209.04 56.4593 1206.75 50.6627 1204.34 44.9355C1205.63 51.019 1206.79 57.1117 1207.8 63.2229C1208.73 68.8853 1209.56 74.594 1210.21 80.2287C1205.94 69.7967 1199.78 60.5582 1192.86 52.2449C1192.38 50.5656 1191.82 48.9233 1191.15 47.3412C1192.04 54.9004 1190.77 62.3115 1188.25 69.0102C1185.71 75.7274 1181.93 81.8155 1177.44 87.094C1175.85 88.9537 1174.16 90.7071 1172.43 92.4095C1176.92 76.8053 1178.05 60.5119 1175.67 44.9957C1175.36 67.516 1167.71 89.1943 1155.08 106.404C1154.56 106.76 1154.05 107.125 1153.52 107.482C1152.46 84.9244 1156.11 61.7101 1164.6 39.9022C1157.9 51.1115 1152.51 63.2321 1148.52 75.9218C1145.79 66.1975 1141.74 56.9775 1136.49 48.6457C1143.25 65.7534 1145.01 84.2397 1142.25 101.5C1139.92 94.6116 1137.31 88.3616 1137.31 88.3616C1142 100.08 1137.31 109.452 1137.31 109.452L1130.58 84.7671C1129.64 76.5463 1127.85 68.58 1125.66 60.8033C1126.14 71.0596 1125.9 81.3344 1124.14 91.1003C1123.64 93.8899 1122.99 96.6286 1122.22 99.2933C1120.23 93.1497 1117.67 87.2929 1114.56 81.8803C1116.51 92.3956 1116.47 102.943 1114.72 112.867C1113.3 113.491 1112.1 112.788 1111.11 111.358C1111.11 110.392 1111.08 109.439 1111.03 108.523C1110.68 102.717 1109.5 97.7111 1108.17 92.7287C1105.42 82.7963 1101.27 73.5763 1096.07 65.3879C1097.24 75.0243 1096.92 84.5311 1095.31 93.4921C1094.47 97.9471 1093.41 102.453 1091.85 106.043C1090.76 108.652 1089.37 110.743 1087.91 112.163C1086.85 111.543 1085.95 110.424 1085.2 108.967C1080.97 84.5034 1084.34 57.9999 1095.64 34.4202C1085.7 48.729 1078.71 65.3786 1075.22 83.0091C1074.41 76.8331 1073.8 70.6109 1073.42 64.3424C1071.19 76.2178 1069.75 88.3431 1069.12 100.607C1066.54 95.1852 1063.68 89.9484 1060.54 84.9567C1063.43 75.0659 1066.69 65.2492 1070.36 55.5573C1064.02 66.9562 1058.23 78.7067 1052.98 90.7487C1052.95 90.2167 1052.94 89.6847 1052.9 89.1527C1052.15 78.6558 1050.16 68.5846 1051.58 58.2543C1048.5 68.2284 1048.82 79.026 1047.9 89.1157C1047.56 92.9416 1046.99 96.7165 1046.07 100.297C1045.63 98.4374 1045.15 96.6101 1044.61 94.8151C1043.36 90.4804 1041.61 86.3908 1040.1 82.2087L1035.43 69.7921L1037.68 82.8471C1038.33 86.8812 1039.17 90.8875 1039.61 94.903C1036.57 87.4687 1032.18 80.8811 1027.24 74.9595C1026.9 73.7799 1026.52 72.6186 1026.05 71.5037C1026.68 76.8794 1025.78 82.144 1023.98 86.9043C1022.29 91.3917 1019.79 95.4674 1016.85 99.062C1020.58 84.3784 1025.12 69.843 1030.53 55.5573C1025.25 65.0364 1020.36 74.7606 1015.83 84.6884C1016.05 79.6921 1015.79 74.7097 1015.05 69.8383C1014.97 75.5748 1014.2 81.2326 1012.86 86.7008C1012.02 77.0829 1010.43 67.7797 1011.74 58.2543C1008.67 68.2284 1008.99 79.026 1008.07 89.1157C1007.72 92.9416 1007.15 96.7165 1006.23 100.297C1005.8 98.4374 1005.31 96.6101 1004.78 94.8151C1003.52 90.4804 1001.77 86.3908 1000.26 82.2087L995.589 69.7921L997.842 82.8471C998.481 86.8812 999.327 90.8875 999.767 94.903C996.727 87.4687 992.342 80.8811 987.401 74.9595C987.063 73.7799 986.684 72.6186 986.207 71.5037C986.836 76.8794 985.944 82.144 984.144 86.9043C982.34 91.6785 979.652 96.0041 976.46 99.7605C975.331 101.084 974.133 102.328 972.898 103.54C976.095 92.4465 976.895 80.8672 975.202 69.8337C974.98 85.845 969.539 101.25 960.564 113.486C960.208 113.732 959.857 113.981 959.496 114.227C958.742 98.1969 961.3 81.7137 967.333 66.216C962.568 74.1962 958.755 82.8379 955.92 91.8775C953.981 84.9475 951.099 78.369 947.357 72.4336C953.57 88.1534 953.856 105.516 948.92 120.509L942.814 116.073C943.586 111.641 943.785 107.204 943.568 102.911C943.179 95.3471 941.639 88.1025 939.663 81.0753C940.001 88.3662 939.83 95.6663 938.581 102.61C937.716 107.482 936.231 112.126 934.14 116.29C932.553 116.558 930.883 116.813 929.319 116.984C929.319 116.304 929.305 115.638 929.264 114.99C929.014 110.863 928.176 107.306 927.233 103.762C925.276 96.7026 922.329 90.1473 918.628 84.3276C919.461 91.1789 919.234 97.9332 918.091 104.303C917.504 107.426 916.764 110.577 915.681 113.112C913.983 112.524 912.151 111.937 910.324 111.377C908.298 95.1066 910.902 77.8232 918.327 62.3161C914.506 67.8167 911.305 73.8122 908.765 80.1316C908.395 77.12 907.687 74.1962 906.535 71.4945C907.164 76.8701 906.271 82.1347 904.472 86.8951C903.556 89.3192 902.404 91.6277 901.081 93.8066C900.692 90.4156 900.396 87.0061 900.188 83.5781C899.286 88.3847 898.569 93.2515 898.032 98.1599C897.616 98.6919 897.218 99.2378 896.783 99.7513C895.659 101.074 894.456 102.319 893.221 103.531C896.418 92.4373 897.218 80.8579 895.525 69.8245C895.303 85.8357 889.867 101.241 880.887 113.477C880.531 113.722 880.18 113.972 879.819 114.217C879.065 98.1876 881.623 81.7045 887.656 66.2067C882.891 74.1869 879.079 82.8287 876.243 91.8683C874.304 84.9382 871.422 78.3598 867.68 72.4244C873.634 87.4873 874.133 104.054 869.822 118.608C867.43 119.251 864.636 119.676 862.512 119.093C863.812 113.667 864.164 108.176 863.891 102.906C863.669 98.5993 863.049 94.408 862.212 90.2907C863.664 85.2019 864.608 80.0298 865.112 74.8855C866.019 65.8598 865.603 56.9127 864.617 48.1599C863.627 39.3979 862.04 30.7978 860.458 22.207C860.879 30.932 861.296 39.6663 861.106 48.3219C860.916 56.9682 860.134 65.5545 858.177 73.7429C856.669 80.1409 854.43 86.289 851.442 91.8821C852.173 87.0477 852.33 82.1764 851.914 77.3883C851.173 69.0565 848.865 61.0902 845.636 53.7022C842.402 46.3049 838.257 39.4488 833.622 33.0369C837.262 40.0595 840.297 47.3735 842.323 54.8726C844.35 62.3624 845.34 70.0465 844.886 77.5224C844.618 81.9867 843.776 86.3816 842.43 90.5498C841.352 88.4032 840.214 86.3076 838.951 84.3276C839.529 89.0787 839.562 93.7742 839.168 98.3357C839.145 98.3773 839.127 98.4189 839.108 98.4605C837.489 101.523 835.528 104.336 833.302 106.811C831.933 104.216 830.827 101.412 830.009 98.4744C830.314 86.2012 833.159 73.7706 838.646 62.3161C834.825 67.8167 831.623 73.8122 829.083 80.1316C829.032 79.7153 828.982 79.2989 828.912 78.8872C829.652 74.1685 831.11 69.4775 833.413 65.0456C831.151 67.4975 829.148 70.2408 827.441 73.2016C827.242 72.6372 827.085 72.0497 826.854 71.4991C826.951 72.3319 827.002 73.1553 827.025 73.9788C824.397 78.7252 822.482 83.9944 821.455 89.5274C821.335 90.1658 821.256 90.8181 821.163 91.4611C820.895 88.8427 820.668 86.2197 820.511 83.5828C819.72 87.788 819.086 92.0394 818.577 96.3186C817.675 94.6023 816.833 92.849 816.093 91.0402C816.972 83.9251 816.917 76.7684 815.852 69.8245C815.779 75.0382 815.145 80.1825 814.025 85.1788C813.03 81.8109 812.304 78.3413 811.916 74.8069C810.296 60.2158 814.145 44.5608 823.055 31.8156C813.146 42.2153 806.637 56.2697 805.161 71.2863C801.692 77.8139 798.81 84.7069 796.566 91.8636C794.628 84.9336 791.745 78.3551 788.003 72.4197C793.383 86.0207 794.318 100.852 791.278 114.319L784.237 108.93C784.325 106.899 784.316 104.886 784.214 102.902C783.821 95.3379 782.285 88.0933 780.309 81.0661C780.647 88.357 780.476 95.6571 779.227 102.601C778.639 105.899 777.765 109.101 776.627 112.122C774.665 113.588 772.325 114.856 769.914 115.152C769.91 115.096 769.91 115.036 769.91 114.985C769.66 110.859 768.823 107.301 767.879 103.758C766.107 97.3642 763.489 91.4103 760.264 86.0161C763.234 75.7599 766.607 65.5915 770.405 55.5434C764.062 66.9423 758.27 78.6928 753.02 90.7348C752.992 90.2028 752.978 89.6708 752.941 89.1388C752.77 86.7424 752.534 84.3646 752.289 82.0052C753.727 75.2695 755.939 68.6401 758.969 62.3115C756.174 66.3363 753.723 70.6248 751.604 75.1076C751.1 69.4914 750.841 63.9029 751.618 58.2404C749.175 66.1558 748.87 74.5894 748.389 82.7777C746.908 86.821 745.696 90.9893 744.776 95.2407C744.734 95.0973 744.692 94.9446 744.651 94.8012C743.596 91.1558 742.194 87.6861 740.876 84.1841C740.862 83.9806 740.843 83.7817 740.829 83.5781C740.806 83.6891 740.792 83.8002 740.774 83.9112C740.561 83.3376 740.339 82.7685 740.136 82.1949L735.468 69.7782L737.721 82.8333C738.239 86.104 738.905 89.3562 739.372 92.6084C739.317 93.0016 739.252 93.3903 739.201 93.7881C736.185 86.7979 731.975 80.5803 727.279 74.9502C727.062 74.1962 726.817 73.4606 726.553 72.7297C735.907 27.0414 774.069 15.7072 774.069 15.7072C730.43 17.5253 713.193 64.7356 707.65 85.8126C706.596 82.6529 705.337 79.4423 703.848 76.241C704.819 72.8638 705.925 69.5098 707.211 66.2067C705.656 68.8066 704.241 71.5037 702.895 74.2378C697.672 63.7502 689.816 53.5634 677.992 46.1754C640.497 22.7391 607.688 67.2661 607.688 67.2661C607.688 67.2661 642.837 41.489 663.928 46.1754C675.961 48.8493 685.704 72.119 691.852 92.0486C692.634 100.436 691.995 108.823 689.918 116.683L682.738 115.753C683.469 111.428 683.654 107.098 683.437 102.906C683.048 95.3425 681.508 88.0979 679.532 81.0707C679.87 88.3616 679.699 95.6618 678.45 102.606C677.585 107.463 676.109 112.094 674.027 116.248L669.184 117.248C669.188 116.475 669.174 115.716 669.133 114.985C668.883 110.859 668.046 107.301 667.106 103.758C665.15 96.698 662.203 90.1427 658.497 84.3229C659.33 91.1743 659.103 97.9286 657.96 104.299C657.364 107.468 656.614 110.669 655.504 113.223C655.407 113.463 655.286 113.662 655.18 113.889L650.022 109.92C648.324 94.0796 650.993 77.3605 658.196 62.3161C649.148 75.3528 643.517 91.1142 642.185 107.583L638.544 108.324C639.488 98.8399 638.743 89.4488 636.426 80.7423C635.533 91.9238 632.068 102.439 626.817 111.409C618.735 100.496 612.064 88.1673 607.225 74.8623C607.47 79.211 607.933 83.5735 608.571 87.936C600.568 109.092 589.359 103.832 586.254 101.838C589.627 92.1643 593.411 82.5696 597.704 73.1137C589.211 82.7315 581.221 92.9276 573.741 103.605L574.8 94.1721L577.756 67.8398L567.981 92.465L563.096 104.78C562.8 105.516 562.499 106.274 562.203 107.033C563.045 102.462 563.285 97.9147 563.026 93.4828C562.402 83.3422 559.561 74.0343 556.568 64.9392C557.285 74.4877 557.697 84.1425 556.004 93.085C555.273 97.0589 554.042 100.889 552.409 104.373C546.155 102.731 538.646 90.6192 534.922 83.939C533.632 74.3304 532.54 64.6662 531.721 54.9512C529.949 68.196 528.672 81.5564 527.798 94.9817C524.162 99.3904 519.813 101.241 519.813 101.241C514.928 92.6964 513.438 77.948 513.128 65.7719C513.369 63.6623 513.623 61.5528 513.933 59.4479C516.811 39.5321 522.339 19.8245 528.219 0.297363C520.141 19.0288 512.351 37.9916 507.045 58.0415C504.579 67.3818 502.715 76.9719 501.711 86.7563C501.318 80.1131 500.489 73.5901 499.444 67.1643C498.051 58.7632 496.423 50.5656 494.702 42.2801C492.921 34.0316 490.571 25.6582 486.153 18.4644C489.516 26.2041 490.608 34.5081 491.223 42.7844C491.764 51.1023 492.241 59.5312 492.44 67.8074C492.625 76.0976 492.417 84.3275 491.417 92.2985C490.899 96.2816 490.159 100.181 489.22 103.984C489.09 104.479 488.924 104.951 488.785 105.437C488.41 87.4965 485.51 69.8707 480.231 53.258C481.809 69.4358 481.147 85.5905 478.464 101.171C473.986 106.885 470.836 100.01 468.698 90.1889C468.226 86.5019 467.764 82.9906 467.537 79.3405C466.704 67.5345 467.297 55.3769 469.406 43.2239C463.258 53.915 458.28 65.5683 454.732 77.9017C454.228 79.6042 453.769 81.3483 453.339 83.097C452.511 76.3427 452.062 69.496 452.03 62.5845C448.5 75.8663 446.497 89.7633 446.118 103.915C443.703 98.7011 441.885 93.0386 440.65 87.1541C438.498 76.9904 437.906 66.2669 438.059 55.5387C436.666 61.4417 435.496 67.4373 434.705 73.5346C430.426 52.6936 423.732 47.3273 423.732 47.3273C435.45 66.0726 426.077 105.913 426.077 105.913C416.011 103.036 413.017 95.7589 412.194 90.559C413.697 85.3777 414.66 80.1085 415.173 74.867C416.08 65.8413 415.664 56.8942 414.678 48.1414C413.688 39.3794 412.101 30.7793 410.519 22.1885C410.94 30.9135 411.357 39.6478 411.167 48.3034C410.977 56.9497 410.195 65.5359 408.238 73.7243C406.73 80.1223 404.491 86.2705 401.503 91.8636C402.234 87.0292 402.391 82.1579 401.975 77.3698C401.234 69.038 398.926 61.0716 395.697 53.6836C392.463 46.2863 388.318 39.4303 383.683 33.0184C387.328 40.041 390.358 47.355 392.385 54.8541C394.411 62.3439 395.401 70.028 394.947 77.5039C394.499 84.9151 392.509 92.1551 389.169 98.4421C387.55 101.505 385.589 104.317 383.363 106.792C377.095 94.9308 376.341 78.7391 383.479 65.0271C377.442 71.5732 373.255 80.1825 371.52 89.5089C370.896 92.8582 370.595 96.3186 370.623 99.816C366.034 92.3632 362.967 83.777 361.977 74.793C360.357 60.2019 364.206 44.5469 373.116 31.8017C362.388 43.0619 355.629 58.5967 354.949 75.0058C354.491 86.3076 356.915 97.8453 362.014 108.342L359.691 108.148C358.623 106.038 357.6 103.896 356.61 101.731C355.528 90.374 351.012 69.2369 332.725 57.8056C306.911 41.674 284.326 72.3272 284.326 72.3272C284.326 72.3272 295.387 64.2221 307.036 59.966C303.488 68.048 299.463 75.931 296.803 84.8364C295.743 88.4495 294.989 92.2152 294.61 96.1012L291.839 90.6192C292.385 87.899 292.806 85.1927 293.148 82.4632C293.759 77.3836 293.981 72.3041 293.842 67.28C292.81 72.2023 291.436 77.0089 289.729 81.6536C288.008 86.2613 286.019 90.8644 283.632 94.8845C281.217 98.9463 278.326 102.12 274.764 104.248C274.639 104.322 274.504 104.382 274.38 104.452C280.75 86.6037 282.6 67.6131 279.922 49.6912C279.431 61.0162 277.123 72.0635 273.325 82.3938C276.091 66.6462 278.691 50.8801 281.074 35.1002C274.393 55.6081 267.389 75.9819 260.066 96.2122C259.89 93.95 259.65 91.7294 259.395 89.5366C259.923 81.8109 261.07 73.988 262.393 66.1281L271.063 17.368L255.56 64.4673C253.691 70.3333 251.887 76.278 250.37 82.3753C249.181 78.1423 248.274 73.7891 247.696 69.3572C248.815 66.2715 250.032 63.209 251.461 60.2066C250.013 61.9784 248.63 63.8057 247.298 65.6793C247.085 63.2969 246.96 60.8913 246.942 58.4764C246.183 61.8165 245.628 65.226 245.248 68.6725C239.396 77.5317 234.789 87.4317 231.698 97.9748C227.128 79.2711 225.916 59.4016 228.446 39.6709C222.529 58.5226 220.04 78.7715 221.275 99.1221C217.209 94.2646 215.164 87.168 215.164 87.168C215.701 92.5252 215.127 96.3973 213.934 99.21C213.911 98.9324 213.887 98.641 213.86 98.3681L213.082 89.805L209.983 55.5434L200.259 88.5374L197.825 96.7859C197.492 97.9239 197.159 99.0342 196.831 100.126L194.073 91.8544L192.704 93.9778C194.638 87.4364 196.511 80.881 198.256 74.3118C192.815 83.9898 187.143 93.5013 181.296 102.869C187.157 76.1022 194.999 49.6126 204.797 23.7106C195.873 39.7449 187.726 56.2789 180.338 73.2154C180.297 72.4706 180.278 71.7165 180.227 70.9717C179.7 63.5652 178.742 56.3622 178.159 49.1592C177.576 41.9655 177.364 34.7301 178.372 27.4994C176.216 34.4711 175.231 41.8406 174.648 49.1546C174.061 56.4779 173.843 63.7919 173.2 70.9162C172.71 76.3011 171.914 81.6119 170.614 86.6452C170.003 84.0268 169.323 81.4547 168.574 78.9334C166.714 72.8638 164.665 67.0024 162.509 61.1225C160.353 55.2612 158.059 49.4646 155.653 43.7373C156.944 49.8208 158.105 55.9135 159.113 62.0247C160.043 67.6871 160.876 73.4005 161.519 79.0305C157.249 68.5985 151.096 59.36 144.171 51.0467C143.69 49.3674 143.13 47.7251 142.454 46.143C143.343 53.7068 142.08 61.1133 139.554 67.812C137.014 74.5246 133.234 80.6174 128.742 85.8959C127.156 87.7556 125.467 89.5089 123.732 91.2113C128.229 75.6071 129.353 59.3137 126.975 43.7975C126.665 66.3178 119.013 87.9961 106.384 105.206C105.866 105.562 105.357 105.927 104.83 106.283C103.766 83.7262 107.416 60.5119 115.905 38.704C109.211 49.9133 103.812 62.0293 99.824 74.7236C97.0992 64.9993 93.0513 55.7793 87.7959 47.4475C94.5594 64.5552 96.3127 83.0415 93.5555 100.302C91.2239 93.4134 88.6194 87.1634 88.6194 87.1634C93.3057 98.8815 88.6194 108.254 88.6194 108.254L81.8882 83.5689C80.9491 75.3481 79.1588 67.3818 76.9706 59.6052C77.4471 69.8615 77.2019 80.1362 75.444 89.9021C74.949 92.6917 74.2967 95.4304 73.5241 98.0951C71.5348 91.9515 68.9765 86.0948 65.8631 80.6821C67.8154 91.1975 67.7737 101.745 66.0297 111.668C64.6048 112.293 63.4066 111.59 62.412 110.16C62.412 109.193 62.3888 108.24 62.3333 107.324C61.9817 101.518 60.8021 96.5129 59.479 91.5305C56.7264 81.5981 52.5813 72.3781 47.3722 64.1898C48.5426 73.8261 48.2234 83.3329 46.6135 92.2939C45.7762 96.7489 44.7214 101.255 43.1578 104.845C42.0706 107.449 40.6781 109.545 39.2116 110.965C38.1522 110.345 37.2594 109.226 36.5053 107.768C32.2816 83.3052 35.6494 56.8017 46.942 33.222C37.0095 47.5308 30.0194 64.1805 26.5266 81.8109C25.717 75.6349 25.1017 69.4127 24.727 63.1442C22.4972 75.0197 21.0538 87.1449 20.4293 99.4089C17.8294 93.9546 14.9519 88.6947 11.7922 83.6752C13.4067 90.5775 14.5216 97.5168 15.1415 104.414C15.4469 107.889 15.6782 111.298 15.4006 114.319C15.3451 115.036 15.2433 115.726 15.123 116.382C11.7366 108.8 6.26849 102.763 0 99.025C4.9269 107.25 5.84288 116.729 3.60843 124.178L6.43965 124.131L1.90599 131.686H111.926L112.194 131.996C112.282 131.894 112.375 131.788 112.463 131.686H633.072L638.151 132.856H1050.59H1074.03H1160.61L1160.88 133.166C1160.97 133.064 1161.06 132.958 1161.15 132.856H1484.12H1685.66H1896.57H1920L1912.16 124.552ZM147.205 103.623C137.833 110.655 147.205 80.1871 147.205 80.1871L142.316 86.0531C144.189 80.548 145.42 74.8901 145.855 69.2045C146.331 63.0841 145.818 56.9266 144.208 51.2271C149.755 61.4927 154.043 72.4059 155.764 83.4717C156.379 87.3762 156.643 91.3085 156.569 95.176L151.892 89.5598C151.892 89.5598 156.583 96.5916 147.205 103.623ZM241.543 102.615C241.658 94.8383 242.709 86.9645 244.675 79.2064C244.675 85.8126 245.35 92.4928 246.724 99.1082C245.6 100.88 243.787 101.963 241.543 102.615ZM334.89 97.1884C333.044 93.95 331.527 90.411 330.454 86.6407C329.903 89.7078 329.676 92.8999 329.713 96.1382C324.389 83.2172 313.591 75.5054 313.591 75.5054C318.971 79.5395 318.176 89.7448 316.52 97.7158C315.678 94.2091 315.076 90.4758 314.516 86.7378C311.195 91.29 307.822 95.856 305.121 101.491C305.084 101.569 305.051 101.653 305.014 101.727C304.954 101.5 304.866 101.287 304.811 101.061C303.65 96.4204 303.353 91.3131 303.719 86.1827C304.334 77.453 306.707 68.5245 308.475 59.5173C313.596 57.7963 318.745 56.9081 323.047 57.8611C331.504 59.7393 338.309 76.3844 342.528 90.2815C338.397 86.9321 334.682 84.8781 334.682 84.8781C335.603 89.4904 335.431 93.728 334.89 97.1884ZM724.925 84.198C725.225 80.7191 725.669 77.4021 726.262 74.2517C726.35 77.675 725.85 81.0245 724.925 84.198ZM736.013 108.61C732.734 110.109 729.19 112.177 725.993 113.847C725.443 110.026 725.087 106.381 724.846 102.837C726.812 98.0025 728.117 92.96 728.505 87.8851C728.843 83.5087 728.459 79.1139 727.302 75.0474C731.262 82.3614 734.32 90.1381 735.546 98.0257C736.106 101.569 736.254 105.141 736.013 108.61ZM758.733 104.34C758.335 106.459 757.854 108.578 757.257 110.521C755.92 110.863 754.731 111.668 753.598 112.298C755.346 104.266 757.35 96.2677 759.602 88.3199C759.945 93.8066 759.653 99.2008 758.733 104.34ZM801.215 113.514C800.859 113.759 800.507 114.009 800.146 114.254C799.54 101.366 801.109 88.1904 804.884 75.4591C804.592 83.925 805.92 92.5113 808.77 100.69C806.66 105.238 804.125 109.545 801.215 113.514ZM994.53 117.428C993.873 117.854 993.216 118.279 992.55 118.705L993.632 119.954C993.623 119.977 993.614 120 993.605 120.023C987.294 120.689 980.952 120.157 977.506 116.493C980.068 112.737 982.395 108.786 984.274 104.576C986.656 99.2239 988.192 93.5707 988.627 87.8851C988.965 83.5087 988.581 79.1139 987.424 75.0474C991.384 82.3614 994.442 90.1381 995.668 98.0257C996.718 104.683 996.385 111.446 994.53 117.428ZM1034.32 117.59C1029.59 119.038 1023.19 119.908 1016.49 117.701C1019.39 113.588 1022.03 109.249 1024.11 104.576C1026.49 99.2239 1028.03 93.5707 1028.46 87.8851C1028.8 83.5087 1028.42 79.1139 1027.26 75.0474C1031.22 82.3614 1034.28 90.1381 1035.5 98.0257C1036.56 104.743 1036.22 111.567 1034.32 117.59ZM1052.95 115.184C1053.05 114.726 1053.14 114.264 1053.24 113.806C1053.29 114.278 1053.32 114.749 1053.35 115.221L1052.95 115.184ZM1064.09 115.55C1064.03 116.267 1063.94 116.956 1063.82 117.613C1061.67 112.797 1058.67 108.629 1055.16 105.256C1056.77 98.4883 1058.56 91.748 1060.52 85.0446C1062.11 91.9006 1063.22 98.789 1063.83 105.64C1064.14 109.115 1064.38 112.529 1064.09 115.55ZM1195.89 104.794C1186.52 111.826 1195.89 81.3621 1195.89 81.3621L1191 87.2282C1192.87 81.723 1194.1 76.0652 1194.54 70.3796C1195.02 64.2591 1194.5 58.1017 1192.89 52.4022C1198.44 62.6677 1202.72 73.5809 1204.45 84.6468C1205.06 88.5513 1205.33 92.4835 1205.25 96.351L1200.58 90.7348C1200.58 90.7348 1205.26 97.762 1195.89 104.794ZM1290.22 103.785C1290.34 96.0087 1291.39 88.1349 1293.35 80.3768C1293.35 86.983 1294.03 93.6632 1295.4 100.279C1294.28 102.05 1292.47 103.133 1290.22 103.785ZM1408.38 109.374C1408.32 109.272 1408.28 109.17 1408.23 109.068C1408.03 106.852 1407.89 104.687 1407.77 102.573C1408.63 104.942 1409.59 107.287 1410.7 109.568L1408.38 109.374ZM1616.67 93.6725L1611.78 105.987C1611.48 106.723 1611.18 107.482 1610.89 108.24C1611.73 103.67 1611.97 99.1222 1611.71 94.6903C1611.09 84.5496 1608.25 75.2417 1605.25 66.1466C1605.97 75.695 1606.38 85.3499 1604.69 94.2923C1603.96 98.2662 1602.73 102.097 1601.1 105.58C1594.84 103.938 1587.34 91.8266 1583.61 85.1464C1582.5 76.8655 1581.57 68.5384 1580.8 60.1788C1590.56 54.1786 1607.66 45.2455 1619.43 47.8639C1628.37 49.8531 1635.77 65.6747 1640.85 80.7978C1634.41 88.4819 1628.26 96.4944 1622.44 104.812L1623.5 95.3795L1626.45 69.0472L1616.67 93.6725ZM1634.94 103.041C1637.11 96.8044 1639.48 90.6007 1642.03 84.4478C1644.37 91.8914 1646.11 98.8585 1647.16 103.554C1641.78 106.695 1636.84 104.262 1634.94 103.041ZM1687.04 112.779C1686.97 112.853 1686.91 112.922 1686.84 112.996L1686.82 112.991C1686.92 112.242 1687 111.493 1687.09 110.743C1687.07 111.423 1687.04 112.099 1687.04 112.779ZM1708.61 119.158C1707.14 118.788 1706 117.941 1705.51 116.364C1705.42 115.883 1705.32 115.402 1705.24 114.916C1704.92 109.147 1709.76 96.1567 1704.12 97.8175C1704.37 90.3277 1705.56 82.7963 1707.73 75.4638C1712.69 89.8836 1712.8 105.441 1708.61 119.158ZM1755.16 111.067C1750.03 109.526 1745.42 108.31 1745.42 108.31L1738.86 113.274C1740.59 110.489 1742.19 107.607 1743.54 104.576C1745.92 99.2239 1747.46 93.5707 1747.89 87.8851C1748.23 83.5087 1747.85 79.1139 1746.69 75.0474C1750.65 82.3614 1753.71 90.1381 1754.93 98.0257C1755.63 102.416 1755.71 106.843 1755.16 111.067ZM1779.59 75.214C1779.58 75.2278 1779.58 75.2371 1779.57 75.2464C1779.55 75.177 1779.52 75.1168 1779.5 75.0474C1779.53 75.1029 1779.56 75.1584 1779.59 75.214ZM1787.27 114.999L1787.18 114.934C1787.18 114.934 1777.26 117.178 1771.96 117.252C1772.44 114.916 1772.94 112.58 1773.46 110.244C1774.49 108.402 1775.48 106.524 1776.35 104.576C1778.73 99.2239 1780.27 93.5707 1780.7 87.8851C1780.84 86.0762 1780.82 84.2721 1780.71 82.4771C1781.03 81.4177 1781.33 80.3583 1781.66 79.3035C1784.55 85.35 1786.75 91.6508 1787.74 98.0257C1788.65 103.795 1788.53 109.647 1787.27 114.999ZM1810.14 116.47L1804.55 118.316C1806.55 108.407 1808.92 98.5438 1811.68 88.7594C1813 98.1552 1812.44 107.644 1810.14 116.47ZM1821.06 112.871L1819.51 113.385C1819.01 100.769 1820.58 87.9036 1824.27 75.4591C1823.98 83.925 1825.31 92.5113 1828.16 100.69C1826.16 104.997 1823.78 109.078 1821.06 112.871ZM1834.84 120.273C1835.48 119.403 1836.11 118.52 1836.74 117.632C1837.32 118.474 1837.91 119.302 1838.53 120.12C1837.29 120.227 1836.05 120.282 1834.84 120.273ZM1840.17 94.792C1839.62 95.6339 1839.07 96.4667 1838.48 97.267C1837.38 95.2639 1836.35 93.2144 1835.48 91.0818C1835.92 87.5242 1836.13 83.9575 1836.09 80.4092C1837.88 84.2906 1839.37 88.2691 1840.43 92.3031C1840.32 93.1219 1840.24 93.9546 1840.17 94.792ZM1862.47 117.701C1862.66 117.433 1862.85 117.164 1863.04 116.896C1863.06 117.238 1863.07 117.585 1863.1 117.928C1862.89 117.863 1862.68 117.77 1862.47 117.701ZM1862.82 99.0897C1863.38 96.9015 1863.95 94.7134 1864.55 92.5344C1864.19 94.371 1863.87 96.2168 1863.62 98.0812C1863.36 98.4143 1863.1 98.7566 1862.82 99.0897ZM1880.3 117.59C1876.02 118.899 1870.36 119.732 1864.36 118.247L1873 116.831C1871.86 112.316 1871.11 107.667 1870.74 102.953C1872.72 98.0859 1874.05 93.0063 1874.44 87.8897C1874.78 83.5134 1874.4 79.1184 1873.24 75.052C1877.2 82.366 1880.26 90.1427 1881.48 98.0304C1882.54 104.743 1882.19 111.567 1880.3 117.59ZM1898.93 115.184C1899.03 114.726 1899.12 114.264 1899.21 113.806C1899.27 114.278 1899.3 114.749 1899.33 115.221L1898.93 115.184Z" fill="#F0FFF0"/>
</svg>
