<svg width="1920" height="134" viewBox="0 0 1920 134" fill="none" xmlns="http://www.w3.org/2000/svg">
<path d="M1912.16 124.59C1910.25 116.818 1906.24 110.198 1901.14 105.294C1905.11 88.5102 1910.18 71.9068 1916.34 55.618C1910 67.0169 1904.21 78.7675 1898.96 90.8095C1898.93 90.2775 1898.91 89.7454 1898.88 89.2134C1898.13 78.7166 1896.14 68.6454 1897.56 58.3151C1894.48 68.2891 1894.8 79.0866 1893.88 89.1764C1893.53 93.0022 1892.96 96.7772 1892.04 100.358C1891.61 98.4982 1891.13 96.6708 1890.59 94.8759C1889.34 90.5411 1887.58 86.4516 1886.08 82.2695L1881.41 69.8527L1883.66 82.9079C1884.3 86.9419 1885.15 90.9482 1885.59 94.9638C1882.55 87.5295 1878.16 80.9417 1873.22 75.0202C1873.18 74.8861 1873.12 74.7565 1873.08 74.6224C1874.51 68.8396 1876.51 63.1541 1879.13 57.6951C1875.38 63.0939 1872.22 68.9645 1869.7 75.159C1871.8 68.6037 1874.06 62.0808 1876.5 55.618C1871.23 65.097 1866.34 74.8213 1861.81 84.7491C1862.02 79.7528 1861.77 74.7704 1861.02 69.8991C1860.94 75.6355 1860.17 81.2934 1858.83 86.7616C1857.99 77.1437 1856.41 67.8404 1857.72 58.3151C1854.64 68.2891 1854.96 79.0866 1854.04 89.1764C1853.69 93.0022 1853.13 96.7772 1852.2 100.358C1851.77 98.4982 1851.29 96.6708 1850.75 94.8759C1850.13 92.7108 1849.37 90.6059 1848.59 88.5195C1848.61 88.3205 1848.65 88.1216 1848.66 87.9227C1848.9 84.9064 1848.77 81.8809 1848.31 78.9525C1849.05 74.2338 1850.51 69.5428 1852.81 65.1109C1850.55 67.5628 1848.54 70.3061 1846.84 73.2669C1846.64 72.7025 1846.48 72.115 1846.25 71.5645C1846.35 72.3972 1846.4 73.2206 1846.42 74.0441C1845.74 75.2608 1845.13 76.5145 1844.56 77.796L1841.57 69.8527L1843.41 80.5439C1842.68 82.4777 1842.04 84.4623 1841.54 86.4978C1839.86 83.6527 1838.01 80.9464 1836.03 78.3603C1835.92 75.5152 1835.67 72.6886 1835.24 69.8991C1835.21 72.2122 1835.06 74.5113 1834.81 76.792C1834.33 76.186 1833.85 75.5754 1833.35 74.9832C1833.82 75.853 1834.28 76.7365 1834.73 77.6201C1834.42 80.1969 1833.99 82.746 1833.42 85.2534C1832.43 81.8855 1831.7 78.4159 1831.31 74.8814C1829.69 60.2904 1833.54 44.6354 1842.45 31.8902C1832.54 42.2899 1826.03 56.3443 1824.56 71.3609C1821.09 77.8885 1818.21 84.7815 1815.96 91.9382C1815.18 89.144 1814.25 86.4053 1813.16 83.7452C1815.96 74.2847 1819.1 64.8935 1822.61 55.6134C1818.44 63.1032 1814.5 70.7456 1810.8 78.5223C1809.76 76.4497 1808.62 74.4373 1807.4 72.4897C1808.42 75.0665 1809.26 77.685 1809.96 80.3311C1808.33 83.7962 1806.75 87.2889 1805.22 90.8048C1805.19 90.2728 1805.18 89.7408 1805.14 89.2088C1804.97 86.8124 1804.73 84.4346 1804.49 82.0752C1805.93 75.3395 1808.14 68.7101 1811.17 62.3815C1808.37 66.4063 1805.92 70.6947 1803.8 75.1775C1803.3 69.5613 1803.04 63.9729 1803.82 58.3104C1801.38 66.2258 1801.07 74.6594 1800.59 82.8477C1799.11 86.891 1797.9 91.0546 1796.98 95.3107C1796.94 95.1673 1796.9 95.0146 1796.86 94.8712C1795.6 90.5365 1793.85 86.447 1792.34 82.2649L1787.67 69.8482L1789.93 82.9033C1790.56 86.9373 1791.41 90.9436 1791.85 94.9591C1789.34 88.8294 1785.92 83.2826 1782.02 78.2076C1784.39 70.6207 1786.97 63.0801 1789.8 55.6134C1786.23 62.0253 1782.85 68.5621 1779.62 75.1822C1779.57 75.1266 1779.53 75.0712 1779.48 75.0156C1779.15 73.836 1778.76 72.6747 1778.29 71.5598C1778.54 73.6462 1778.54 75.7188 1778.36 77.7497C1776.3 82.0566 1774.33 86.4146 1772.41 90.8048C1772.38 90.2728 1772.37 89.7408 1772.33 89.2088C1772.16 86.8124 1771.92 84.4346 1771.68 82.0752C1773.12 75.3395 1775.33 68.7101 1778.36 62.3815C1775.57 66.4063 1773.11 70.6947 1770.99 75.1775C1770.49 69.5613 1770.23 63.9729 1771.01 58.3104C1768.57 66.2258 1768.26 74.6594 1767.78 82.8477C1766.3 86.891 1765.09 91.0546 1764.17 95.3107C1764.12 95.1673 1764.08 95.0146 1764.04 94.8712C1762.79 90.5365 1761.03 86.447 1759.53 82.2649L1754.86 69.8482L1757.11 82.9033C1757.75 86.9373 1758.6 90.9436 1759.04 94.9591C1756 87.5248 1751.61 80.9372 1746.67 75.0156C1746.33 73.836 1745.95 72.6747 1745.48 71.5598C1746.11 76.9355 1745.21 82.2001 1743.41 86.9605C1741.61 91.7347 1738.92 96.0602 1735.73 99.8166C1734.61 101.14 1733.4 102.384 1732.17 103.596C1735.36 92.5026 1736.16 80.9233 1734.47 69.8898C1734.25 85.9011 1728.81 101.306 1719.83 113.543C1719.48 113.788 1719.13 114.038 1718.77 114.283C1718.01 98.253 1720.57 81.7699 1726.6 66.2721C1721.83 74.2523 1718.02 82.894 1715.18 91.9336C1713.49 85.8594 1711.05 80.0628 1707.96 74.7242C1709.24 70.5236 1710.82 66.3877 1712.74 62.3768C1710.49 65.6059 1708.46 69.0062 1706.65 72.5406C1706.64 72.5221 1706.64 72.5036 1706.62 72.4897C1706.63 72.5128 1706.64 72.5359 1706.64 72.5544C1701.91 81.8022 1698.7 91.9891 1697.27 102.56C1696.54 103.208 1695.75 103.934 1694.92 104.734C1693.83 89.7639 1696.6 74.1598 1703.36 60.0314C1694.83 72.3186 1689.35 87.0345 1687.63 102.481C1687.7 95.4264 1686.84 88.5056 1685.1 81.9734C1684.23 92.8727 1680.91 103.143 1675.88 111.965L1674.94 111.872C1672.84 109 1670.83 106.034 1668.94 102.976C1668.58 89.2828 1671.43 75.2191 1677.58 62.3768C1671.11 71.7032 1666.39 82.436 1663.74 93.8165C1660.77 88.1401 1658.13 82.2279 1655.9 76.0935C1656.07 79.0821 1656.37 82.0752 1656.73 85.073C1653.27 72.2584 1646.04 57.3112 1630.97 47.8922C1609.86 34.6983 1590.55 47.7211 1580.5 57.2279C1580.47 56.881 1580.42 56.534 1580.4 56.187C1580.34 56.6172 1580.29 57.0475 1580.23 57.4777C1575.77 61.7338 1573.2 65.222 1573.2 65.222C1573.2 65.222 1575.77 63.3391 1579.82 60.8086C1578.35 72.536 1577.24 84.3513 1576.47 96.2221C1572.83 100.631 1568.48 102.481 1568.48 102.481C1563.6 93.9368 1562.11 79.1884 1561.8 67.0123C1562.04 64.9027 1562.29 62.7932 1562.6 60.6883C1565.48 40.7725 1571.01 21.0649 1576.89 1.53775C1568.81 20.2692 1561.02 39.232 1555.71 59.2819C1553.25 68.6222 1551.38 78.2077 1550.38 87.9967C1549.99 81.3535 1549.16 74.8306 1548.11 68.4048C1546.72 60.0036 1545.09 51.806 1543.37 43.5205C1541.59 35.272 1539.24 26.8939 1534.82 19.7048C1538.18 27.4444 1539.28 35.7485 1539.89 44.0247C1540.43 52.3426 1540.91 60.7715 1541.11 69.0478C1541.3 77.3426 1541.09 85.568 1540.09 93.5389C1539.57 97.5221 1538.83 101.422 1537.89 105.225C1537.76 105.72 1537.59 106.192 1537.46 106.677C1537.08 88.7369 1534.18 71.1111 1528.9 54.4984C1530.48 70.6762 1529.82 86.8309 1527.13 102.407C1522.66 108.121 1519.51 101.246 1517.37 91.4247C1516.9 87.7377 1516.44 84.2264 1516.21 80.5763C1515.37 68.7703 1515.97 56.6126 1518.08 44.4596C1511.93 55.1507 1506.95 66.8041 1503.4 79.1375C1502.9 80.84 1502.44 82.5841 1502.01 84.3328C1501.18 77.5785 1500.73 70.7272 1500.7 63.8203C1497.17 77.1021 1495.17 90.9991 1494.79 105.151C1492.37 99.9369 1490.56 94.2745 1489.32 88.3946C1487.17 78.2308 1486.58 67.5073 1486.73 56.7792C1485.34 62.6822 1484.17 68.6777 1483.38 74.7797C1479.1 53.9386 1472.41 48.5723 1472.41 48.5723C1484.12 67.3176 1474.75 107.158 1474.75 107.158C1464.69 104.281 1461.69 97.0039 1460.87 91.8041C1462.37 86.6227 1463.33 81.3535 1463.85 76.112C1464.75 67.0863 1464.34 58.1392 1463.35 49.3865C1462.36 40.6245 1460.78 32.0244 1459.19 23.4382C1459.61 32.1632 1460.03 40.8975 1459.84 49.5531C1459.65 58.1994 1458.87 66.7856 1456.91 74.9693C1455.41 81.3674 1453.17 87.5156 1450.18 93.1087C1450.91 88.2743 1451.07 83.4029 1450.65 78.6148C1449.91 70.283 1447.6 62.3167 1444.37 54.9287C1441.14 47.5314 1436.99 40.6754 1432.36 34.2635C1436 41.286 1439.03 48.6 1441.06 56.0991C1443.09 63.5889 1444.08 71.273 1443.62 78.7489C1443.17 86.1601 1441.18 93.4001 1437.84 99.6871C1436.22 102.75 1434.26 105.562 1432.04 108.037C1425.77 96.1758 1425.02 79.9842 1432.15 66.2721C1426.12 72.8182 1421.93 81.4275 1420.2 90.7539C1419.57 94.1033 1419.27 97.5637 1419.3 101.061C1414.72 93.6083 1411.65 85.0221 1410.66 76.038C1410.29 72.7071 1410.24 69.3161 1410.43 65.9205C1419.39 25.9641 1445.94 15.7633 1445.94 15.7633C1407.25 17.8451 1395.33 79.318 1393.14 93.1087C1388.31 88.797 1383.36 86.063 1383.36 86.063C1384.29 90.6799 1384.11 94.9175 1383.57 98.3733C1381.72 95.1349 1380.21 91.5959 1379.13 87.8256C1378.58 90.8927 1378.36 94.0848 1378.39 97.3231C1373.07 84.4021 1362.27 76.6903 1362.27 76.6903C1367.65 80.7244 1366.86 90.9297 1365.2 98.9007C1364.36 95.394 1363.75 91.6607 1363.2 87.9227C1359.87 92.4749 1356.5 97.0409 1353.8 102.676C1353.76 102.754 1353.73 102.838 1353.69 102.912C1353.63 102.685 1353.55 102.472 1353.49 102.245C1352.33 97.6053 1352.03 92.498 1352.4 87.3676C1353.13 76.9818 1356.36 66.3137 1358.08 55.5671C1354.11 65.7031 1348.76 75.1128 1345.49 86.0722C1344.43 89.6853 1343.67 93.451 1343.29 97.337L1340.52 91.855C1341.07 89.1348 1341.49 86.4285 1341.83 83.699C1342.44 78.6241 1342.66 73.5399 1342.53 68.5158C1341.49 73.4381 1340.12 78.2447 1338.41 82.8894C1336.69 87.4971 1334.7 92.1002 1332.32 96.1203C1329.9 100.182 1327.01 103.356 1323.45 105.484C1323.32 105.558 1323.19 105.618 1323.06 105.687C1329.43 87.8394 1331.28 68.8489 1328.61 50.927C1328.12 62.252 1325.81 73.2993 1322.01 83.6296C1324.78 67.882 1327.38 52.1159 1329.76 36.336C1323.08 56.8439 1316.07 77.2177 1308.75 97.448C1308.58 95.1858 1308.34 92.9606 1308.08 90.7724C1308.61 83.0467 1309.76 75.2238 1311.08 67.3639L1319.75 18.6038L1304.25 65.7031C1302.38 71.5737 1300.58 77.5138 1299.06 83.6111C1297.86 79.3781 1296.96 75.0248 1296.38 70.593C1297.5 67.5073 1298.72 64.4448 1300.15 61.4424C1298.71 63.2096 1297.32 65.0415 1295.99 66.9151C1295.77 64.5326 1295.65 62.1271 1295.63 59.7122C1294.87 63.0523 1294.32 66.4618 1293.94 69.9083C1288.09 78.7675 1283.48 88.6675 1280.39 99.2106C1275.82 80.5069 1274.6 60.6374 1277.13 40.9067C1271.21 59.7631 1268.73 80.0073 1269.96 100.358C1265.9 95.5004 1263.85 88.4038 1263.85 88.4038C1264.39 93.761 1263.82 97.6331 1262.62 100.446C1262.59 100.168 1262.57 99.8767 1262.55 99.6038L1261.77 91.0407L1258.67 56.7792L1248.95 89.7731L1246.51 98.0217C1246.18 99.1597 1245.85 100.27 1245.52 101.362L1242.76 93.0902L1241.39 95.2136C1243.33 88.6721 1245.2 82.1168 1246.94 75.5476C1241.5 85.2256 1235.83 94.7371 1229.98 104.105C1235.85 77.338 1243.69 50.8484 1253.49 24.9463C1244.56 40.9807 1236.42 57.5147 1229.03 74.4512C1228.99 73.7064 1228.97 72.9523 1228.92 72.2075C1228.39 64.801 1227.43 57.598 1226.85 50.395C1226.27 43.2013 1226.05 35.9659 1227.06 28.7352C1224.91 35.7069 1223.92 43.0764 1223.34 50.3904C1222.75 57.7137 1222.53 65.0277 1221.89 72.152C1221.4 77.5369 1220.6 82.8477 1219.3 87.881C1218.69 85.2626 1218.01 82.6905 1217.26 80.1692C1215.4 74.0996 1213.35 68.2382 1211.2 62.3583C1209.04 56.4969 1206.75 50.7003 1204.34 44.9731C1205.63 51.0566 1206.79 57.1493 1207.8 63.2605C1208.73 68.9229 1209.56 74.6316 1210.21 80.2663C1205.94 69.8343 1199.78 60.5958 1192.86 52.2825C1192.38 50.6032 1191.82 48.9609 1191.15 47.3788C1192.04 54.938 1190.77 62.3491 1188.25 69.0478C1185.71 75.765 1181.93 81.8531 1177.44 87.1316C1175.85 88.9913 1174.16 90.7447 1172.43 92.4471C1176.92 76.8429 1178.05 60.5495 1175.67 45.0333C1175.36 67.5536 1167.71 89.2319 1155.08 106.441C1154.56 106.798 1154.05 107.163 1153.52 107.519C1152.46 84.962 1156.11 61.7477 1164.6 39.9398C1157.9 51.1491 1152.51 63.2697 1148.52 75.9594C1145.79 66.2351 1141.74 57.0151 1136.49 48.6833C1143.25 65.791 1145.01 84.2773 1142.25 101.538C1139.92 94.6492 1137.31 88.3992 1137.31 88.3992C1142 100.117 1137.31 109.49 1137.31 109.49L1130.58 84.8046C1129.64 76.5839 1127.85 68.6176 1125.66 60.8409C1126.14 71.0972 1125.9 81.372 1124.14 91.1379C1123.64 93.9275 1122.99 96.6662 1122.22 99.3309C1120.23 93.1873 1117.67 87.3305 1114.56 81.9179C1116.51 92.4332 1116.47 102.981 1114.72 112.904C1113.3 113.529 1112.1 112.826 1111.11 111.396C1111.11 110.429 1111.08 109.476 1111.03 108.56C1110.68 102.754 1109.5 97.7487 1108.17 92.7663C1105.42 82.8339 1101.27 73.6139 1096.07 65.4255C1097.24 75.0619 1096.92 84.5687 1095.31 93.5297C1094.47 97.9847 1093.41 102.491 1091.85 106.081C1090.76 108.69 1089.37 110.781 1087.91 112.201C1086.85 111.581 1085.95 110.462 1085.2 109.004C1080.97 84.541 1084.34 58.0375 1095.64 34.4578C1085.7 48.7666 1078.71 65.4162 1075.22 83.0467C1074.41 76.8707 1073.8 70.6485 1073.42 64.38C1071.19 76.2554 1069.75 88.3807 1069.12 100.645C1066.54 95.2228 1063.68 89.986 1060.54 84.9943C1063.43 75.1035 1066.69 65.2868 1070.36 55.5949C1064.02 66.9938 1058.23 78.7443 1052.98 90.7863C1052.95 90.2543 1052.94 89.7223 1052.9 89.1903C1052.15 78.6934 1050.16 68.6222 1051.58 58.2919C1048.5 68.266 1048.82 79.0636 1047.9 89.1533C1047.56 92.9791 1046.99 96.7541 1046.07 100.335C1045.63 98.475 1045.15 96.6477 1044.61 94.8527C1043.36 90.518 1041.61 86.4284 1040.1 82.2463L1035.43 69.8297L1037.68 82.8847C1038.33 86.9188 1039.17 90.9251 1039.61 94.9406C1036.57 87.5063 1032.18 80.9187 1027.24 74.9971C1026.9 73.8175 1026.52 72.6562 1026.05 71.5413C1026.68 76.917 1025.78 82.1815 1023.98 86.9419C1022.29 91.4293 1019.79 95.505 1016.85 99.0996C1020.58 84.416 1025.12 69.8806 1030.53 55.5949C1025.25 65.074 1020.36 74.7982 1015.83 84.726C1016.05 79.7297 1015.79 74.7473 1015.05 69.8759C1014.97 75.6124 1014.2 81.2702 1012.86 86.7384C1012.02 77.1205 1010.43 67.8173 1011.74 58.2919C1008.67 68.266 1008.99 79.0636 1008.07 89.1533C1007.72 92.9791 1007.15 96.7541 1006.23 100.335C1005.8 98.475 1005.31 96.6477 1004.78 94.8527C1003.52 90.518 1001.77 86.4284 1000.26 82.2463L995.589 69.8297L997.842 82.8847C998.481 86.9188 999.327 90.9251 999.767 94.9406C996.727 87.5063 992.342 80.9187 987.401 74.9971C987.063 73.8175 986.684 72.6562 986.207 71.5413C986.836 76.917 985.944 82.1815 984.144 86.9419C982.34 91.7161 979.652 96.0417 976.46 99.7981C975.331 101.121 974.133 102.366 972.898 103.578C976.095 92.4841 976.895 80.9048 975.202 69.8713C974.98 85.8826 969.539 101.288 960.564 113.524C960.208 113.769 959.857 114.019 959.496 114.264C958.742 98.2345 961.3 81.7513 967.333 66.2536C962.568 74.2337 958.755 82.8755 955.92 91.9151C953.981 84.9851 951.099 78.4066 947.357 72.4712C953.57 88.191 953.856 105.553 948.92 120.547L942.814 116.11C943.586 111.678 943.785 107.242 943.568 102.949C943.179 95.3847 941.639 88.1401 939.663 81.1129C940.001 88.4038 939.83 95.7039 938.581 102.648C937.716 107.519 936.231 112.164 934.14 116.328C932.553 116.596 930.883 116.85 929.319 117.021C929.319 116.341 929.305 115.675 929.264 115.028C929.014 110.901 928.176 107.343 927.233 103.8C925.276 96.7402 922.329 90.1849 918.628 84.3652C919.461 91.2165 919.234 97.9708 918.091 104.341C917.504 107.464 916.764 110.614 915.681 113.149C913.983 112.562 912.151 111.974 910.324 111.415C908.298 95.1442 910.902 77.8607 918.327 62.3537C914.506 67.8543 911.305 73.8498 908.765 80.1692C908.395 77.1576 907.687 74.2338 906.535 71.5321C907.164 76.9077 906.271 82.1723 904.472 86.9327C903.556 89.3568 902.404 91.6653 901.081 93.8442C900.692 90.4532 900.396 87.0437 900.188 83.6157C899.286 88.4223 898.569 93.2891 898.032 98.1975C897.616 98.7295 897.218 99.2754 896.783 99.7889C895.659 101.112 894.456 102.356 893.221 103.568C896.418 92.4749 897.218 80.8955 895.525 69.8621C895.303 85.8733 889.867 101.278 880.887 113.515C880.531 113.76 880.18 114.01 879.819 114.255C879.065 98.2252 881.623 81.7421 887.656 66.2443C882.891 74.2245 879.079 82.8663 876.243 91.9059C874.304 84.9758 871.422 78.3974 867.68 72.462C873.634 87.5249 874.133 104.091 869.822 118.645C867.43 119.288 864.636 119.714 862.512 119.131C863.812 113.704 864.164 108.213 863.891 102.944C863.669 98.6369 863.049 94.4456 862.212 90.3283C863.664 85.2395 864.608 80.0674 865.112 74.9231C866.019 65.8974 865.603 56.9503 864.617 48.1975C863.627 39.4355 862.04 30.8354 860.458 22.2446C860.879 30.9696 861.296 39.7039 861.106 48.3595C860.916 57.0058 860.134 65.5921 858.177 73.7804C856.669 80.1785 854.43 86.3266 851.442 91.9197C852.173 87.0853 852.33 82.214 851.914 77.4259C851.173 69.0941 848.865 61.1278 845.636 53.7398C842.402 46.3425 838.257 39.4864 833.622 33.0745C837.262 40.0971 840.297 47.4111 842.323 54.9102C844.35 62.4 845.34 70.0841 844.886 77.56C844.618 82.0243 843.776 86.4192 842.43 90.5874C841.352 88.4408 840.214 86.3452 838.951 84.3652C839.529 89.1163 839.562 93.8118 839.168 98.3733C839.145 98.4149 839.127 98.4565 839.108 98.4981C837.489 101.561 835.528 104.373 833.302 106.848C831.933 104.253 830.827 101.45 830.009 98.512C830.314 86.2388 833.159 73.8082 838.646 62.3537C834.825 67.8543 831.623 73.8498 829.083 80.1692C829.032 79.7529 828.982 79.3365 828.912 78.9248C829.652 74.2061 831.11 69.5151 833.413 65.0832C831.151 67.5351 829.148 70.2784 827.441 73.2392C827.242 72.6748 827.085 72.0873 826.854 71.5367C826.951 72.3695 827.002 73.1929 827.025 74.0164C824.397 78.7628 822.482 84.032 821.455 89.565C821.335 90.2034 821.256 90.8557 821.163 91.4987C820.895 88.8803 820.668 86.2573 820.511 83.6204C819.72 87.8256 819.086 92.077 818.577 96.3562C817.675 94.6399 816.833 92.8866 816.093 91.0778C816.972 83.9627 816.917 76.806 815.852 69.8621C815.779 75.0758 815.145 80.2201 814.025 85.2164C813.03 81.8485 812.304 78.3789 811.916 74.8445C810.296 60.2534 814.145 44.5984 823.055 31.8532C813.146 42.2529 806.637 56.3073 805.161 71.3239C801.692 77.8515 798.81 84.7445 796.566 91.9012C794.628 84.9712 791.745 78.3927 788.003 72.4573C793.383 86.0583 794.318 100.89 791.278 114.357L784.237 108.967C784.325 106.936 784.316 104.924 784.214 102.939C783.821 95.3755 782.285 88.1309 780.309 81.1037C780.647 88.3946 780.476 95.6947 779.227 102.639C778.639 105.937 777.765 109.138 776.627 112.159C774.665 113.626 772.325 114.893 769.914 115.189C769.91 115.134 769.91 115.074 769.91 115.023C769.66 110.896 768.823 107.339 767.879 103.795C766.107 97.4018 763.489 91.4479 760.264 86.0537C763.234 75.7975 766.607 65.6291 770.405 55.581C764.062 66.9799 758.27 78.7304 753.02 90.7724C752.992 90.2404 752.978 89.7084 752.941 89.1764C752.77 86.78 752.534 84.4022 752.289 82.0428C753.727 75.3071 755.939 68.6777 758.969 62.3491C756.174 66.3739 753.723 70.6624 751.604 75.1452C751.1 69.529 750.841 63.9405 751.618 58.278C749.175 66.1934 748.87 74.627 748.389 82.8153C746.908 86.8586 745.696 91.0268 744.776 95.2783C744.734 95.1349 744.692 94.9822 744.651 94.8388C743.596 91.1934 742.194 87.7237 740.876 84.2217C740.862 84.0182 740.843 83.8193 740.829 83.6157C740.806 83.7267 740.792 83.8378 740.774 83.9488C740.561 83.3752 740.339 82.8061 740.136 82.2325L735.468 69.8158L737.721 82.8709C738.239 86.1416 738.905 89.3938 739.372 92.646C739.317 93.0392 739.252 93.4279 739.201 93.8257C736.185 86.8355 731.975 80.6179 727.279 74.9878C727.062 74.2338 726.817 73.4982 726.553 72.7673C735.907 27.079 774.069 15.7448 774.069 15.7448C730.43 17.5629 713.193 64.7732 707.65 85.8502C706.596 82.6905 705.337 79.4799 703.848 76.2786C704.819 72.9014 705.925 69.5474 707.211 66.2443C705.656 68.8442 704.241 71.5413 702.895 74.2754C697.672 63.7878 689.816 53.601 677.992 46.213C640.497 22.7767 607.688 67.3037 607.688 67.3037C607.688 67.3037 642.837 41.5266 663.928 46.213C675.961 48.8869 685.704 72.1566 691.852 92.0862C692.634 100.474 691.995 108.861 689.918 116.721L682.738 115.791C683.469 111.465 683.654 107.135 683.437 102.944C683.048 95.3801 681.508 88.1355 679.532 81.1083C679.87 88.3992 679.699 95.6993 678.45 102.643C677.585 107.501 676.109 112.132 674.027 116.286L669.184 117.285C669.188 116.513 669.174 115.754 669.133 115.023C668.883 110.896 668.046 107.339 667.106 103.795C665.15 96.7356 662.203 90.1803 658.497 84.3605C659.33 91.2119 659.103 97.9662 657.96 104.336C657.364 107.505 656.614 110.707 655.504 113.26C655.407 113.501 655.286 113.7 655.18 113.927L650.022 109.957C648.324 94.1172 650.993 77.3981 658.196 62.3537C649.148 75.3904 643.517 91.1517 642.185 107.621L638.544 108.361C639.488 98.8775 638.743 89.4864 636.426 80.7799C635.533 91.9614 632.068 102.477 626.817 111.447C618.735 100.534 612.064 88.2049 607.225 74.8999C607.47 79.2486 607.933 83.6111 608.571 87.9736C600.568 109.129 589.359 103.869 586.254 101.875C589.627 92.2019 593.411 82.6072 597.704 73.1513C589.211 82.7691 581.221 92.9652 573.741 103.642L574.8 94.2097L577.756 67.8774L567.981 92.5026L563.096 104.818C562.8 105.553 562.499 106.312 562.203 107.071C563.045 102.5 563.285 97.9523 563.026 93.5204C562.402 83.3798 559.561 74.0719 556.568 64.9768C557.285 74.5253 557.697 84.1801 556.004 93.1226C555.273 97.0965 554.042 100.927 552.409 104.41C546.155 102.768 538.646 90.6568 534.922 83.9766C533.632 74.368 532.54 64.7038 531.721 54.9888C529.949 68.2336 528.672 81.594 527.798 95.0192C524.162 99.428 519.813 101.279 519.813 101.279C514.928 92.734 513.438 77.9856 513.128 65.8095C513.369 63.6999 513.623 61.5904 513.933 59.4855C516.811 39.5697 522.339 19.8621 528.219 0.334961C520.141 19.0664 512.351 38.0292 507.045 58.0791C504.579 67.4194 502.715 77.0095 501.711 86.7939C501.318 80.1507 500.489 73.6277 499.444 67.2019C498.051 58.8008 496.423 50.6032 494.702 42.3177C492.921 34.0692 490.571 25.6958 486.153 18.502C489.516 26.2417 490.608 34.5457 491.223 42.822C491.764 51.1399 492.241 59.5688 492.44 67.845C492.625 76.1352 492.417 84.3651 491.417 92.3361C490.899 96.3192 490.159 100.219 489.22 104.022C489.09 104.517 488.924 104.989 488.785 105.474C488.41 87.5341 485.51 69.9083 480.231 53.2956C481.809 69.4734 481.147 85.6281 478.464 101.209C473.986 106.922 470.836 100.048 468.698 90.2265C468.226 86.5395 467.764 83.0282 467.537 79.3781C466.704 67.5721 467.297 55.4145 469.406 43.2614C463.258 53.9526 458.28 65.6059 454.732 77.9393C454.228 79.6418 453.769 81.3859 453.339 83.1346C452.511 76.3803 452.062 69.5336 452.03 62.6221C448.5 75.9039 446.497 89.8009 446.118 103.952C443.703 98.7387 441.885 93.0762 440.65 87.1917C438.498 77.028 437.906 66.3045 438.059 55.5763C436.666 61.4793 435.496 67.4749 434.705 73.5722C430.426 52.7312 423.732 47.3648 423.732 47.3648C435.45 66.1102 426.077 105.951 426.077 105.951C416.011 103.073 413.017 95.7965 412.194 90.5966C413.697 85.4153 414.66 80.1461 415.173 74.9046C416.08 65.8789 415.664 56.9318 414.678 48.179C413.688 39.417 412.101 30.8169 410.519 22.2261C410.94 30.9511 411.357 39.6854 411.167 48.341C410.977 56.9873 410.195 65.5735 408.238 73.7619C406.73 80.1599 404.491 86.3081 401.503 91.9012C402.234 87.0668 402.391 82.1955 401.975 77.4074C401.234 69.0756 398.926 61.1092 395.697 53.7212C392.463 46.3239 388.318 39.4679 383.683 33.056C387.328 40.0786 390.358 47.3926 392.385 54.8917C394.411 62.3815 395.401 70.0656 394.947 77.5415C394.499 84.9527 392.509 92.1926 389.169 98.4797C387.55 101.542 385.589 104.355 383.363 106.83C377.095 94.9684 376.341 78.7767 383.479 65.0647C377.442 71.6107 373.255 80.2201 371.52 89.5465C370.896 92.8958 370.595 96.3562 370.623 99.8536C366.034 92.4008 362.967 83.8146 361.977 74.8306C360.357 60.2395 364.206 44.5845 373.116 31.8393C362.388 43.0995 355.629 58.6343 354.949 75.0434C354.491 86.3452 356.915 97.8829 362.014 108.38L359.691 108.185C358.623 106.076 357.6 103.934 356.61 101.769C355.528 90.4116 351.012 69.2745 332.725 57.8432C306.911 41.7116 284.326 72.3648 284.326 72.3648C284.326 72.3648 295.387 64.2597 307.036 60.0036C303.488 68.0855 299.463 75.9686 296.803 84.874C295.743 88.4871 294.989 92.2528 294.61 96.1388L291.839 90.6568C292.385 87.9366 292.806 85.2303 293.148 82.5008C293.759 77.4212 293.981 72.3417 293.842 67.3176C292.81 72.2399 291.436 77.0465 289.729 81.6912C288.008 86.2989 286.019 90.902 283.632 94.9221C281.217 98.9839 278.326 102.157 274.764 104.286C274.639 104.36 274.504 104.42 274.38 104.489C280.75 86.6413 282.6 67.6507 279.922 49.7288C279.431 61.0538 277.123 72.1011 273.325 82.4314C276.091 66.6838 278.691 50.9177 281.074 35.1378C274.393 55.6457 267.389 76.0195 260.066 96.2498C259.89 93.9876 259.65 91.767 259.395 89.5742C259.923 81.8485 261.07 74.0256 262.393 66.1657L271.063 17.4056L255.56 64.5049C253.691 70.3709 251.887 76.3156 250.37 82.4129C249.181 78.1799 248.274 73.8267 247.696 69.3948C248.815 66.3091 250.032 63.2466 251.461 60.2442C250.013 62.016 248.63 63.8433 247.298 65.7169C247.085 63.3344 246.96 60.9289 246.942 58.514C246.183 61.8541 245.628 65.2636 245.248 68.7101C239.396 77.5693 234.789 87.4693 231.698 98.0124C227.128 79.3087 225.916 59.4392 228.446 39.7085C222.529 58.5602 220.04 78.8091 221.275 99.1597C217.209 94.3022 215.164 87.2056 215.164 87.2056C215.701 92.5628 215.127 96.4349 213.934 99.2476C213.911 98.97 213.887 98.6786 213.86 98.4057L213.082 89.8426L209.983 55.581L200.259 88.575L197.825 96.8235C197.492 97.9615 197.159 99.0718 196.831 100.164L194.073 91.892L192.704 94.0154C194.638 87.474 196.511 80.9186 198.256 74.3494C192.815 84.0274 187.143 93.5389 181.296 102.907C187.157 76.1398 194.999 49.6502 204.797 23.7481C195.873 39.7825 187.726 56.3165 180.338 73.253C180.297 72.5082 180.278 71.7541 180.227 71.0093C179.7 63.6028 178.742 56.3998 178.159 49.1968C177.576 42.0031 177.364 34.7677 178.372 27.537C176.216 34.5087 175.231 41.8782 174.648 49.1922C174.061 56.5155 173.843 63.8295 173.2 70.9538C172.71 76.3387 171.914 81.6495 170.614 86.6828C170.003 84.0644 169.323 81.4923 168.574 78.971C166.714 72.9014 164.665 67.04 162.509 61.1601C160.353 55.2987 158.059 49.5021 155.653 43.7749C156.944 49.8584 158.105 55.9511 159.113 62.0623C160.043 67.7247 160.876 73.4381 161.519 79.0681C157.249 68.6361 151.096 59.3976 144.171 51.0843C143.69 49.405 143.13 47.7627 142.454 46.1806C143.343 53.7444 142.08 61.1509 139.554 67.8496C137.014 74.5622 133.234 80.655 128.742 85.9335C127.156 87.7932 125.467 89.5465 123.732 91.2489C128.229 75.6447 129.353 59.3513 126.975 43.8351C126.665 66.3554 119.013 88.0337 106.384 105.243C105.866 105.599 105.357 105.965 104.83 106.321C103.766 83.7638 107.416 60.5495 115.905 38.7416C109.211 49.9509 103.812 62.0669 99.824 74.7612C97.0992 65.0369 93.0513 55.8169 87.7959 47.4851C94.5594 64.5928 96.3127 83.0791 93.5555 100.339C91.2239 93.451 88.6194 87.201 88.6194 87.201C93.3057 98.9191 88.6194 108.292 88.6194 108.292L81.8882 83.6065C80.9491 75.3857 79.1588 67.4194 76.9706 59.6428C77.4471 69.8991 77.2019 80.1738 75.444 89.9397C74.949 92.7293 74.2967 95.468 73.5241 98.1327C71.5348 91.9891 68.9765 86.1324 65.8631 80.7197C67.8154 91.2351 67.7737 101.783 66.0297 111.706C64.6048 112.331 63.4066 111.627 62.412 110.198C62.412 109.231 62.3888 108.278 62.3333 107.362C61.9817 101.556 60.8021 96.5505 59.479 91.5681C56.7264 81.6357 52.5813 72.4157 47.3722 64.2273C48.5426 73.8637 48.2234 83.3705 46.6135 92.3315C45.7762 96.7865 44.7214 101.292 43.1578 104.882C42.0706 107.487 40.6781 109.583 39.2116 111.003C38.1522 110.383 37.2594 109.263 36.5053 107.806C32.2816 83.3428 35.6494 56.8393 46.942 33.2596C37.0095 47.5684 30.0194 64.2181 26.5266 81.8485C25.717 75.6725 25.1017 69.4503 24.727 63.1818C22.4972 75.0573 21.0538 87.1825 20.4293 99.4465C17.8294 93.9922 14.9519 88.7323 11.7922 83.7128C13.4067 90.6151 14.5216 97.5544 15.1415 104.452C15.4469 107.926 15.6782 111.336 15.4006 114.357C15.3451 115.074 15.2433 115.763 15.123 116.42C11.7366 108.838 6.26849 102.801 0 99.0626C4.9269 107.288 5.84288 116.767 3.60843 124.215L6.43965 124.169L1.90599 131.723H111.926L112.194 132.033C112.282 131.932 112.375 131.825 112.463 131.723H633.072L638.151 132.894H1050.59H1074.03H1160.61L1160.88 133.204C1160.97 133.102 1161.06 132.996 1161.15 132.894H1484.12H1685.66H1896.57H1920L1912.16 124.59ZM147.205 103.661C137.833 110.693 147.205 80.2247 147.205 80.2247L142.316 86.0907C144.189 80.5856 145.42 74.9277 145.855 69.2421C146.331 63.1217 145.818 56.9642 144.208 51.2647C149.755 61.5303 154.043 72.4435 155.764 83.5093C156.379 87.4138 156.643 91.3461 156.569 95.2136L151.892 89.5974C151.892 89.5974 156.583 96.6292 147.205 103.661ZM241.543 102.653C241.658 94.8759 242.709 87.0021 244.675 79.244C244.675 85.8502 245.35 92.5303 246.724 99.1458C245.6 100.918 243.787 102 241.543 102.653ZM334.89 97.226C333.044 93.9876 331.527 90.4486 330.454 86.6783C329.903 89.7454 329.676 92.9375 329.713 96.1758C324.389 83.2548 313.591 75.543 313.591 75.543C318.971 79.5771 318.176 89.7824 316.52 97.7533C315.678 94.2467 315.076 90.5134 314.516 86.7754C311.195 91.3276 307.822 95.8936 305.121 101.528C305.084 101.607 305.051 101.69 305.014 101.764C304.954 101.538 304.866 101.325 304.811 101.098C303.65 96.458 303.353 91.3507 303.719 86.2203C304.334 77.4906 306.707 68.562 308.475 59.5548C313.596 57.8339 318.745 56.9457 323.047 57.8987C331.504 59.7769 338.309 76.422 342.528 90.3191C338.397 86.9697 334.682 84.9157 334.682 84.9157C335.603 89.528 335.431 93.7656 334.89 97.226ZM724.925 84.2356C725.225 80.7567 725.669 77.4397 726.262 74.2893C726.35 77.7126 725.85 81.062 724.925 84.2356ZM736.013 108.648C732.734 110.147 729.19 112.215 725.993 113.885C725.443 110.064 725.087 106.418 724.846 102.875C726.812 98.0401 728.117 92.9976 728.505 87.9227C728.843 83.5463 728.459 79.1515 727.302 75.085C731.262 82.399 734.32 90.1757 735.546 98.0633C736.106 101.607 736.254 105.178 736.013 108.648ZM758.733 104.378C758.335 106.497 757.854 108.616 757.257 110.559C755.92 110.901 754.731 111.706 753.598 112.335C755.346 104.304 757.35 96.3053 759.602 88.3575C759.945 93.8442 759.653 99.2384 758.733 104.378ZM801.215 113.552C800.859 113.797 800.507 114.047 800.146 114.292C799.54 101.403 801.109 88.228 804.884 75.4967C804.592 83.9626 805.92 92.5489 808.77 100.728C806.66 105.276 804.125 109.583 801.215 113.552ZM994.53 117.466C993.873 117.891 993.216 118.317 992.55 118.742L993.632 119.991C993.623 120.015 993.614 120.038 993.605 120.061C987.294 120.727 980.952 120.195 977.506 116.531C980.068 112.775 982.395 108.824 984.274 104.614C986.656 99.2615 988.192 93.6083 988.627 87.9227C988.965 83.5463 988.581 79.1515 987.424 75.085C991.384 82.399 994.442 90.1757 995.668 98.0633C996.718 104.72 996.385 111.484 994.53 117.466ZM1034.32 117.628C1029.59 119.076 1023.19 119.945 1016.49 117.739C1019.39 113.626 1022.03 109.286 1024.11 104.614C1026.49 99.2615 1028.03 93.6083 1028.46 87.9227C1028.8 83.5463 1028.42 79.1515 1027.26 75.085C1031.22 82.399 1034.28 90.1757 1035.5 98.0633C1036.56 104.781 1036.22 111.604 1034.32 117.628ZM1052.95 115.222C1053.05 114.764 1053.14 114.301 1053.24 113.843C1053.29 114.315 1053.32 114.787 1053.35 115.259L1052.95 115.222ZM1064.09 115.587C1064.03 116.304 1063.94 116.994 1063.82 117.651C1061.67 112.835 1058.67 108.667 1055.16 105.294C1056.77 98.5259 1058.56 91.7856 1060.52 85.0822C1062.11 91.9382 1063.22 98.8266 1063.83 105.678C1064.14 109.152 1064.38 112.566 1064.09 115.587ZM1195.89 104.831C1186.52 111.863 1195.89 81.3997 1195.89 81.3997L1191 87.2658C1192.87 81.7606 1194.1 76.1028 1194.54 70.4172C1195.02 64.2967 1194.5 58.1393 1192.89 52.4398C1198.44 62.7053 1202.72 73.6185 1204.45 84.6844C1205.06 88.5889 1205.33 92.5211 1205.25 96.3886L1200.58 90.7724C1200.58 90.7724 1205.26 97.7996 1195.89 104.831ZM1290.22 103.823C1290.34 96.0463 1291.39 88.1725 1293.35 80.4144C1293.35 87.0206 1294.03 93.7008 1295.4 100.316C1294.28 102.088 1292.47 103.171 1290.22 103.823ZM1408.38 109.411C1408.32 109.31 1408.28 109.208 1408.23 109.106C1408.03 106.89 1407.89 104.725 1407.77 102.611C1408.63 104.979 1409.59 107.325 1410.7 109.606L1408.38 109.411ZM1616.67 93.7101L1611.78 106.025C1611.48 106.761 1611.18 107.519 1610.89 108.278C1611.73 103.707 1611.97 99.1598 1611.71 94.7279C1611.09 84.5872 1608.25 75.2793 1605.25 66.1842C1605.97 75.7326 1606.38 85.3875 1604.69 94.3299C1603.96 98.3038 1602.73 102.134 1601.1 105.618C1594.84 103.976 1587.34 91.8642 1583.61 85.184C1582.5 76.9031 1581.57 68.576 1580.8 60.2164C1590.56 54.2162 1607.66 45.2831 1619.43 47.9015C1628.37 49.8907 1635.77 65.7123 1640.85 80.8354C1634.41 88.5195 1628.26 96.532 1622.44 104.85L1623.5 95.4171L1626.45 69.0848L1616.67 93.7101ZM1634.94 103.078C1637.11 96.842 1639.48 90.6383 1642.03 84.4854C1644.37 91.929 1646.11 98.8961 1647.16 103.592C1641.78 106.733 1636.84 104.299 1634.94 103.078ZM1687.04 112.816C1686.97 112.89 1686.91 112.96 1686.84 113.034L1686.82 113.029C1686.92 112.28 1687 111.53 1687.09 110.781C1687.07 111.461 1687.04 112.136 1687.04 112.816ZM1708.61 119.196C1707.14 118.826 1706 117.979 1705.51 116.402C1705.42 115.92 1705.32 115.439 1705.24 114.954C1704.92 109.185 1709.76 96.1943 1704.12 97.8551C1704.37 90.3653 1705.56 82.8339 1707.73 75.5014C1712.69 89.9212 1712.8 105.479 1708.61 119.196ZM1755.16 111.105C1750.03 109.564 1745.42 108.347 1745.42 108.347L1738.86 113.311C1740.59 110.526 1742.19 107.644 1743.54 104.614C1745.92 99.2615 1747.46 93.6083 1747.89 87.9227C1748.23 83.5463 1747.85 79.1515 1746.69 75.085C1750.65 82.399 1753.71 90.1757 1754.93 98.0633C1755.63 102.454 1755.71 106.881 1755.16 111.105ZM1779.59 75.2515C1779.58 75.2654 1779.58 75.2747 1779.57 75.284C1779.55 75.2146 1779.52 75.1544 1779.5 75.085C1779.53 75.1405 1779.56 75.196 1779.59 75.2515ZM1787.27 115.037L1787.18 114.972C1787.18 114.972 1777.26 117.216 1771.96 117.29C1772.44 114.954 1772.94 112.617 1773.46 110.281C1774.49 108.44 1775.48 106.562 1776.35 104.614C1778.73 99.2615 1780.27 93.6083 1780.7 87.9227C1780.84 86.1138 1780.82 84.3097 1780.71 82.5147C1781.03 81.4553 1781.33 80.3959 1781.66 79.3411C1784.55 85.3876 1786.75 91.6884 1787.74 98.0633C1788.65 103.832 1788.53 109.684 1787.27 115.037ZM1810.14 116.508L1804.55 118.354C1806.55 108.444 1808.92 98.5814 1811.68 88.797C1813 98.1928 1812.44 107.681 1810.14 116.508ZM1821.06 112.909L1819.51 113.422C1819.01 100.807 1820.58 87.9412 1824.27 75.4967C1823.98 83.9626 1825.31 92.5489 1828.16 100.728C1826.16 105.035 1823.78 109.115 1821.06 112.909ZM1834.84 120.311C1835.48 119.441 1836.11 118.557 1836.74 117.669C1837.32 118.511 1837.91 119.339 1838.53 120.158C1837.29 120.264 1836.05 120.32 1834.84 120.311ZM1840.17 94.8296C1839.62 95.6715 1839.07 96.5043 1838.48 97.3046C1837.38 95.3015 1836.35 93.252 1835.48 91.1194C1835.92 87.5618 1836.13 83.9951 1836.09 80.4468C1837.88 84.3281 1839.37 88.3067 1840.43 92.3407C1840.32 93.1595 1840.24 93.9922 1840.17 94.8296ZM1862.47 117.739C1862.66 117.47 1862.85 117.202 1863.04 116.934C1863.06 117.276 1863.07 117.623 1863.1 117.965C1862.89 117.9 1862.68 117.808 1862.47 117.739ZM1862.82 99.1273C1863.38 96.9391 1863.95 94.751 1864.55 92.572C1864.19 94.4086 1863.87 96.2544 1863.62 98.1188C1863.36 98.4519 1863.1 98.7942 1862.82 99.1273ZM1880.3 117.628C1876.02 118.937 1870.36 119.769 1864.36 118.284L1873 116.869C1871.86 112.354 1871.11 107.704 1870.74 102.99C1872.72 98.1235 1874.05 93.0439 1874.44 87.9273C1874.78 83.551 1874.4 79.156 1873.24 75.0896C1877.2 82.4036 1880.26 90.1803 1881.48 98.068C1882.54 104.781 1882.19 111.604 1880.3 117.628ZM1898.93 115.222C1899.03 114.764 1899.12 114.301 1899.21 113.843C1899.27 114.315 1899.3 114.787 1899.33 115.259L1898.93 115.222Z" fill="white"/>
</svg>
