<svg width="1040" height="434" viewBox="0 0 1040 434" fill="none" xmlns="http://www.w3.org/2000/svg">
<g clip-path="url(#clip0_934_63)">
<path d="M979.503 341.91C987.521 341.91 994.021 335.641 994.021 327.908C994.021 320.175 987.521 313.906 979.503 313.906C971.484 313.906 964.984 320.175 964.984 327.908C964.984 335.641 971.484 341.91 979.503 341.91Z" fill="#0B3D2C" fill-opacity="0.05"/>
<path d="M1016.54 433.23C1029.38 433.23 1039.8 423.186 1039.8 410.795C1039.8 398.404 1029.38 388.359 1016.54 388.359C1003.69 388.359 993.273 398.404 993.273 410.795C993.273 423.186 1003.69 433.23 1016.54 433.23Z" fill="#0B3D2C" fill-opacity="0.05"/>
<path d="M80.3806 204.728C119.995 264.755 202.565 282.445 264.806 244.24C327.047 206.035 345.39 126.402 305.775 66.3754C266.161 6.34875 183.591 -11.3411 121.35 26.864C59.1085 65.0692 40.7661 144.702 80.3806 204.728Z" stroke="#0B3D2C" stroke-opacity="0.15"/>
<path d="M26.818 302.439C66.4325 362.466 149.003 380.156 211.244 341.951C273.485 303.746 291.827 224.113 252.213 164.086C212.598 104.06 130.028 86.3698 67.787 124.575C5.54599 162.78 -12.7965 242.413 26.818 302.439Z" stroke="#0B3D2C" stroke-opacity="0.15"/>
</g>
<defs>
<clipPath id="clip0_934_63">
<rect width="1040" height="434" fill="white"/>
</clipPath>
</defs>
</svg>
